<svg id="Layer_1" data-name="Layer 1" xmlns="http://www.w3.org/2000/svg" xmlns:xlink="http://www.w3.org/1999/xlink" viewBox="0 0 512 512"><defs><style>.cls-1,.cls-6{fill:none;}.cls-2{fill:#3eb778;}.cls-3{clip-path:url(#clip-path);}.cls-4{fill:#3eba5e;}.cls-5{fill:#32a05f;}.cls-6{stroke:#fff;stroke-linejoin:round;stroke-width:22.68px;}.cls-7{clip-path:url(#clip-path-4);}.cls-8{fill:#a0775c;}.cls-9{fill:#7a604d;}.cls-10{fill:#21a556;}.cls-11{clip-path:url(#clip-path-9);}.cls-12{clip-path:url(#clip-path-12);}.cls-13{fill:#ffca98;}.cls-14{fill:#d1af93;}.cls-15{fill:#6c517a;}.cls-16{fill:#e1ad7f;}.cls-17{fill:#fff;}.cls-18{fill:#877d7b;}</style><clipPath id="clip-path"><rect class="cls-1" x="-532" y="0.17" width="511.67" height="511.67"/></clipPath><clipPath id="clip-path-4"><path class="cls-1" d="M-69.09,122.84c11.64,12.22,28,30.13,46.43,52.89,35.66,44.09,38.41,56.21,39,64.94C18.16,269.9-1.92,304.22-21.16,305c-23.15.93-22.71-51.08-77.19-92.09C-118.63,197.62-133,194-136.26,178.57c-4-19.11,12.51-44.17,35.11-53.19C-87.8,120.06-75.41,121.57-69.09,122.84Z"/></clipPath><clipPath id="clip-path-9"><rect class="cls-1" x="0.17" y="0.17" width="511.67" height="511.67"/></clipPath><clipPath id="clip-path-12"><path id="SVGID" class="cls-1" d="M121.4,139.69A128,128,0,0,0,107,169.33c-12.69,35.84-9.15,68.15-7.06,86.12,11.11,95.21,16.74,142.94,20.63,149.11,31.52,49.93,93.47,73.92,145.72,73.12,8.05-.12,91.75-2.49,122.36-56.4,1.14-2,1.82-3.43,3-5.86C405.33,388,405.38,358.9,405.47,300.8c.1-65.75-.37-109-26.63-154.82-8.74-15.27-18.93-33.06-39.76-48.16-52-37.71-122.19-23.79-161.59-4.63C165.33,99.1,139.92,111.83,121.4,139.69Z"/></clipPath></defs><rect class="cls-2" x="0.17" y="0.17" width="511.67" height="511.67"/><g class="cls-3"><rect class="cls-4" x="-543.87" y="210.11" width="563.83" height="219.58"/><rect class="cls-5" x="-550.58" y="233.23" width="566.97" height="177.96"/><path class="cls-2" d="M-538.65,243.41c12,.67,17-3.34,33.69-4,20.53-.82,29.8,4.55,49.79,7.24,30.35,4.08,39.64-4.2,87.05-5.12,55.69-1.08,71.49,9.79,110.61,4.12,16.43-2.38,23.68-5.75,40.25-5.35,21.15.52,24.27,6.39,44.12,9.69C-131,257-101,237.89-33,241.07c21.21,1,35.4,3.65,43.82.56C24.2,236.72,7.51,223,6.34,222-42,182.26-563,198.29-570.55,226.82-572,232.19-556.38,242.42-538.65,243.41Z"/><g class="cls-3"><path class="cls-6" d="M-69.09,122.84c11.64,12.22,28,30.13,46.43,52.89,35.66,44.09,38.41,56.21,39,64.94C18.16,269.9-1.92,304.22-21.16,305c-23.15.93-22.71-51.08-77.19-92.09C-118.63,197.62-133,194-136.26,178.57c-4-19.11,12.51-44.17,35.11-53.19C-87.8,120.06-75.41,121.57-69.09,122.84Z"/><g class="cls-7"><path class="cls-6" d="M-100,156.68c4.19,2.81,10,.06,12.55,3.87,3.23,4.85-4.64,11.62-1.47,18.31,2.27,4.77,7.18,3.23,11.89,9.5,4.17,5.57,3,10.43,5.41,11,3.58.79,5.57-10.27,14.26-15.18,10.87-6.16,26.7.43,26.63,3.34-.08,3.41-22.22,2.59-24.26,11.05-1.19,4.94,5.23,7.57,4.69,14.39-.62,7.72-9.39,9-13.4,17.42-5.72,12,2.26,29.94,7.39,30C-49,260.35-42.7,223.42-40,224c1.33.3-1,9.09,3,12.08s10.7-4.78,18-2.17c5.4,1.92,4.61,7.2,10.1,10.69,7.5,4.77,20.9,2.49,25.25-3.93,5-7.38-2.94-18.78-14-39.24-27.76-51.55-21.17-60.36-40.2-77.82C-43,118.9-70.18,93.93-89.54,103.8-107.94,113.19-110.08,149.93-100,156.68Z"/></g><path class="cls-6" d="M17.74,242.93C30.63,267,26.86,310.14,4.08,310.14h-29.8c-14.24,0-21.15-13.09-29.28-28.27-12.88-24.07-7-52.3,13-63.05S4.86,218.86,17.74,242.93Z"/><circle class="cls-6" cx="-69.16" cy="449.59" r="74.46"/><rect class="cls-6" x="-551.92" y="459.93" width="547.83" height="88.1"/><path class="cls-6" d="M-69.09,122.84c11.64,12.22,28,30.13,46.43,52.89,35.66,44.09,38.41,56.21,39,64.94C18.16,269.9-1.92,304.22-21.16,305c-23.15.93-22.71-51.08-77.19-92.09C-118.63,197.62-133,194-136.26,178.57c-4-19.11,12.51-44.17,35.11-53.19C-87.8,120.06-75.41,121.57-69.09,122.84Z"/><g class="cls-7"><path class="cls-6" d="M-100,156.68c4.19,2.81,10,.06,12.55,3.87,3.23,4.85-4.64,11.62-1.47,18.31,2.27,4.77,7.18,3.23,11.89,9.5,4.17,5.57,3,10.43,5.41,11,3.58.79,5.57-10.27,14.26-15.18,10.87-6.16,26.7.43,26.63,3.34-.08,3.41-22.22,2.59-24.26,11.05-1.19,4.94,5.23,7.57,4.69,14.39-.62,7.72-9.39,9-13.4,17.42-5.72,12,2.26,29.94,7.39,30C-49,260.35-42.7,223.42-40,224c1.33.3-1,9.09,3,12.08s10.7-4.78,18-2.17c5.4,1.92,4.61,7.2,10.1,10.69,7.5,4.77,20.9,2.49,25.25-3.93,5-7.38-2.94-18.78-14-39.24-27.76-51.55-21.17-60.36-40.2-77.82C-43,118.9-70.18,93.93-89.54,103.8-107.94,113.19-110.08,149.93-100,156.68Z"/></g><path class="cls-6" d="M17.74,242.93C30.63,267,26.86,310.14,4.08,310.14h-29.8c-14.24,0-21.15-13.09-29.28-28.27-12.88-24.07-7-52.3,13-63.05S4.86,218.86,17.74,242.93Z"/><circle class="cls-6" cx="-69.16" cy="449.59" r="74.46"/><rect class="cls-6" x="-551.92" y="459.93" width="547.83" height="88.1"/><path class="cls-6" d="M-69.09,122.84c11.64,12.22,28,30.13,46.43,52.89,35.66,44.09,38.41,56.21,39,64.94C18.16,269.9-1.92,304.22-21.16,305c-23.15.93-22.71-51.08-77.19-92.09C-118.63,197.62-133,194-136.26,178.57c-4-19.11,12.51-44.17,35.11-53.19C-87.8,120.06-75.41,121.57-69.09,122.84Z"/><g class="cls-7"><path class="cls-6" d="M-100,156.68c4.19,2.81,10,.06,12.55,3.87,3.23,4.85-4.64,11.62-1.47,18.31,2.27,4.77,7.18,3.23,11.89,9.5,4.17,5.57,3,10.43,5.41,11,3.58.79,5.57-10.27,14.26-15.18,10.87-6.16,26.7.43,26.63,3.34-.08,3.41-22.22,2.59-24.26,11.05-1.19,4.94,5.23,7.57,4.69,14.39-.62,7.72-9.39,9-13.4,17.42-5.72,12,2.26,29.94,7.39,30C-49,260.35-42.7,223.42-40,224c1.33.3-1,9.09,3,12.08s10.7-4.78,18-2.17c5.4,1.92,4.61,7.2,10.1,10.69,7.5,4.77,20.9,2.49,25.25-3.93,5-7.38-2.94-18.78-14-39.24-27.76-51.55-21.17-60.36-40.2-77.82C-43,118.9-70.18,93.93-89.54,103.8-107.94,113.19-110.08,149.93-100,156.68Z"/></g><path class="cls-6" d="M17.74,242.93C30.63,267,26.86,310.14,4.08,310.14h-29.8c-14.24,0-21.15-13.09-29.28-28.27-12.88-24.07-7-52.3,13-63.05S4.86,218.86,17.74,242.93Z"/><circle class="cls-6" cx="-69.16" cy="449.59" r="74.46"/><rect class="cls-6" x="-551.92" y="459.93" width="547.83" height="88.1"/></g><g class="cls-3"><path class="cls-8" d="M-69.09,122.84c11.64,12.22,28,30.13,46.43,52.89,35.66,44.09,38.41,56.21,39,64.94C18.16,269.9-1.92,304.22-21.16,305c-23.15.93-22.71-51.08-77.19-92.09C-118.63,197.62-133,194-136.26,178.57c-4-19.11,12.51-44.17,35.11-53.19C-87.8,120.06-75.41,121.57-69.09,122.84Z"/><g class="cls-7"><path class="cls-9" d="M-100,156.68c4.19,2.81,10,.06,12.55,3.87,3.23,4.85-4.64,11.62-1.47,18.31,2.27,4.77,7.18,3.23,11.89,9.5,4.17,5.57,3,10.43,5.41,11,3.58.79,5.57-10.27,14.26-15.18,10.87-6.16,26.7.43,26.63,3.34-.08,3.41-22.22,2.59-24.26,11.05-1.19,4.94,5.23,7.57,4.69,14.39-.62,7.72-9.39,9-13.4,17.42-5.72,12,2.26,29.94,7.39,30C-49,260.35-42.7,223.42-40,224c1.33.3-1,9.09,3,12.08s10.7-4.78,18-2.17c5.4,1.92,4.61,7.2,10.1,10.69,7.5,4.77,20.9,2.49,25.25-3.93,5-7.38-2.94-18.78-14-39.24-27.76-51.55-21.17-60.36-40.2-77.82C-43,118.9-70.18,93.93-89.54,103.8-107.94,113.19-110.08,149.93-100,156.68Z"/></g><path class="cls-8" d="M17.74,242.93C30.63,267,26.86,310.14,4.08,310.14h-29.8c-14.24,0-21.15-13.09-29.28-28.27-12.88-24.07-7-52.3,13-63.05S4.86,218.86,17.74,242.93Z"/><circle class="cls-10" cx="-69.16" cy="449.59" r="74.46"/></g></g><g class="cls-11"><g class="cls-11"><path class="cls-6" d="M121.4,139.69A128,128,0,0,0,107,169.33c-12.69,35.84-9.15,68.15-7.06,86.12,11.11,95.21,16.74,142.94,20.63,149.11,31.52,49.93,93.47,73.92,145.72,73.12,8.05-.12,91.75-2.49,122.36-56.4,1.14-2,1.82-3.43,3-5.86C405.33,388,405.38,358.9,405.47,300.8c.1-65.75-.37-109-26.63-154.82-8.74-15.27-18.93-33.06-39.76-48.16-52-37.71-122.19-23.79-161.59-4.63C165.33,99.1,139.92,111.83,121.4,139.69Z"/><g class="cls-12"><path class="cls-6" d="M488.74,346.09c-18-9.73-43.76,6.2-75.51,25.86-31.18,19.3-46.77,38.62-51.43,44.65a186.3,186.3,0,0,0-12.1,16.93A13.93,13.93,0,0,1,334,439.7l-.27-.08c-20.39-5.8-34.16-9.71-54.7-9.5-15.69.16-28.36,3.52-53.72,10.25-3.87,1-7.1,1.95-9.8,2.83a10.44,10.44,0,0,1-12.11-4.49l0-.07C194.5,424.44,184,416.49,173,408.2c-6.09-4.59-26.21-19.12-61.37-29.54-35.8-10.61-64.83-19.2-79.66-5.07-14.49,13.8-9.7,43.8-2.53,61.88,25.72,64.85,129.05,94.58,171.09,80.26a16.86,16.86,0,0,0,1.6,9.73c9.32,19.69,47.39,26.11,67.19,27,33.65,1.46,68-10.83,85.78-26.27,39.67,11.86,144.12-46.89,152.4-121C509.63,385.8,506.35,355.59,488.74,346.09Z"/></g><path class="cls-6" d="M121.4,139.69A128,128,0,0,0,107,169.33c-12.69,35.84-9.15,68.15-7.06,86.12,11.11,95.21,16.74,142.94,20.63,149.11,31.52,49.93,93.47,73.92,145.72,73.12,8.05-.12,91.75-2.49,122.36-56.4,1.14-2,1.82-3.43,3-5.86C405.33,388,405.38,358.9,405.47,300.8c.1-65.75-.37-109-26.63-154.82-8.74-15.27-18.93-33.06-39.76-48.16-52-37.71-122.19-23.79-161.59-4.63C165.33,99.1,139.92,111.83,121.4,139.69Z"/><path class="cls-6" d="M342.59,206.36q-11.77,1-24.23,1.57c-11,.54-21.69.8-32,.84"/><ellipse class="cls-6" cx="310.03" cy="272.44" rx="47.48" ry="48.27" transform="translate(-94.77 191.98) rotate(-30.07)"/><ellipse class="cls-6" cx="319.47" cy="260.02" rx="36.01" ry="36.61" transform="translate(-87.29 195.04) rotate(-30.07)"/><circle class="cls-6" cx="319.47" cy="260.02" r="5.59"/><path class="cls-6" d="M224.92,206.07q-11.76,1.05-24.21,1.74-16.53.91-32,1.06"/><ellipse class="cls-6" cx="213.51" cy="272.96" rx="47.48" ry="48.27" transform="translate(-74.54 465.63) rotate(-85.74)"/><ellipse class="cls-6" cx="208.58" cy="258.17" rx="36.01" ry="36.61" transform="translate(-64.35 447.02) rotate(-85.74)"/><circle class="cls-6" cx="208.58" cy="258.17" r="5.59"/><path class="cls-6" d="M169.83,330.06l25.6-15.67c.56,19.16,14.82,36.64,37,45.17,20.74,8,46.81,7.64,66.88-2.86,25.42-13.29,26.93-35.49,27.06-38.18L341,330.24"/><path class="cls-6" d="M116.16,211.64a14.37,14.37,0,0,1,5.52-12.38c5.59-4.31,13.41-9.41,17.32-8.91q65,8.28,67.61-.95,1-3.77-8.24-10.44a204.38,204.38,0,0,1,37.63-.78c21.83,1.57,35.21,6.08,38.12,1.17,1.45-2.44.53-7.6-10.39-19.62,13.48,4.36,25.83,8.3,36.88,11.8,30.85,9.77,42.11,13.1,45.11,8.92,1.34-1.86,1.38-5.7-4.17-14.3,8.65,2.87,21.54,7,37.33,11.56,41.05,11.87,44,10,44.88,8.72,2.5-3.59-2.77-15-42.55-52.31,18.56,2.73,23.46,0,24.77-2.67,6.22-12.8-50-64.4-117.33-80.54a204,204,0,0,0-83.53-2c2.11-9.78.56-12.89-1.09-14-2.89-2-8.42.65-34.88,18.47-12.82,8.64-10.77,7.53-14,9.51C132.05,77.14,124.33,73,110.41,84.39a63.19,63.19,0,0,0-18.9,26.46,60,60,0,0,0-3.55,19c-1.61,40.42,5.19,79.73,6.84,122.1,0,0,2,52.08,12.36,55.65a24.44,24.44,0,0,0,6.74,1.21H114a8.29,8.29,0,0,0,8.21-8.93Z"/><path class="cls-6" d="M116.16,211.64a14.37,14.37,0,0,1,5.52-12.38c5.59-4.31,13.41-9.41,17.32-8.91q65,8.28,67.61-.95,1-3.77-8.24-10.44a204.38,204.38,0,0,1,37.63-.78c21.83,1.57,35.21,6.08,38.12,1.17,1.45-2.44.53-7.6-10.39-19.62,13.48,4.36,25.83,8.3,36.88,11.8,30.85,9.77,42.11,13.1,45.11,8.92,1.34-1.86,1.38-5.7-4.17-14.3,8.65,2.87,21.54,7,37.33,11.56,41.05,11.87,44,10,44.88,8.72,2.5-3.59-2.77-15-42.55-52.31,18.56,2.73,23.46,0,24.77-2.67,6.22-12.8-50-64.4-117.33-80.54a204,204,0,0,0-83.53-2c2.11-9.78.56-12.89-1.09-14-2.89-2-8.42.65-34.88,18.47-12.82,8.64-10.77,7.53-14,9.51C132.05,77.14,124.33,73,110.41,84.39a63.19,63.19,0,0,0-18.9,26.46,60,60,0,0,0-3.55,19c-1.61,40.42,5.19,79.73,6.84,122.1,0,0,2,52.08,12.36,55.65a24.44,24.44,0,0,0,6.74,1.21H114a8.29,8.29,0,0,0,8.21-8.93Z"/><path class="cls-6" d="M371,150.6c13.89,37.31,20.6,116.53,19.2,140.21a5.5,5.5,0,0,0,6.25,5.76l13.71-1.86a744.72,744.72,0,0,0-15.21-120.53"/><path class="cls-6" d="M371,150.6c13.89,37.31,20.6,116.53,19.2,140.21a5.5,5.5,0,0,0,6.25,5.76l13.71-1.86a744.72,744.72,0,0,0-15.21-120.53"/><path class="cls-6" d="M215.67,334.25c.79-2.92,11.67-4,50.44,1.74,36.52-6.79,43.88-5.2,44.61-2.9,1.41,4.41-19.32,18.59-42.64,20.25C240.39,355.3,214.32,339.21,215.67,334.25Z"/><path class="cls-6" d="M215.84,388c1.49-2.83,4.1-6.64,8.51-8.67,11.68-5.37,20.32,9,38.06,8.84s26.46-14.79,38.07-9.56c4.43,2,7,5.86,8.57,8.81a82.23,82.23,0,0,1-93.21.58Z"/><path class="cls-6" d="M260.06,417.58l-5.56-9.21-9,1.2,5.93-10.25,9.59,1.9,8.78-.21,8.09,11.14L266.47,409Q263.27,413.3,260.06,417.58Z"/><path class="cls-6" d="M160.23,60.63c-5.67-4.72,5.29-22.33,5.29-22.33s16,7.94,13.57,15.9C176.86,61.63,164.82,64.46,160.23,60.63Z"/><path class="cls-6" d="M158.77,72.86c-2.41,1.08-6-1.63-13.23-7.06a111.19,111.19,0,0,1-9.06-7.62c8.21-7,18.37-6.89,22.77-2.09S162.51,71.19,158.77,72.86Z"/><path class="cls-6" d="M121.4,139.69A128,128,0,0,0,107,169.33c-12.69,35.84-9.15,68.15-7.06,86.12,11.11,95.21,16.74,142.94,20.63,149.11,31.52,49.93,93.47,73.92,145.72,73.12,8.05-.12,91.75-2.49,122.36-56.4,1.14-2,1.82-3.43,3-5.86C405.33,388,405.38,358.9,405.47,300.8c.1-65.75-.37-109-26.63-154.82-8.74-15.27-18.93-33.06-39.76-48.16-52-37.71-122.19-23.79-161.59-4.63C165.33,99.1,139.92,111.83,121.4,139.69Z"/><g class="cls-12"><path class="cls-6" d="M488.74,346.09c-18-9.73-43.76,6.2-75.51,25.86-31.18,19.3-46.77,38.62-51.43,44.65a186.3,186.3,0,0,0-12.1,16.93A13.93,13.93,0,0,1,334,439.7l-.27-.08c-20.39-5.8-34.16-9.71-54.7-9.5-15.69.16-28.36,3.52-53.72,10.25-3.87,1-7.1,1.95-9.8,2.83a10.44,10.44,0,0,1-12.11-4.49l0-.07C194.5,424.44,184,416.49,173,408.2c-6.09-4.59-26.21-19.12-61.37-29.54-35.8-10.61-64.83-19.2-79.66-5.07-14.49,13.8-9.7,43.8-2.53,61.88,25.72,64.85,129.05,94.58,171.09,80.26a16.86,16.86,0,0,0,1.6,9.73c9.32,19.69,47.39,26.11,67.19,27,33.65,1.46,68-10.83,85.78-26.27,39.67,11.86,144.12-46.89,152.4-121C509.63,385.8,506.35,355.59,488.74,346.09Z"/></g><path class="cls-6" d="M263.81,482.65a193,193,0,0,1-80.22-18c-28.7-13.42-51.93-33.28-67.17-57.42C112.07,400.31,107.54,363,95.06,256c-2.08-17.8-5.94-50.92,7.31-88.34A132.48,132.48,0,0,1,117.28,137h0c19.63-29.55,46.55-42.63,58-48.21a203.65,203.65,0,0,1,78-19.5c33.93-1.36,64.57,7.13,88.62,24.57,21.69,15.73,32.48,34.57,41.15,49.71,27.45,47.91,27.38,93.79,27.28,157.29-.09,58.8-.13,88.31-14.28,116.81l-.56,1.13c-.91,1.85-1.57,3.18-2.59,5-31.71,55.85-117,58.75-126.59,58.9ZM125.52,142.43A123.8,123.8,0,0,0,111.69,171c-12.48,35.25-8.79,66.9-6.81,83.89,9.55,81.85,16.45,141,19.92,147.07,31,49.1,91.72,70.81,139.1,70.82l2.34,0c9-.14,89.14-2.83,118.14-53.9.88-1.54,1.45-2.71,2.32-4.47l.57-1.14c13.12-26.44,13.16-55.18,13.25-112.43.1-62,.17-106.74-26-152.36-8.63-15.06-18.4-32.14-38.38-46.62-52.31-37.93-123-20.48-156.52-4.19-10.76,5.24-36,17.49-54.13,44.8Z"/><path class="cls-6" d="M286.4,213.75a5,5,0,0,1,0-9.95c10.54,0,21.21-.32,31.74-.83,8-.39,16.08-.92,24.06-1.57a5,5,0,0,1,.81,9.91c-8.09.67-16.29,1.2-24.39,1.59-10.67.52-21.5.8-32.18.85Z"/><ellipse class="cls-6" cx="310.03" cy="272.44" rx="47.48" ry="48.27" transform="translate(-94.77 191.98) rotate(-30.07)"/><ellipse class="cls-6" cx="319.47" cy="260.02" rx="36.01" ry="36.61" transform="translate(-87.29 195.04) rotate(-30.07)"/><path class="cls-6" d="M320.05,301.11A41.59,41.59,0,0,1,280,249.23a40.2,40.2,0,0,1,49.76-28.81,41.27,41.27,0,0,1,24.86,19.26c11.38,19.67,4.88,44.8-14.5,56A40,40,0,0,1,320.05,301.11Zm-1.15-73a31,31,0,0,0-30,23.38,32.43,32.43,0,0,0,22.7,39.22,30.88,30.88,0,0,0,23.88-3h0c15-8.68,20-28.17,11.15-43.44a32.1,32.1,0,0,0-19.34-15A31.51,31.51,0,0,0,318.9,228.15Z"/><circle class="cls-6" cx="319.47" cy="260.02" r="5.59"/><path class="cls-6" d="M168.75,213.84a5,5,0,0,1-.05-10c10.54-.11,21.21-.46,31.73-1,8-.44,16.1-1,24-1.73a5,5,0,1,1,.89,9.9c-8.07.72-16.28,1.31-24.39,1.76-10.67.59-21.49.94-32.17,1.06Z"/><ellipse class="cls-6" cx="213.51" cy="272.96" rx="47.48" ry="48.27" transform="translate(-74.54 465.63) rotate(-85.74)"/><ellipse class="cls-6" cx="208.58" cy="258.17" rx="36.01" ry="36.61" transform="translate(-64.35 447.02) rotate(-85.74)"/><path class="cls-6" d="M208.74,298.79c-1.05,0-2.11,0-3.17-.12a41.22,41.22,0,0,1-28.16-14,40.21,40.21,0,0,1,4.27-57.34,41.63,41.63,0,0,1,58.07,4.32A40.19,40.19,0,0,1,235.49,289,41.21,41.21,0,0,1,208.74,298.79Zm-.3-72a32.06,32.06,0,0,0-20.81,7.61,31,31,0,0,0-3.29,44.25,32.45,32.45,0,0,0,45.2,3.36,30.88,30.88,0,0,0,11-21.43h0a30.87,30.87,0,0,0-7.67-22.81,32.16,32.16,0,0,0-21.92-10.89C210.09,226.78,209.26,226.75,208.44,226.75Z"/><circle class="cls-6" cx="208.58" cy="258.17" r="5.59"/><path class="cls-6" d="M263.11,369.45a90.14,90.14,0,0,1-32.19-5.88c-21.21-8.14-35.6-23.84-39-42l-19.82,12.13a4.3,4.3,0,0,1-4.5-7.34l31.94-19.55.22,7.42c.51,17.54,13.64,33.36,34.27,41.28,20.41,7.84,45.27,6.8,63.33-2.65C320,341.07,321.93,322,322.1,318.33l.38-8.48,21.17,17a4.3,4.3,0,0,1-5.4,6.7l-8.78-7.06c-2.33,9.24-9,24-28.14,34A82.93,82.93,0,0,1,263.11,369.45Z"/><path class="cls-6" d="M116.16,211.64a14.37,14.37,0,0,1,5.52-12.38c5.59-4.31,13.41-9.41,17.32-8.91q65,8.28,67.61-.95,1-3.77-8.24-10.44a204.38,204.38,0,0,1,37.63-.78c21.83,1.57,35.21,6.08,38.12,1.17,1.45-2.44.53-7.6-10.39-19.62,13.48,4.36,25.83,8.3,36.88,11.8,30.85,9.77,42.11,13.1,45.11,8.92,1.34-1.86,1.38-5.7-4.17-14.3,8.65,2.87,21.54,7,37.33,11.56,41.05,11.87,44,10,44.88,8.72,2.5-3.59-2.77-15-42.55-52.31,18.56,2.73,23.46,0,24.77-2.67,6.22-12.8-50-64.4-117.33-80.54a204,204,0,0,0-83.53-2c2.11-9.78.56-12.89-1.09-14-2.89-2-8.42.65-34.88,18.47-12.82,8.64-10.77,7.53-14,9.51C132.05,77.14,124.33,73,110.41,84.39a63.19,63.19,0,0,0-18.9,26.46,60,60,0,0,0-3.55,19c-1.61,40.42,5.19,79.73,6.84,122.1,0,0,2,52.08,12.36,55.65a24.44,24.44,0,0,0,6.74,1.21H114a8.29,8.29,0,0,0,8.21-8.93Z"/><path class="cls-6" d="M116.16,211.64a14.37,14.37,0,0,1,5.52-12.38c5.59-4.31,13.41-9.41,17.32-8.91q65,8.28,67.61-.95,1-3.77-8.24-10.44a204.38,204.38,0,0,1,37.63-.78c21.83,1.57,35.21,6.08,38.12,1.17,1.45-2.44.53-7.6-10.39-19.62,13.48,4.36,25.83,8.3,36.88,11.8,30.85,9.77,42.11,13.1,45.11,8.92,1.34-1.86,1.38-5.7-4.17-14.3,8.65,2.87,21.54,7,37.33,11.56,41.05,11.87,44,10,44.88,8.72,2.5-3.59-2.77-15-42.55-52.31,18.56,2.73,23.46,0,24.77-2.67,6.22-12.8-50-64.4-117.33-80.54a204,204,0,0,0-83.53-2c2.11-9.78.56-12.89-1.09-14-2.89-2-8.42.65-34.88,18.47-12.82,8.64-10.77,7.53-14,9.51C132.05,77.14,124.33,73,110.41,84.39a63.19,63.19,0,0,0-18.9,26.46,60,60,0,0,0-3.55,19c-1.61,40.42,5.19,79.73,6.84,122.1,0,0,2,52.08,12.36,55.65a24.44,24.44,0,0,0,6.74,1.21H114a8.29,8.29,0,0,0,8.21-8.93Z"/><path class="cls-6" d="M371,150.6c13.89,37.31,20.6,116.53,19.2,140.21a5.5,5.5,0,0,0,6.25,5.76l13.71-1.86a744.72,744.72,0,0,0-15.21-120.53"/><path class="cls-6" d="M371,150.6c13.89,37.31,20.6,116.53,19.2,140.21a5.5,5.5,0,0,0,6.25,5.76l13.71-1.86a744.72,744.72,0,0,0-15.21-120.53"/><path class="cls-6" d="M215.67,334.25c.79-2.92,11.67-4,50.44,1.74,36.52-6.79,43.88-5.2,44.61-2.9,1.41,4.41-19.32,18.59-42.64,20.25C240.39,355.3,214.32,339.21,215.67,334.25Z"/><path class="cls-6" d="M215.84,388c1.49-2.83,4.1-6.64,8.51-8.67,11.68-5.37,20.32,9,38.06,8.84s26.46-14.79,38.07-9.56c4.43,2,7,5.86,8.57,8.81a82.23,82.23,0,0,1-93.21.58Z"/><path class="cls-6" d="M260.06,417.58l-5.56-9.21-9,1.2,5.93-10.25,9.59,1.9,8.78-.21,8.09,11.14L266.47,409Q263.27,413.3,260.06,417.58Z"/><path class="cls-6" d="M160.23,60.63c-5.67-4.72,5.29-22.33,5.29-22.33s16,7.94,13.57,15.9C176.86,61.63,164.82,64.46,160.23,60.63Z"/><path class="cls-6" d="M158.77,72.86c-2.41,1.08-6-1.63-13.23-7.06a111.19,111.19,0,0,1-9.06-7.62c8.21-7,18.37-6.89,22.77-2.09S162.51,71.19,158.77,72.86Z"/><path class="cls-6" d="M121.4,139.69A128,128,0,0,0,107,169.33c-12.69,35.84-9.15,68.15-7.06,86.12,11.11,95.21,16.74,142.94,20.63,149.11,31.52,49.93,93.47,73.92,145.72,73.12,8.05-.12,91.75-2.49,122.36-56.4,1.14-2,1.82-3.43,3-5.86C405.33,388,405.38,358.9,405.47,300.8c.1-65.75-.37-109-26.63-154.82-8.74-15.27-18.93-33.06-39.76-48.16-52-37.71-122.19-23.79-161.59-4.63C165.33,99.1,139.92,111.83,121.4,139.69Z"/><g class="cls-12"><path class="cls-6" d="M488.74,346.09c-18-9.73-43.76,6.2-75.51,25.86-31.18,19.3-46.77,38.62-51.43,44.65a186.3,186.3,0,0,0-12.1,16.93A13.93,13.93,0,0,1,334,439.7l-.27-.08c-20.39-5.8-34.16-9.71-54.7-9.5-15.69.16-28.36,3.52-53.72,10.25-3.87,1-7.1,1.95-9.8,2.83a10.44,10.44,0,0,1-12.11-4.49l0-.07C194.5,424.44,184,416.49,173,408.2c-6.09-4.59-26.21-19.12-61.37-29.54-35.8-10.61-64.83-19.2-79.66-5.07-14.49,13.8-9.7,43.8-2.53,61.88,25.72,64.85,129.05,94.58,171.09,80.26a16.86,16.86,0,0,0,1.6,9.73c9.32,19.69,47.39,26.11,67.19,27,33.65,1.46,68-10.83,85.78-26.27,39.67,11.86,144.12-46.89,152.4-121C509.63,385.8,506.35,355.59,488.74,346.09Z"/></g><path class="cls-6" d="M121.4,139.69A128,128,0,0,0,107,169.33c-12.69,35.84-9.15,68.15-7.06,86.12,11.11,95.21,16.74,142.94,20.63,149.11,31.52,49.93,93.47,73.92,145.72,73.12,8.05-.12,91.75-2.49,122.36-56.4,1.14-2,1.82-3.43,3-5.86C405.33,388,405.38,358.9,405.47,300.8c.1-65.75-.37-109-26.63-154.82-8.74-15.27-18.93-33.06-39.76-48.16-52-37.71-122.19-23.79-161.59-4.63C165.33,99.1,139.92,111.83,121.4,139.69Z"/><path class="cls-6" d="M342.59,206.36q-11.77,1-24.23,1.57c-11,.54-21.69.8-32,.84"/><ellipse class="cls-6" cx="310.03" cy="272.44" rx="47.48" ry="48.27" transform="translate(-94.77 191.98) rotate(-30.07)"/><ellipse class="cls-6" cx="319.47" cy="260.02" rx="36.01" ry="36.61" transform="translate(-87.29 195.04) rotate(-30.07)"/><circle class="cls-6" cx="319.47" cy="260.02" r="5.59"/><path class="cls-6" d="M224.92,206.07q-11.76,1.05-24.21,1.74-16.53.91-32,1.06"/><ellipse class="cls-6" cx="213.51" cy="272.96" rx="47.48" ry="48.27" transform="translate(-74.54 465.63) rotate(-85.74)"/><ellipse class="cls-6" cx="208.58" cy="258.17" rx="36.01" ry="36.61" transform="translate(-64.35 447.02) rotate(-85.74)"/><circle class="cls-6" cx="208.58" cy="258.17" r="5.59"/><path class="cls-6" d="M169.83,330.06l25.6-15.67c.56,19.16,14.82,36.64,37,45.17,20.74,8,46.81,7.64,66.88-2.86,25.42-13.29,26.93-35.49,27.06-38.18L341,330.24"/><path class="cls-6" d="M116.16,211.64a14.37,14.37,0,0,1,5.52-12.38c5.59-4.31,13.41-9.41,17.32-8.91q65,8.28,67.61-.95,1-3.77-8.24-10.44a204.38,204.38,0,0,1,37.63-.78c21.83,1.57,35.21,6.08,38.12,1.17,1.45-2.44.53-7.6-10.39-19.62,13.48,4.36,25.83,8.3,36.88,11.8,30.85,9.77,42.11,13.1,45.11,8.92,1.34-1.86,1.38-5.7-4.17-14.3,8.65,2.87,21.54,7,37.33,11.56,41.05,11.87,44,10,44.88,8.72,2.5-3.59-2.77-15-42.55-52.31,18.56,2.73,23.46,0,24.77-2.67,6.22-12.8-50-64.4-117.33-80.54a204,204,0,0,0-83.53-2c2.11-9.78.56-12.89-1.09-14-2.89-2-8.42.65-34.88,18.47-12.82,8.64-10.77,7.53-14,9.51C132.05,77.14,124.33,73,110.41,84.39a63.19,63.19,0,0,0-18.9,26.46,60,60,0,0,0-3.55,19c-1.61,40.42,5.19,79.73,6.84,122.1,0,0,2,52.08,12.36,55.65a24.44,24.44,0,0,0,6.74,1.21H114a8.29,8.29,0,0,0,8.21-8.93Z"/><path class="cls-6" d="M116.16,211.64a14.37,14.37,0,0,1,5.52-12.38c5.59-4.31,13.41-9.41,17.32-8.91q65,8.28,67.61-.95,1-3.77-8.24-10.44a204.38,204.38,0,0,1,37.63-.78c21.83,1.57,35.21,6.08,38.12,1.17,1.45-2.44.53-7.6-10.39-19.62,13.48,4.36,25.83,8.3,36.88,11.8,30.85,9.77,42.11,13.1,45.11,8.92,1.34-1.86,1.38-5.7-4.17-14.3,8.65,2.87,21.54,7,37.33,11.56,41.05,11.87,44,10,44.88,8.72,2.5-3.59-2.77-15-42.55-52.31,18.56,2.73,23.46,0,24.77-2.67,6.22-12.8-50-64.4-117.33-80.54a204,204,0,0,0-83.53-2c2.11-9.78.56-12.89-1.09-14-2.89-2-8.42.65-34.88,18.47-12.82,8.64-10.77,7.53-14,9.51C132.05,77.14,124.33,73,110.41,84.39a63.19,63.19,0,0,0-18.9,26.46,60,60,0,0,0-3.55,19c-1.61,40.42,5.19,79.73,6.84,122.1,0,0,2,52.08,12.36,55.65a24.44,24.44,0,0,0,6.74,1.21H114a8.29,8.29,0,0,0,8.21-8.93Z"/><path class="cls-6" d="M371,150.6c13.89,37.31,20.6,116.53,19.2,140.21a5.5,5.5,0,0,0,6.25,5.76l13.71-1.86a744.72,744.72,0,0,0-15.21-120.53"/><path class="cls-6" d="M371,150.6c13.89,37.31,20.6,116.53,19.2,140.21a5.5,5.5,0,0,0,6.25,5.76l13.71-1.86a744.72,744.72,0,0,0-15.21-120.53"/><path class="cls-6" d="M215.67,334.25c.79-2.92,11.67-4,50.44,1.74,36.52-6.79,43.88-5.2,44.61-2.9,1.41,4.41-19.32,18.59-42.64,20.25C240.39,355.3,214.32,339.21,215.67,334.25Z"/><path class="cls-6" d="M215.84,388c1.49-2.83,4.1-6.64,8.51-8.67,11.68-5.37,20.32,9,38.06,8.84s26.46-14.79,38.07-9.56c4.43,2,7,5.86,8.57,8.81a82.23,82.23,0,0,1-93.21.58Z"/><path class="cls-6" d="M260.06,417.58l-5.56-9.21-9,1.2,5.93-10.25,9.59,1.9,8.78-.21,8.09,11.14L266.47,409Q263.27,413.3,260.06,417.58Z"/><path class="cls-6" d="M160.23,60.63c-5.67-4.72,5.29-22.33,5.29-22.33s16,7.94,13.57,15.9C176.86,61.63,164.82,64.46,160.23,60.63Z"/><path class="cls-6" d="M158.77,72.86c-2.41,1.08-6-1.63-13.23-7.06a111.19,111.19,0,0,1-9.06-7.62c8.21-7,18.37-6.89,22.77-2.09S162.51,71.19,158.77,72.86Z"/></g><g class="cls-11"><path class="cls-13" d="M121.4,139.69A128,128,0,0,0,107,169.33c-12.69,35.84-9.15,68.15-7.06,86.12,11.11,95.21,16.74,142.94,20.63,149.11,31.52,49.93,93.47,73.92,145.72,73.12,8.05-.12,91.75-2.49,122.36-56.4,1.14-2,1.82-3.43,3-5.86C405.33,388,405.38,358.9,405.47,300.8c.1-65.75-.37-109-26.63-154.82-8.74-15.27-18.93-33.06-39.76-48.16-52-37.71-122.19-23.79-161.59-4.63C165.33,99.1,139.92,111.83,121.4,139.69Z"/><g class="cls-12"><path class="cls-14" d="M488.74,346.09c-18-9.73-43.76,6.2-75.51,25.86-31.18,19.3-46.77,38.62-51.43,44.65a186.3,186.3,0,0,0-12.1,16.93A13.93,13.93,0,0,1,334,439.7l-.27-.08c-20.39-5.8-34.16-9.71-54.7-9.5-15.69.16-28.36,3.52-53.72,10.25-3.87,1-7.1,1.95-9.8,2.83a10.44,10.44,0,0,1-12.11-4.49l0-.07C194.5,424.44,184,416.49,173,408.2c-6.09-4.59-26.21-19.12-61.37-29.54-35.8-10.61-64.83-19.2-79.66-5.07-14.49,13.8-9.7,43.8-2.53,61.88,25.72,64.85,129.05,94.58,171.09,80.26a16.86,16.86,0,0,0,1.6,9.73c9.32,19.69,47.39,26.11,67.19,27,33.65,1.46,68-10.83,85.78-26.27,39.67,11.86,144.12-46.89,152.4-121C509.63,385.8,506.35,355.59,488.74,346.09Z"/></g><path class="cls-15" d="M263.81,482.65a193,193,0,0,1-80.22-18c-28.7-13.42-51.93-33.28-67.17-57.42C112.07,400.31,107.54,363,95.06,256c-2.08-17.8-5.94-50.92,7.31-88.34A132.48,132.48,0,0,1,117.28,137h0c19.63-29.55,46.55-42.63,58-48.21a203.65,203.65,0,0,1,78-19.5c33.93-1.36,64.57,7.13,88.62,24.57,21.69,15.73,32.48,34.57,41.15,49.71,27.45,47.91,27.38,93.79,27.28,157.29-.09,58.8-.13,88.31-14.28,116.81l-.56,1.13c-.91,1.85-1.57,3.18-2.59,5-31.71,55.85-117,58.75-126.59,58.9ZM125.52,142.43A123.8,123.8,0,0,0,111.69,171c-12.48,35.25-8.79,66.9-6.81,83.89,9.55,81.85,16.45,141,19.92,147.07,31,49.1,91.72,70.81,139.1,70.82l2.34,0c9-.14,89.14-2.83,118.14-53.9.88-1.54,1.45-2.71,2.32-4.47l.57-1.14c13.12-26.44,13.16-55.18,13.25-112.43.1-62,.17-106.74-26-152.36-8.63-15.06-18.4-32.14-38.38-46.62-52.31-37.93-123-20.48-156.52-4.19-10.76,5.24-36,17.49-54.13,44.8Z"/><path class="cls-15" d="M286.4,213.75a5,5,0,0,1,0-9.95c10.54,0,21.21-.32,31.74-.83,8-.39,16.08-.92,24.06-1.57a5,5,0,0,1,.81,9.91c-8.09.67-16.29,1.2-24.39,1.59-10.67.52-21.5.8-32.18.85Z"/><ellipse class="cls-16" cx="310.03" cy="272.44" rx="47.48" ry="48.27" transform="translate(-94.77 191.98) rotate(-30.07)"/><ellipse class="cls-17" cx="319.47" cy="260.02" rx="36.01" ry="36.61" transform="translate(-87.29 195.04) rotate(-30.07)"/><path class="cls-15" d="M320.05,301.11A41.59,41.59,0,0,1,280,249.23a40.2,40.2,0,0,1,49.76-28.81,41.27,41.27,0,0,1,24.86,19.26c11.38,19.67,4.88,44.8-14.5,56A40,40,0,0,1,320.05,301.11Zm-1.15-73a31,31,0,0,0-30,23.38,32.43,32.43,0,0,0,22.7,39.22,30.88,30.88,0,0,0,23.88-3h0c15-8.68,20-28.17,11.15-43.44a32.1,32.1,0,0,0-19.34-15A31.51,31.51,0,0,0,318.9,228.15Z"/><circle class="cls-15" cx="319.47" cy="260.02" r="5.59"/><path class="cls-15" d="M168.75,213.84a5,5,0,0,1-.05-10c10.54-.11,21.21-.46,31.73-1,8-.44,16.1-1,24-1.73a5,5,0,1,1,.89,9.9c-8.07.72-16.28,1.31-24.39,1.76-10.67.59-21.49.94-32.17,1.06Z"/><ellipse class="cls-16" cx="213.51" cy="272.96" rx="47.48" ry="48.27" transform="translate(-74.54 465.63) rotate(-85.74)"/><ellipse class="cls-17" cx="208.58" cy="258.17" rx="36.01" ry="36.61" transform="translate(-64.35 447.02) rotate(-85.74)"/><path class="cls-15" d="M208.74,298.79c-1.05,0-2.11,0-3.17-.12a41.22,41.22,0,0,1-28.16-14,40.21,40.21,0,0,1,4.27-57.34,41.63,41.63,0,0,1,58.07,4.32A40.19,40.19,0,0,1,235.49,289,41.21,41.21,0,0,1,208.74,298.79Zm-.3-72a32.06,32.06,0,0,0-20.81,7.61,31,31,0,0,0-3.29,44.25,32.45,32.45,0,0,0,45.2,3.36,30.88,30.88,0,0,0,11-21.43h0a30.87,30.87,0,0,0-7.67-22.81,32.16,32.16,0,0,0-21.92-10.89C210.09,226.78,209.26,226.75,208.44,226.75Z"/><circle class="cls-15" cx="208.58" cy="258.17" r="5.59"/><path class="cls-15" d="M263.11,369.45a90.14,90.14,0,0,1-32.19-5.88c-21.21-8.14-35.6-23.84-39-42l-19.82,12.13a4.3,4.3,0,0,1-4.5-7.34l31.94-19.55.22,7.42c.51,17.54,13.64,33.36,34.27,41.28,20.41,7.84,45.27,6.8,63.33-2.65C320,341.07,321.93,322,322.1,318.33l.38-8.48,21.17,17a4.3,4.3,0,0,1-5.4,6.7l-8.78-7.06c-2.33,9.24-9,24-28.14,34A82.93,82.93,0,0,1,263.11,369.45Z"/><path class="cls-15" d="M116.16,211.64a14.37,14.37,0,0,1,5.52-12.38c5.59-4.31,13.41-9.41,17.32-8.91q65,8.28,67.61-.95,1-3.77-8.24-10.44a204.38,204.38,0,0,1,37.63-.78c21.83,1.57,35.21,6.08,38.12,1.17,1.45-2.44.53-7.6-10.39-19.62,13.48,4.36,25.83,8.3,36.88,11.8,30.85,9.77,42.11,13.1,45.11,8.92,1.34-1.86,1.38-5.7-4.17-14.3,8.65,2.87,21.54,7,37.33,11.56,41.05,11.87,44,10,44.88,8.72,2.5-3.59-2.77-15-42.55-52.31,18.56,2.73,23.46,0,24.77-2.67,6.22-12.8-50-64.4-117.33-80.54a204,204,0,0,0-83.53-2c2.11-9.78.56-12.89-1.09-14-2.89-2-8.42.65-34.88,18.47-12.82,8.64-10.77,7.53-14,9.51C132.05,77.14,124.33,73,110.41,84.39a63.19,63.19,0,0,0-18.9,26.46,60,60,0,0,0-3.55,19c-1.61,40.42,5.19,79.73,6.84,122.1,0,0,2,52.08,12.36,55.65a24.44,24.44,0,0,0,6.74,1.21H114a8.29,8.29,0,0,0,8.21-8.93Z"/><path class="cls-15" d="M371,150.6c13.89,37.31,20.6,116.53,19.2,140.21a5.5,5.5,0,0,0,6.25,5.76l13.71-1.86a744.72,744.72,0,0,0-15.21-120.53"/><path class="cls-18" d="M215.67,334.25c.79-2.92,11.67-4,50.44,1.74,36.52-6.79,43.88-5.2,44.61-2.9,1.41,4.41-19.32,18.59-42.64,20.25C240.39,355.3,214.32,339.21,215.67,334.25Z"/><path class="cls-18" d="M215.84,388c1.49-2.83,4.1-6.64,8.51-8.67,11.68-5.37,20.32,9,38.06,8.84s26.46-14.79,38.07-9.56c4.43,2,7,5.86,8.57,8.81a82.23,82.23,0,0,1-93.21.58Z"/><path class="cls-18" d="M260.06,417.58l-5.56-9.21-9,1.2,5.93-10.25,9.59,1.9,8.78-.21,8.09,11.14L266.47,409Q263.27,413.3,260.06,417.58Z"/><path class="cls-15" d="M160.23,60.63c-5.67-4.72,5.29-22.33,5.29-22.33s16,7.94,13.57,15.9C176.86,61.63,164.82,64.46,160.23,60.63Z"/><path class="cls-15" d="M158.77,72.86c-2.41,1.08-6-1.63-13.23-7.06a111.19,111.19,0,0,1-9.06-7.62c8.21-7,18.37-6.89,22.77-2.09S162.51,71.19,158.77,72.86Z"/></g></g></svg>