<svg id="Layer_2" data-name="Layer 2" xmlns="http://www.w3.org/2000/svg" xmlns:xlink="http://www.w3.org/1999/xlink" viewBox="0 0 512 512"><defs><style>.cls-1,.cls-3,.cls-5,.cls-6{fill:none;}.cls-2{clip-path:url(#clip-path);}.cls-3{stroke:#fff;stroke-linejoin:round;stroke-width:25.51px;}.cls-4{fill:#ffca98;}.cls-5,.cls-6{stroke:#6c517a;stroke-miterlimit:10;}.cls-5{stroke-width:8.37px;}.cls-6{stroke-width:7.94px;}.cls-7{fill:#6c517a;}.cls-8{fill:#c49575;}.cls-9{fill:#f6f6f6;}.cls-10{fill:#e1ad7f;}.cls-11{fill:#fff;}.cls-12{clip-path:url(#clip-path-3);}.cls-13{fill:#f79431;}.cls-14{fill:#f7f7f7;}.cls-15{fill:#118407;}</style><clipPath id="clip-path"><rect class="cls-1" x="-532" width="512" height="512"/></clipPath><clipPath id="clip-path-3"><rect class="cls-1" x="532" width="512" height="512"/></clipPath></defs><g class="cls-2"><path class="cls-3" d="M39.58,490.21C22.5,478.4,4.49,464.89-14,449.48a741.7,741.7,0,0,1-61.17-57.23c-.37-.39-.2-.4.08-.58,15.72-10.2,38-29.24,38.17-55.44,0-5.53-.88-14.37-6.56-25.05,6.94-1.79,11.21-7.16,10.8-12.15a9.44,9.44,0,0,0-4.8-7.26c-4.8-2.64-12.24-.61-17.22,5.81-2.49-3.25-11.61-14.38-26.94-16.77s-26.94,5.45-33.32,9.73c-25.79,17.31-30.5,48.67-31.42,56.12,0,0-59-25.34-103.12,9.24s-60.44,80.87-60.44,80.87c-2.93.82-23.35,6.92-33.1,28.18-9.18,20-1.92,38.36-.67,41.36-.56.07-8.09,1.15-10.95,7.61-.13.27-2.58,6,0,9.16s10.28,3.35,17.66-2a52.44,52.44,0,0,0,19.9,15.21c24.76,10.49,52.8-2.36,68.42-16.33,1.19-1.06,2.56-2.35,4-3.89.19-.2.22-.06.22-.06q6.33,15.88,12.38,33.39,7.46,21.76,13,41.89s4.77,61.57,170.84,74.39,229-120.75,178.88-162.49S39.58,490.21,39.58,490.21Z"/><path class="cls-3" d="M-77.14,390.79a742.18,742.18,0,0,0,62.27,58.39C3.6,464.6,21.6,478.1,38.68,489.92"/><path class="cls-3" d="M-18.41,448c.41-1.74,4.3-17.08,19.68-23.85,13.82-6.09,26.37-.6,28.32.3,3-4,11.67-14.73,25-16.4,18.86-2.36,40.47,14.05,47.41,41.44"/><path class="cls-3" d="M21.63,449.67a42.22,42.22,0,0,1,16.16-33.84"/><path class="cls-3" d="M21.63,449.67a28.29,28.29,0,0,1-1.42-10.17,34.1,34.1,0,0,1,2.05-10.31,33.71,33.71,0,0,1,5.13-9.35,28.59,28.59,0,0,1,7.94-7.13L40.24,419c-2,2.2-4,4.29-5.82,6.52a70.22,70.22,0,0,0-5.16,7.06,60.37,60.37,0,0,0-4.25,8A91.34,91.34,0,0,0,21.63,449.67Z"/></g><g class="cls-2"><path class="cls-4" d="M39.58,490.21C22.5,478.4,4.49,464.89-14,449.48a741.7,741.7,0,0,1-61.17-57.23c-.37-.39-.2-.4.08-.58,15.72-10.2,38-29.24,38.17-55.44,0-5.53-.88-14.37-6.56-25.05,6.94-1.79,11.21-7.16,10.8-12.15a9.44,9.44,0,0,0-4.8-7.26c-4.8-2.64-12.24-.61-17.22,5.81-2.49-3.25-11.61-14.38-26.94-16.77s-26.94,5.45-33.32,9.73c-25.79,17.31-30.5,48.67-31.42,56.12,0,0-59-25.34-103.12,9.24s-60.44,80.87-60.44,80.87c-2.93.82-23.35,6.92-33.1,28.18-9.18,20-1.92,38.36-.67,41.36-.56.07-8.09,1.15-10.95,7.61-.13.27-2.58,6,0,9.16s10.28,3.35,17.66-2a52.44,52.44,0,0,0,19.9,15.21c24.76,10.49,52.8-2.36,68.42-16.33,1.19-1.06,2.56-2.35,4-3.89.19-.2.22-.06.22-.06q6.33,15.88,12.38,33.39,7.46,21.76,13,41.89s4.77,61.57,170.84,74.39,229-120.75,178.88-162.49S39.58,490.21,39.58,490.21Z"/><path class="cls-5" d="M-77.14,390.79a742.18,742.18,0,0,0,62.27,58.39C3.6,464.6,21.6,478.1,38.68,489.92"/><path class="cls-6" d="M-18.41,448c.41-1.74,4.3-17.08,19.68-23.85,13.82-6.09,26.37-.6,28.32.3,3-4,11.67-14.73,25-16.4,18.86-2.36,40.47,14.05,47.41,41.44"/><path class="cls-7" d="M21.63,449.67a28.29,28.29,0,0,1-1.42-10.17,34.1,34.1,0,0,1,2.05-10.31,33.71,33.71,0,0,1,5.13-9.35,28.59,28.59,0,0,1,7.94-7.13L40.24,419c-2,2.2-4,4.29-5.82,6.52a70.22,70.22,0,0,0-5.16,7.06,60.37,60.37,0,0,0-4.25,8A91.34,91.34,0,0,0,21.63,449.67Z"/></g><rect class="cls-8" width="512" height="512"/><path class="cls-9" d="M264.64,417.23c-50.39,0-87.49-31.61-92.33-35.93-17.61-15.75-26.33-32.47-32.1-43.53-6.86-13.13-12.39-30.21-21.21-131-1.91-21.78-4.07-46.48,5.9-75.24a115.55,115.55,0,0,1,12.84-26.85h0c17-25.95,40.22-37.42,50.13-42.32a174.37,174.37,0,0,1,66.67-17.13c29.43-1.37,56.14,5.89,77.27,21,19.12,13.68,28.49,29.8,36,42.74,23.71,40.77,23.9,79.15,24.16,132.27.25,49.27.37,74-11.81,98.94-17.69,36.25-46.66,61.85-81.57,72.1A120,120,0,0,1,264.64,417.23ZM156.71,117.14A93.36,93.36,0,0,0,146.33,139c-8.39,24.19-6.53,45.37-4.74,65.85,9.11,104,14.44,114.25,18.72,122.45,5.31,10.18,12.58,24.12,27.11,37.11,1.63,1.46,34.25,30.08,77.57,30.08a96.23,96.23,0,0,0,27.23-3.91c38.75-11.38,59-42.66,67.58-60.3,9.86-20.18,9.74-43.14,9.52-88.88-.28-56.15-1.35-87-21.09-121-7.11-12.22-14.45-24.85-29.61-35.69-40.23-28.77-94.8-14.79-120.7-2-8.26,4.08-27.59,13.63-41.21,34.42Z"/><path class="cls-9" d="M264.64,417.23c-50.39,0-87.49-31.61-92.33-35.93-17.61-15.75-26.33-32.47-32.1-43.53-6.86-13.13-12.39-30.21-21.21-131-1.91-21.78-4.07-46.48,5.9-75.24a115.55,115.55,0,0,1,12.84-26.85h0c17-25.95,40.22-37.42,50.13-42.32a174.37,174.37,0,0,1,66.67-17.13c29.43-1.37,56.14,5.89,77.27,21,19.12,13.68,28.49,29.8,36,42.74,23.71,40.77,23.9,79.15,24.16,132.27.25,49.27.37,74-11.81,98.94-17.69,36.25-46.66,61.85-81.57,72.1A120,120,0,0,1,264.64,417.23ZM156.71,117.14A93.36,93.36,0,0,0,146.33,139c-8.39,24.19-6.53,45.37-4.74,65.85,9.11,104,14.44,114.25,18.72,122.45,5.31,10.18,12.58,24.12,27.11,37.11,1.63,1.46,34.25,30.08,77.57,30.08a96.23,96.23,0,0,0,27.23-3.91c38.75-11.38,59-42.66,67.58-60.3,9.86-20.18,9.74-43.14,9.52-88.88-.28-56.15-1.35-87-21.09-121-7.11-12.22-14.45-24.85-29.61-35.69-40.23-28.77-94.8-14.79-120.7-2-8.26,4.08-27.59,13.63-41.21,34.42Z"/><path class="cls-9" d="M196.35,277.39a38.14,38.14,0,0,1-8.11-.56,16,16,0,0,1-10.8-7.92,15.45,15.45,0,0,1-.76-12.51l2.57-6.75,73.48-5.25,14-4.55,15.75,2.42c7-.52,15.63-1.26,24-2,25.29-2.17,37.74-3.14,42.75-2.61l9.93,1,.22,10c.29,13.39-16.11,16.51-24,18-9,1.71-20,2.87-28.82,3.8-5,.53-9.76,1-12.22,1.45a40.16,40.16,0,0,1-20.75-1.55c-.79-.25-1.85-.58-2.29-.65a37.27,37.27,0,0,0-4.75,1.76c-4.37,1.82-9.78,4.08-15.83,3.84-2.07-.09-11.91.38-20.59.79C212.4,277,202.38,277.39,196.35,277.39Z"/><path class="cls-9" d="M196.35,277.39a38.14,38.14,0,0,1-8.11-.56,16,16,0,0,1-10.8-7.92,15.45,15.45,0,0,1-.76-12.51l2.57-6.75,73.48-5.25,14-4.55,15.75,2.42c7-.52,15.63-1.26,24-2,25.29-2.17,37.74-3.14,42.75-2.61l9.93,1,.22,10c.29,13.39-16.11,16.51-24,18-9,1.71-20,2.87-28.82,3.8-5,.53-9.76,1-12.22,1.45a40.16,40.16,0,0,1-20.75-1.55c-.79-.25-1.85-.58-2.29-.65a37.27,37.27,0,0,0-4.75,1.76c-4.37,1.82-9.78,4.08-15.83,3.84-2.07-.09-11.91.38-20.59.79C212.4,277,202.38,277.39,196.35,277.39Z"/><path class="cls-9" d="M323.19,283.3c-.38,0-.76,0-1.14,0-11.15-.84-18.83-13.59-18.26-30.32l.32-9.57,46.31-6.28-2.08,14.83C345.82,269.82,334.9,283.3,323.19,283.3Z"/><path class="cls-9" d="M323.19,283.3c-.38,0-.76,0-1.14,0-11.15-.84-18.83-13.59-18.26-30.32l.32-9.57,46.31-6.28-2.08,14.83C345.82,269.82,334.9,283.3,323.19,283.3Z"/><path class="cls-9" d="M216.78,290.54a18.05,18.05,0,0,1-3-.26c-11.1-1.95-20.24-15.12-21.73-31.31l-1.13-12.33,51.35-.2-.4,11.76c-.39,11.5-4.79,21.48-12.09,27.41A20.67,20.67,0,0,1,216.78,290.54Z"/><path class="cls-9" d="M216.78,290.54a18.05,18.05,0,0,1-3-.26c-11.1-1.95-20.24-15.12-21.73-31.31l-1.13-12.33,51.35-.2-.4,11.76c-.39,11.5-4.79,21.48-12.09,27.41A20.67,20.67,0,0,1,216.78,290.54Z"/><path class="cls-9" d="M325.6,276.3a14.68,14.68,0,0,1-1.75-.11c-9.39-1.16-16.15-11.08-16.43-24.14l-.23-10.76,40.23-3-1.26,13.36c-.82,8.65-4.48,16.19-10.07,20.68A16.83,16.83,0,0,1,325.6,276.3Z"/><path class="cls-9" d="M220.24,239.5a32.92,32.92,0,0,1-31.45-23.45A32,32,0,0,1,210.91,176a32.71,32.71,0,0,1,37.65,46.93h0a31.84,31.84,0,0,1-19.49,15.39A32.54,32.54,0,0,1,220.24,239.5Zm-.53-42.07a9.92,9.92,0,0,0-2.69.37,9.37,9.37,0,0,0-6.5,11.78A10.2,10.2,0,0,0,223,216.44a9.38,9.38,0,0,0,5.75-4.51,9.8,9.8,0,0,0-4.08-13.22A10.14,10.14,0,0,0,219.71,197.43Z"/><path class="cls-9" d="M220.24,239.5a32.92,32.92,0,0,1-31.45-23.45A32,32,0,0,1,210.91,176a32.71,32.71,0,0,1,37.65,46.93h0a31.84,31.84,0,0,1-19.49,15.39A32.54,32.54,0,0,1,220.24,239.5Zm-.53-42.07a9.92,9.92,0,0,0-2.69.37,9.37,9.37,0,0,0-6.5,11.78A10.2,10.2,0,0,0,223,216.44a9.38,9.38,0,0,0,5.75-4.51,9.8,9.8,0,0,0-4.08-13.22A10.14,10.14,0,0,0,219.71,197.43Z"/><path class="cls-9" d="M219.67,228.79a34.15,34.15,0,1,1,30-17.65A33.95,33.95,0,0,1,219.67,228.79Zm.08-45.63a11.48,11.48,0,0,0-5.56,21.53,11.48,11.48,0,1,0,5.56-21.53Z"/><path class="cls-9" d="M323.26,232.73a32.72,32.72,0,0,1-28.82-48.15,31.88,31.88,0,0,1,19.49-15.39,32.88,32.88,0,0,1,40.28,22.24,31.87,31.87,0,0,1-2.63,24.69h0a31.9,31.9,0,0,1-19.49,15.39A32.54,32.54,0,0,1,323.26,232.73Zm-.53-42.07A9.86,9.86,0,0,0,320,191a9.42,9.42,0,0,0-5.75,4.51,9.8,9.8,0,0,0,4.08,13.22,10,10,0,0,0,7.61.91,9.34,9.34,0,0,0,5.74-4.51h0a9.36,9.36,0,0,0,.76-7.26,10.23,10.23,0,0,0-9.75-7.24Z"/><path class="cls-9" d="M323.26,232.73a32.72,32.72,0,0,1-28.82-48.15,31.88,31.88,0,0,1,19.49-15.39,32.88,32.88,0,0,1,40.28,22.24,31.87,31.87,0,0,1-2.63,24.69h0a31.9,31.9,0,0,1-19.49,15.39A32.54,32.54,0,0,1,323.26,232.73Zm-.53-42.07A9.86,9.86,0,0,0,320,191a9.42,9.42,0,0,0-5.75,4.51,9.8,9.8,0,0,0,4.08,13.22,10,10,0,0,0,7.61.91,9.34,9.34,0,0,0,5.74-4.51h0a9.36,9.36,0,0,0,.76-7.26,10.23,10.23,0,0,0-9.75-7.24Z"/><path class="cls-9" d="M324.24,223.72a33,33,0,0,1-31.46-23.46,32,32,0,0,1,22.13-40.08,32.86,32.86,0,0,1,40.28,22.23,31.87,31.87,0,0,1-2.63,24.69h0a32,32,0,0,1-19.49,15.4A32.94,32.94,0,0,1,324.24,223.72Zm-.53-42.07A9.86,9.86,0,0,0,321,182a9.35,9.35,0,0,0-6.5,11.77A10.2,10.2,0,0,0,327,200.66a9.4,9.4,0,0,0,5.74-4.51h0a9.39,9.39,0,0,0,.76-7.27,10.05,10.05,0,0,0-4.83-5.95A10.17,10.17,0,0,0,323.71,181.65Z"/><path class="cls-9" d="M222,210.68a15.22,15.22,0,1,1,13.35-7.87h0A15.33,15.33,0,0,1,222,210.68Zm-6.51-18.83a7.46,7.46,0,0,0,13.06,7.21h0l-3.13-1.73,3.13,1.73a7.46,7.46,0,0,0-13.06-7.21Z"/><path class="cls-9" d="M322.88,207.73a15.22,15.22,0,1,1,13.35-7.86A15.13,15.13,0,0,1,322.88,207.73Zm-6.51-18.82a7.46,7.46,0,0,0,13.07,7.21l-3.14-1.73,3.14,1.73a7.46,7.46,0,1,0-13.07-7.21Z"/><path class="cls-9" d="M200.2,170.65l-21.79-6.28c1.11-3.85,5.8-16.93,19.66-24a39,39,0,0,1,25.84-3.22L219,159.33a16.36,16.36,0,0,0-10.7,1.29A17,17,0,0,0,200.2,170.65Z"/><path class="cls-9" d="M343.08,161.23a14.84,14.84,0,0,0-18.44-2.37l-11.72-19.42a37.55,37.55,0,0,1,46.43,6Z"/><path class="cls-9" d="M235.34,260.55a72.62,72.62,0,0,1-15.81-1.76,16.28,16.28,0,0,1-1.33-31.43,36.17,36.17,0,0,0,4.5-1.76A49.34,49.34,0,0,0,233,218.78c4.92-3.92,10.49-8.35,19.32-9.49A34.92,34.92,0,0,1,272.48,213,30.72,30.72,0,0,1,290.82,210c7.2,1.16,11.74,4.86,15.06,7.56a22.29,22.29,0,0,0,5.75,3.8,15,15,0,0,0,3.74.95,16.3,16.3,0,0,1,14.07,13.34A16.11,16.11,0,0,1,321,252.91l-.26.14c-4.48,2.31-16.43,8.48-32,5.74a46.32,46.32,0,0,1-18.15-7.44,72.3,72.3,0,0,1-35.2,9.2Zm48.34-27.68a23.4,23.4,0,0,0,8.92,3.59l.68.1c-.62-.48-1.19-.94-1.72-1.38-2.52-2.05-3.29-2.58-4.37-2.76A7.45,7.45,0,0,0,283.68,232.87Zm-27.3-1.16a8.77,8.77,0,0,0-1.15.07c-2.31.3-3.94,1.44-7.91,4.59a50.53,50.53,0,0,0,11.39-4.4A10.6,10.6,0,0,0,256.38,231.71Z"/><path class="cls-9" d="M235.34,260.55a72.62,72.62,0,0,1-15.81-1.76,16.28,16.28,0,0,1-1.33-31.43,36.17,36.17,0,0,0,4.5-1.76A49.34,49.34,0,0,0,233,218.78c4.92-3.92,10.49-8.35,19.32-9.49A34.92,34.92,0,0,1,272.48,213,30.72,30.72,0,0,1,290.82,210c7.2,1.16,11.74,4.86,15.06,7.56a22.29,22.29,0,0,0,5.75,3.8,15,15,0,0,0,3.74.95,16.3,16.3,0,0,1,14.07,13.34A16.11,16.11,0,0,1,321,252.91l-.26.14c-4.48,2.31-16.43,8.48-32,5.74a46.32,46.32,0,0,1-18.15-7.44,72.3,72.3,0,0,1-35.2,9.2Zm48.34-27.68a23.4,23.4,0,0,0,8.92,3.59l.68.1c-.62-.48-1.19-.94-1.72-1.38-2.52-2.05-3.29-2.58-4.37-2.76A7.45,7.45,0,0,0,283.68,232.87Zm-27.3-1.16a8.77,8.77,0,0,0-1.15.07c-2.31.3-3.94,1.44-7.91,4.59a50.53,50.53,0,0,0,11.39-4.4A10.6,10.6,0,0,0,256.38,231.71Z"/><path class="cls-9" d="M235.17,256.21a75.88,75.88,0,0,1-34.44-8.48l4.91-21.4a42.06,42.06,0,0,0,18.59-4.53,49,49,0,0,0,10-7.29c4.74-4.13,10.1-8.82,18.87-10.36a34.73,34.73,0,0,1,20.29,2.77,30.74,30.74,0,0,1,18.19-3.78c7.25.84,11.95,4.32,15.39,6.86a22.22,22.22,0,0,0,5.93,3.54c3.84,1.36,8.74,1.06,14.53-.89l36-12.12-23.53,29.88a57.36,57.36,0,0,1-16.51,14.33c-4.39,2.52-16,9.22-31.75,7.2a45.94,45.94,0,0,1-18.5-6.6,74,74,0,0,1-22.89,9.25A71.47,71.47,0,0,1,235.17,256.21Zm23.43-29.86a9.14,9.14,0,0,0-1.59.13c-2.3.41-3.88,1.62-7.69,5a51.46,51.46,0,0,0,11.16-4.92A11.19,11.19,0,0,0,258.6,226.35Zm26.86-.08a23.52,23.52,0,0,0,9.09,3.18l.68.08-1.78-1.3c-2.61-1.93-3.41-2.44-4.49-2.56A7.43,7.43,0,0,0,285.46,226.27Z"/><path class="cls-9" d="M217.32,284.27c-.4,0-.81,0-1.22,0-7.11-.43-13.43-4.54-15.73-10.24-1.2-3-3.91-10.07-4-10.37l-5.65-14.82,53.65-1.87-5,15.4a75.75,75.75,0,0,1-5.63,12.19A18.39,18.39,0,0,1,217.32,284.27Z"/><path class="cls-9" d="M185.32,271.92l-2.06-22.58c6.88-.63,41.61-3.72,50.13-3.09a116.82,116.82,0,0,0,19.94-.34c.53-.2,1.68-.75,2.53-1.17,3.95-1.89,9.32-4.48,15.23-4.25a49.62,49.62,0,0,1,9.3,1.52,29.3,29.3,0,0,0,4.83.9c1.81,0,10.82-1,18.06-1.71,10.31-1.08,21-2.2,26.85-2.48,10.48-.51,26.39-1.55,26.55-1.56l1.48,22.63c-.16,0-16.26,1.06-26.94,1.58-5.24.25-16.05,1.38-25.58,2.38-12.68,1.33-18.11,1.84-20.66,1.84a44.29,44.29,0,0,1-9.77-1.5,38.29,38.29,0,0,0-4.76-.92,31.64,31.64,0,0,0-4.77,2,36.33,36.33,0,0,1-6.67,2.68c-5.68,1.45-19.73,1.56-27.31,1C226.83,268.49,201.65,270.43,185.32,271.92Z"/><path class="cls-9" d="M184.11,276a15.39,15.39,0,0,1-1.43-30.72l.65,0,22.3-1.08c7.17-.34,14.58-.7,22.1-.74h.11l3.8.07c.93.05,2,.1,3,.21,1.54.13,3.12.23,4.7.3,3.46.14,6.8.17,9.94.07,1.19,0,2.57-.1,3.73-.22.45-.2.83-.38,1.17-.56l.92-.48c1.39-.74,3-1.58,4.78-2.38l.29-.12a26.51,26.51,0,0,1,10.62-2.25H271a50.6,50.6,0,0,1,9.88,1.54c1,.24,2,.46,2.78.6a11.67,11.67,0,0,0,1.24.19h.17a5.57,5.57,0,0,0,.65,0c1.37-.09,2.8-.23,4.31-.37l.68-.07,21.65-2.31c3.29-.35,7.17-.75,11.11-1.1,1.91-.17,3.82-.33,5.77-.46l5.61-.38,5.44-.29c1.34-.07,2.61-.09,3.89-.12l1.84,0,1.91-.05c3.08-.08,6.26-.16,9.5-.11h.14a13.36,13.36,0,0,1,.92,26.67h0c-2.31.18-4.62.38-6.94.58-4.9.42-10,.85-15,1.2l-5.39.4c-1.45.1-3,.24-5,.45-3.78.39-7.5.82-10.63,1.2l-22.64,2.7c-1.61.18-3.28.36-5.09.51a32.87,32.87,0,0,1-4.87.05c-1.64-.11-3.1-.34-4.19-.52-1.5-.26-2.85-.55-4.05-.81l-1.72-.37c-.9-.18-1.52-.28-1.93-.33l-.14.05-.21.08c-.87.34-2,.9-3.24,1.49l-1,.51c-.8.38-1.69.81-2.78,1.26a26.63,26.63,0,0,1-6.12,1.76c-2.51.39-4.66.55-6.82.69-3.94.24-7.86.33-12.07.28-2.06,0-4.14-.09-6.18-.22l-1.89-.07-2.25,0c-6.86.24-14.06.8-21,1.34-6.77.55-14,1.18-21.52,1.88l-.13,0C185.09,276,184.6,276,184.11,276Z"/><path class="cls-9" d="M295.68,480.07a14.4,14.4,0,0,1-11.29-5.44l-14.74-18.56A14.41,14.41,0,0,1,255.5,458l-.6,1.54a14.41,14.41,0,0,1-20.36,7.34h0a14.35,14.35,0,0,1-5.87-6.08l-15.89-31.29a14.28,14.28,0,0,1-6.93,1.77h0a14.41,14.41,0,0,1-6.5-1.56,14.38,14.38,0,0,1-23.8-4.08l-7.09-16.51a13.53,13.53,0,0,1-3.34-.42,14.23,14.23,0,0,1-3.51-1.37,14.48,14.48,0,0,1-6.94-8.86L152.91,392l-.75-.12a14.41,14.41,0,0,1-11.47-11.06l-2.26-10.26c-.39-.08-.79-.17-1.17-.28A14.41,14.41,0,0,1,127,358.43l0-.22c-.71-5.23-4.42-32.61-7.54-58.1-3.38-27.68-6.48-78.46-6.36-81.78a14.38,14.38,0,0,1,15.17-13.87l19.82-.2.79.11a14.35,14.35,0,0,1,9.61,5.58,14.49,14.49,0,0,1,2.77,10.75,152.83,152.83,0,0,0-.37,30.57c.91,10.34,3.08,24.49,4.8,34.83.27.11.54.23.82.37s.53.26.75.39a14.43,14.43,0,0,1,7,9.27s3.34,13.1,12,23.07a12,12,0,0,0,3.31,2.63c8,4.42,21.35,2.51,31-1.34,8.87-3.52,15-15.11,16.69-19.28a14.4,14.4,0,0,1,27.08.57l.17.5a19.45,19.45,0,0,1,9.1,1.14l7.91-10a14.4,14.4,0,0,1,24.61,3.38,63.41,63.41,0,0,0,5.06,9.51c.22-.51.41-1,.56-1.46A14.4,14.4,0,0,1,330.94,296c.43.16,4.43,1.51,8-.07,4.51-2,7.4-8.13,9-12.91,11.11-32.66,5.69-71.32,5-75.62l0-.27A14.46,14.46,0,0,1,365,191l17.36-2.66a14.39,14.39,0,0,1,16.58,14c0,.57.35,62.72-4,95.67C390.83,329,378.13,395.14,378,395.81a14.41,14.41,0,0,1-18.16,11.11A14.52,14.52,0,0,1,346.28,417l-12.52.13-8.16,18.34A14.35,14.35,0,0,1,312,444l-2,22.93a14.39,14.39,0,0,1-14.33,13.16Zm-29.74-65.16,23.27,29.31,2.92-33.86,16.25,8L319,394.6l19-.21L338.5,347l20.63,26.56c4.05-21.8,10.63-58.1,13.34-78.55.94-7.09,1.66-15.89,2.2-25.22a142.25,142.25,0,0,1-5.25,20.61c-4.49,13.2-11.66,22.06-21.3,26.34a32.85,32.85,0,0,1-17.92,2.36c-4.31,8-11.32,14.8-20.46,13.62a16.75,16.75,0,0,1-5.91-2c-4.95-2.73-9.21-8.09-12.43-13.22l-16,20.3-8.84-11.89-.38-.49a9.61,9.61,0,0,0-1.18.87L252.29,337l-3.65-10.81c-4.7,5.95-11.19,12-19.71,15.36-6.91,2.74-30.93,10.86-50.38.13a34.84,34.84,0,0,1-9.47-7.61,82.07,82.07,0,0,1-13.78-23.16l-7.74,3.67L145,300c-1.58-9-5.42-31.44-6.75-46.7a183.25,183.25,0,0,1-.36-26.21l-1.75,0c.91,15.62,3.22,49.26,5.78,70.3,1.69,13.83,3.56,28.23,5,39.3l5.72-6.88,6,27,5.87-8.94,8.19,30.32,4.89-5.26,10.33,24L193.3,381l12.56,20.21,9.9-15.91,24.78,48.79,8.83-22.47,10.43,16.11Zm19.23-109.43,0,0Zm-133-4.13s0,0,0,0A.43.43,0,0,0,152.13,301.35Zm-13.4-83.86s0,0,0,.07A.23.23,0,0,0,138.73,217.49Z"/><path class="cls-9" d="M289.86,117.15a41.29,41.29,0,0,1-6.05-.46c-16.75-2.53-28.33-14.64-26.38-27.57,1.06-7,5.93-12.94,13.36-16.22a36.51,36.51,0,0,1,20-2.31c16.75,2.53,28.33,14.63,26.38,27.56-1.06,7-5.93,12.95-13.36,16.22A34.68,34.68,0,0,1,289.86,117.15Zm-7.2-24.21a16.87,16.87,0,0,0,4.54,1.33,17.15,17.15,0,0,0,4.72.07,17.51,17.51,0,0,0-9.26-1.4Z"/><path class="cls-9" d="M264.64,417.23c-50.39,0-87.49-31.61-92.33-35.93-17.61-15.75-26.33-32.47-32.1-43.53-6.86-13.13-12.39-30.21-21.21-131-1.91-21.78-4.07-46.48,5.9-75.24a115.55,115.55,0,0,1,12.84-26.85h0c17-25.95,40.22-37.42,50.13-42.32a174.37,174.37,0,0,1,66.67-17.13c29.43-1.37,56.14,5.89,77.27,21,19.12,13.68,28.49,29.8,36,42.74,23.71,40.77,23.9,79.15,24.16,132.27.25,49.27.37,74-11.81,98.94-17.69,36.25-46.66,61.85-81.57,72.1A120,120,0,0,1,264.64,417.23ZM156.71,117.14A93.36,93.36,0,0,0,146.33,139c-8.39,24.19-6.53,45.37-4.74,65.85,9.11,104,14.44,114.25,18.72,122.45,5.31,10.18,12.58,24.12,27.11,37.11,1.63,1.46,34.25,30.08,77.57,30.08a96.23,96.23,0,0,0,27.23-3.91c38.75-11.38,59-42.66,67.58-60.3,9.86-20.18,9.74-43.14,9.52-88.88-.28-56.15-1.35-87-21.09-121-7.11-12.22-14.45-24.85-29.61-35.69-40.23-28.77-94.8-14.79-120.7-2-8.26,4.08-27.59,13.63-41.21,34.42Z"/><path class="cls-9" d="M264.59,421.28c-51,0-88.07-30.79-95-37-18.16-16.24-27.09-33.34-33-44.66-6.21-11.91-12.08-23.15-21.65-132.49-1.85-21.1-4.15-47.35,6.11-76.93a119.15,119.15,0,0,1,13.27-27.74C152,75.61,175.87,63.8,186.08,58.76a178.44,178.44,0,0,1,68.28-17.54c30.34-1.41,57.93,6.11,79.81,21.75C354,77.15,364,94.39,371.33,107c24.25,41.7,24.45,80.53,24.71,134.28.25,49.89.37,74.94-12.22,100.74-10.54,21.59-35.48,59.94-84.07,74.21A124.79,124.79,0,0,1,264.59,421.28ZM160.09,119.36a89.82,89.82,0,0,0-9.94,21c-8.1,23.37-6.36,43.18-4.53,64.16,9,103.23,14.38,113.47,18.28,120.94,5.46,10.45,12.24,23.46,26.22,36a129.38,129.38,0,0,0,32,19.79c23.5,10.18,46.69,12,68.91,5.51,37.26-10.94,56.77-41.15,65.09-58.18,9.43-19.33,9.32-42,9.1-87.07-.25-49-.42-84.38-20.54-119-6.89-11.85-14-24.1-28.47-34.44-38.66-27.65-91.45-14-116.55-1.65-8,3.93-26.59,13.14-39.62,33Z"/><path class="cls-9" d="M196.35,277.39a38.14,38.14,0,0,1-8.11-.56,16,16,0,0,1-10.8-7.92,15.45,15.45,0,0,1-.76-12.51l2.57-6.75,73.48-5.25,14-4.55,15.75,2.42c7-.52,15.63-1.26,24-2,25.29-2.17,37.74-3.14,42.75-2.61l9.93,1,.22,10c.29,13.39-16.11,16.51-24,18-9,1.71-20,2.87-28.82,3.8-5,.53-9.76,1-12.22,1.45a40.16,40.16,0,0,1-20.75-1.55c-.79-.25-1.85-.58-2.29-.65a37.27,37.27,0,0,0-4.75,1.76c-4.37,1.82-9.78,4.08-15.83,3.84-2.07-.09-11.91.38-20.59.79C212.4,277,202.38,277.39,196.35,277.39Z"/><path class="cls-9" d="M196.35,277.39a38.14,38.14,0,0,1-8.11-.56,16,16,0,0,1-10.8-7.92,15.45,15.45,0,0,1-.76-12.51l2.57-6.75,73.48-5.25,14-4.55,15.75,2.42c7-.52,15.63-1.26,24-2,25.29-2.17,37.74-3.14,42.75-2.61l9.93,1,.22,10c.29,13.39-16.11,16.51-24,18-9,1.71-20,2.87-28.82,3.8-5,.53-9.76,1-12.22,1.45a40.16,40.16,0,0,1-20.75-1.55c-.79-.25-1.85-.58-2.29-.65a37.27,37.27,0,0,0-4.75,1.76c-4.37,1.82-9.78,4.08-15.83,3.84-2.07-.09-11.91.38-20.59.79C212.4,277,202.38,277.39,196.35,277.39Z"/><path class="cls-9" d="M323.19,283.3c-.38,0-.76,0-1.14,0-11.15-.84-18.83-13.59-18.26-30.32l.32-9.57,46.31-6.28-2.08,14.83C345.82,269.82,334.9,283.3,323.19,283.3Z"/><path class="cls-9" d="M323.19,283.3c-.38,0-.76,0-1.14,0-11.15-.84-18.83-13.59-18.26-30.32l.32-9.57,46.31-6.28-2.08,14.83C345.82,269.82,334.9,283.3,323.19,283.3Z"/><path class="cls-9" d="M216.78,290.54a18.05,18.05,0,0,1-3-.26c-11.1-1.95-20.24-15.12-21.73-31.31l-1.13-12.33,51.35-.2-.4,11.76c-.39,11.5-4.79,21.48-12.09,27.41A20.67,20.67,0,0,1,216.78,290.54Z"/><path class="cls-9" d="M216.78,290.54a18.05,18.05,0,0,1-3-.26c-11.1-1.95-20.24-15.12-21.73-31.31l-1.13-12.33,51.35-.2-.4,11.76c-.39,11.5-4.79,21.48-12.09,27.41A20.67,20.67,0,0,1,216.78,290.54Z"/><path class="cls-9" d="M325.6,276.3a14.68,14.68,0,0,1-1.75-.11c-9.39-1.16-16.15-11.08-16.43-24.14l-.23-10.76,40.23-3-1.26,13.36c-.82,8.65-4.48,16.19-10.07,20.68A16.83,16.83,0,0,1,325.6,276.3Z"/><path class="cls-9" d="M220.24,239.5a32.92,32.92,0,0,1-31.45-23.45A32,32,0,0,1,210.91,176a32.71,32.71,0,0,1,37.65,46.93h0a31.84,31.84,0,0,1-19.49,15.39A32.54,32.54,0,0,1,220.24,239.5Zm-.53-42.07a9.92,9.92,0,0,0-2.69.37,9.37,9.37,0,0,0-6.5,11.78A10.2,10.2,0,0,0,223,216.44a9.38,9.38,0,0,0,5.75-4.51,9.8,9.8,0,0,0-4.08-13.22A10.14,10.14,0,0,0,219.71,197.43Z"/><path class="cls-9" d="M220.24,239.5a32.92,32.92,0,0,1-31.45-23.45A32,32,0,0,1,210.91,176a32.71,32.71,0,0,1,37.65,46.93h0a31.84,31.84,0,0,1-19.49,15.39A32.54,32.54,0,0,1,220.24,239.5Zm-.53-42.07a9.92,9.92,0,0,0-2.69.37,9.37,9.37,0,0,0-6.5,11.78A10.2,10.2,0,0,0,223,216.44a9.38,9.38,0,0,0,5.75-4.51,9.8,9.8,0,0,0-4.08-13.22A10.14,10.14,0,0,0,219.71,197.43Z"/><path class="cls-9" d="M219.67,228.79a34.15,34.15,0,1,1,30-17.65A33.95,33.95,0,0,1,219.67,228.79Zm.08-45.63a11.48,11.48,0,0,0-5.56,21.53,11.48,11.48,0,1,0,5.56-21.53Z"/><path class="cls-9" d="M219.7,231.7A37.16,37.16,0,1,1,230,230.23,37,37,0,0,1,219.7,231.7Zm.06-45.65a8.71,8.71,0,0,0-2.41.34,8.58,8.58,0,1,0,4.76,16.49,8.57,8.57,0,0,0,1.77-15.75A8.4,8.4,0,0,0,219.76,186.05Z"/><path class="cls-9" d="M323.26,232.73a32.72,32.72,0,0,1-28.82-48.15,31.88,31.88,0,0,1,19.49-15.39,32.88,32.88,0,0,1,40.28,22.24,31.87,31.87,0,0,1-2.63,24.69h0a31.9,31.9,0,0,1-19.49,15.39A32.54,32.54,0,0,1,323.26,232.73Zm-.53-42.07A9.86,9.86,0,0,0,320,191a9.42,9.42,0,0,0-5.75,4.51,9.8,9.8,0,0,0,4.08,13.22,10,10,0,0,0,7.61.91,9.34,9.34,0,0,0,5.74-4.51h0a9.36,9.36,0,0,0,.76-7.26,10.23,10.23,0,0,0-9.75-7.24Z"/><path class="cls-9" d="M323.26,232.73a32.72,32.72,0,0,1-28.82-48.15,31.88,31.88,0,0,1,19.49-15.39,32.88,32.88,0,0,1,40.28,22.24,31.87,31.87,0,0,1-2.63,24.69h0a31.9,31.9,0,0,1-19.49,15.39A32.54,32.54,0,0,1,323.26,232.73Zm-.53-42.07A9.86,9.86,0,0,0,320,191a9.42,9.42,0,0,0-5.75,4.51,9.8,9.8,0,0,0,4.08,13.22,10,10,0,0,0,7.61.91,9.34,9.34,0,0,0,5.74-4.51h0a9.36,9.36,0,0,0,.76-7.26,10.23,10.23,0,0,0-9.75-7.24Z"/><path class="cls-9" d="M324.24,223.72a33,33,0,0,1-31.46-23.46,32,32,0,0,1,22.13-40.08,32.86,32.86,0,0,1,40.28,22.23,31.87,31.87,0,0,1-2.63,24.69h0a32,32,0,0,1-19.49,15.4A32.94,32.94,0,0,1,324.24,223.72Zm-.53-42.07A9.86,9.86,0,0,0,321,182a9.35,9.35,0,0,0-6.5,11.77A10.2,10.2,0,0,0,327,200.66a9.4,9.4,0,0,0,5.74-4.51h0a9.39,9.39,0,0,0,.76-7.27,10.05,10.05,0,0,0-4.83-5.95A10.17,10.17,0,0,0,323.71,181.65Z"/><path class="cls-9" d="M324.25,226.39A35.69,35.69,0,0,1,307.1,222,35.27,35.27,0,0,1,290.22,201a34.72,34.72,0,0,1,24-43.43,35.56,35.56,0,0,1,43.57,24.05,34.72,34.72,0,0,1-24,43.43A35.52,35.52,0,0,1,324.25,226.39Zm-.53-42.07a7.44,7.44,0,0,0-2,.27,6.7,6.7,0,0,0-4.66,8.44,7.54,7.54,0,0,0,9.16,5.05,6.68,6.68,0,0,0,4.65-8.43,7.32,7.32,0,0,0-3.55-4.38A7.47,7.47,0,0,0,323.72,184.32Z"/><path class="cls-9" d="M222,210.68a15.22,15.22,0,1,1,13.35-7.87h0A15.33,15.33,0,0,1,222,210.68Zm-6.51-18.83a7.46,7.46,0,0,0,13.06,7.21h0l-3.13-1.73,3.13,1.73a7.46,7.46,0,0,0-13.06-7.21Z"/><path class="cls-9" d="M322.88,207.73a15.22,15.22,0,1,1,13.35-7.86A15.13,15.13,0,0,1,322.88,207.73Zm-6.51-18.82a7.46,7.46,0,0,0,13.07,7.21l-3.14-1.73,3.14,1.73a7.46,7.46,0,1,0-13.07-7.21Z"/><path class="cls-9" d="M189.31,181.74a14.51,14.51,0,0,1-3.93-.55,14.26,14.26,0,0,1-9.75-17.62c1.19-4.13,6.23-18.19,21.13-25.75a41.87,41.87,0,0,1,27.78-3.46,14.23,14.23,0,0,1-6.13,27.8,13.18,13.18,0,0,0-8.77,1,14,14,0,0,0-6.66,8.25A14.3,14.3,0,0,1,189.31,181.74Z"/><path class="cls-9" d="M351.22,167.56A14.3,14.3,0,0,1,341,163.25a12.13,12.13,0,0,0-6.81-3.54,12.54,12.54,0,0,0-8.06,1.62A14.23,14.23,0,1,1,311.42,137a40.44,40.44,0,0,1,50,6.45,14.23,14.23,0,0,1-10.21,24.14Z"/><path class="cls-9" d="M235.34,260.55a72.62,72.62,0,0,1-15.81-1.76,16.28,16.28,0,0,1-1.33-31.43,36.17,36.17,0,0,0,4.5-1.76A49.34,49.34,0,0,0,233,218.78c4.92-3.92,10.49-8.35,19.32-9.49A34.92,34.92,0,0,1,272.48,213,30.72,30.72,0,0,1,290.82,210c7.2,1.16,11.74,4.86,15.06,7.56a22.29,22.29,0,0,0,5.75,3.8,15,15,0,0,0,3.74.95,16.3,16.3,0,0,1,14.07,13.34A16.11,16.11,0,0,1,321,252.91l-.26.14c-4.48,2.31-16.43,8.48-32,5.74a46.32,46.32,0,0,1-18.15-7.44,72.3,72.3,0,0,1-35.2,9.2Zm48.34-27.68a23.4,23.4,0,0,0,8.92,3.59l.68.1c-.62-.48-1.19-.94-1.72-1.38-2.52-2.05-3.29-2.58-4.37-2.76A7.45,7.45,0,0,0,283.68,232.87Zm-27.3-1.16a8.77,8.77,0,0,0-1.15.07c-2.31.3-3.94,1.44-7.91,4.59a50.53,50.53,0,0,0,11.39-4.4A10.6,10.6,0,0,0,256.38,231.71Z"/><path class="cls-9" d="M235.34,260.55a72.62,72.62,0,0,1-15.81-1.76,16.28,16.28,0,0,1-1.33-31.43,36.17,36.17,0,0,0,4.5-1.76A49.34,49.34,0,0,0,233,218.78c4.92-3.92,10.49-8.35,19.32-9.49A34.92,34.92,0,0,1,272.48,213,30.72,30.72,0,0,1,290.82,210c7.2,1.16,11.74,4.86,15.06,7.56a22.29,22.29,0,0,0,5.75,3.8,15,15,0,0,0,3.74.95,16.3,16.3,0,0,1,14.07,13.34A16.11,16.11,0,0,1,321,252.91l-.26.14c-4.48,2.31-16.43,8.48-32,5.74a46.32,46.32,0,0,1-18.15-7.44,72.3,72.3,0,0,1-35.2,9.2Zm48.34-27.68a23.4,23.4,0,0,0,8.92,3.59l.68.1c-.62-.48-1.19-.94-1.72-1.38-2.52-2.05-3.29-2.58-4.37-2.76A7.45,7.45,0,0,0,283.68,232.87Zm-27.3-1.16a8.77,8.77,0,0,0-1.15.07c-2.31.3-3.94,1.44-7.91,4.59a50.53,50.53,0,0,0,11.39-4.4A10.6,10.6,0,0,0,256.38,231.71Z"/><path class="cls-9" d="M235.17,256.21a75.88,75.88,0,0,1-34.44-8.48l4.91-21.4a42.06,42.06,0,0,0,18.59-4.53,49,49,0,0,0,10-7.29c4.74-4.13,10.1-8.82,18.87-10.36a34.73,34.73,0,0,1,20.29,2.77,30.74,30.74,0,0,1,18.19-3.78c7.25.84,11.95,4.32,15.39,6.86a22.22,22.22,0,0,0,5.93,3.54c3.84,1.36,8.74,1.06,14.53-.89l36-12.12-23.53,29.88a57.36,57.36,0,0,1-16.51,14.33c-4.39,2.52-16,9.22-31.75,7.2a45.94,45.94,0,0,1-18.5-6.6,74,74,0,0,1-22.89,9.25A71.47,71.47,0,0,1,235.17,256.21Zm23.43-29.86a9.14,9.14,0,0,0-1.59.13c-2.3.41-3.88,1.62-7.69,5a51.46,51.46,0,0,0,11.16-4.92A11.19,11.19,0,0,0,258.6,226.35Zm26.86-.08a23.52,23.52,0,0,0,9.09,3.18l.68.08-1.78-1.3c-2.61-1.93-3.41-2.44-4.49-2.56A7.43,7.43,0,0,0,285.46,226.27Z"/><path class="cls-9" d="M217.32,284.27c-.4,0-.81,0-1.22,0-7.11-.43-13.43-4.54-15.73-10.24-1.2-3-3.91-10.07-4-10.37l-5.65-14.82,53.65-1.87-5,15.4a75.75,75.75,0,0,1-5.63,12.19A18.39,18.39,0,0,1,217.32,284.27Z"/><path class="cls-9" d="M185.32,271.92l-2.06-22.58c6.88-.63,41.61-3.72,50.13-3.09a116.82,116.82,0,0,0,19.94-.34c.53-.2,1.68-.75,2.53-1.17,3.95-1.89,9.32-4.48,15.23-4.25a49.62,49.62,0,0,1,9.3,1.52,29.3,29.3,0,0,0,4.83.9c1.81,0,10.82-1,18.06-1.71,10.31-1.08,21-2.2,26.85-2.48,10.48-.51,26.39-1.55,26.55-1.56l1.48,22.63c-.16,0-16.26,1.06-26.94,1.58-5.24.25-16.05,1.38-25.58,2.38-12.68,1.33-18.11,1.84-20.66,1.84a44.29,44.29,0,0,1-9.77-1.5,38.29,38.29,0,0,0-4.76-.92,31.64,31.64,0,0,0-4.77,2,36.33,36.33,0,0,1-6.67,2.68c-5.68,1.45-19.73,1.56-27.31,1C226.83,268.49,201.65,270.43,185.32,271.92Z"/><path class="cls-9" d="M184.11,276a15.39,15.39,0,0,1-1.43-30.72l.65,0,22.3-1.08c7.17-.34,14.58-.7,22.1-.74h.11l3.8.07c.93.05,2,.1,3,.21,1.54.13,3.12.23,4.7.3,3.46.14,6.8.17,9.94.07,1.19,0,2.57-.1,3.73-.22.45-.2.83-.38,1.17-.56l.92-.48c1.39-.74,3-1.58,4.78-2.38l.29-.12a26.51,26.51,0,0,1,10.62-2.25H271a50.6,50.6,0,0,1,9.88,1.54c1,.24,2,.46,2.78.6a11.67,11.67,0,0,0,1.24.19h.17a5.57,5.57,0,0,0,.65,0c1.37-.09,2.8-.23,4.31-.37l.68-.07,21.65-2.31c3.29-.35,7.17-.75,11.11-1.1,1.91-.17,3.82-.33,5.77-.46l5.61-.38,5.44-.29c1.34-.07,2.61-.09,3.89-.12l1.84,0,1.91-.05c3.08-.08,6.26-.16,9.5-.11h.14a13.36,13.36,0,0,1,.92,26.67h0c-2.31.18-4.62.38-6.94.58-4.9.42-10,.85-15,1.2l-5.39.4c-1.45.1-3,.24-5,.45-3.78.39-7.5.82-10.63,1.2l-22.64,2.7c-1.61.18-3.28.36-5.09.51a32.87,32.87,0,0,1-4.87.05c-1.64-.11-3.1-.34-4.19-.52-1.5-.26-2.85-.55-4.05-.81l-1.72-.37c-.9-.18-1.52-.28-1.93-.33l-.14.05-.21.08c-.87.34-2,.9-3.24,1.49l-1,.51c-.8.38-1.69.81-2.78,1.26a26.63,26.63,0,0,1-6.12,1.76c-2.51.39-4.66.55-6.82.69-3.94.24-7.86.33-12.07.28-2.06,0-4.14-.09-6.18-.22l-1.89-.07-2.25,0c-6.86.24-14.06.8-21,1.34-6.77.55-14,1.18-21.52,1.88l-.13,0C185.09,276,184.6,276,184.11,276Z"/><path class="cls-9" d="M295.68,480.07a14.4,14.4,0,0,1-11.29-5.44l-14.74-18.56A14.41,14.41,0,0,1,255.5,458l-.6,1.54a14.41,14.41,0,0,1-20.36,7.34h0a14.35,14.35,0,0,1-5.87-6.08l-15.89-31.29a14.28,14.28,0,0,1-6.93,1.77h0a14.41,14.41,0,0,1-6.5-1.56,14.38,14.38,0,0,1-23.8-4.08l-7.09-16.51a13.53,13.53,0,0,1-3.34-.42,14.23,14.23,0,0,1-3.51-1.37,14.48,14.48,0,0,1-6.94-8.86L152.91,392l-.75-.12a14.41,14.41,0,0,1-11.47-11.06l-2.26-10.26c-.39-.08-.79-.17-1.17-.28A14.41,14.41,0,0,1,127,358.43l0-.22c-.71-5.23-4.42-32.61-7.54-58.1-3.38-27.68-6.48-78.46-6.36-81.78a14.38,14.38,0,0,1,15.17-13.87l19.82-.2.79.11a14.35,14.35,0,0,1,9.61,5.58,14.49,14.49,0,0,1,2.77,10.75,152.83,152.83,0,0,0-.37,30.57c.91,10.34,3.08,24.49,4.8,34.83.27.11.54.23.82.37s.53.26.75.39a14.43,14.43,0,0,1,7,9.27s3.34,13.1,12,23.07a12,12,0,0,0,3.31,2.63c8,4.42,21.35,2.51,31-1.34,8.87-3.52,15-15.11,16.69-19.28a14.4,14.4,0,0,1,27.08.57l.17.5a19.45,19.45,0,0,1,9.1,1.14l7.91-10a14.4,14.4,0,0,1,24.61,3.38,63.41,63.41,0,0,0,5.06,9.51c.22-.51.41-1,.56-1.46A14.4,14.4,0,0,1,330.94,296c.43.16,4.43,1.51,8-.07,4.51-2,7.4-8.13,9-12.91,11.11-32.66,5.69-71.32,5-75.62l0-.27A14.46,14.46,0,0,1,365,191l17.36-2.66a14.39,14.39,0,0,1,16.58,14c0,.57.35,62.72-4,95.67C390.83,329,378.13,395.14,378,395.81a14.41,14.41,0,0,1-18.16,11.11A14.52,14.52,0,0,1,346.28,417l-12.52.13-8.16,18.34A14.35,14.35,0,0,1,312,444l-2,22.93a14.39,14.39,0,0,1-14.33,13.16Zm-29.74-65.16,23.27,29.31,2.92-33.86,16.25,8L319,394.6l19-.21L338.5,347l20.63,26.56c4.05-21.8,10.63-58.1,13.34-78.55.94-7.09,1.66-15.89,2.2-25.22a142.25,142.25,0,0,1-5.25,20.61c-4.49,13.2-11.66,22.06-21.3,26.34a32.85,32.85,0,0,1-17.92,2.36c-4.31,8-11.32,14.8-20.46,13.62a16.75,16.75,0,0,1-5.91-2c-4.95-2.73-9.21-8.09-12.43-13.22l-16,20.3-8.84-11.89-.38-.49a9.61,9.61,0,0,0-1.18.87L252.29,337l-3.65-10.81c-4.7,5.95-11.19,12-19.71,15.36-6.91,2.74-30.93,10.86-50.38.13a34.84,34.84,0,0,1-9.47-7.61,82.07,82.07,0,0,1-13.78-23.16l-7.74,3.67L145,300c-1.58-9-5.42-31.44-6.75-46.7a183.25,183.25,0,0,1-.36-26.21l-1.75,0c.91,15.62,3.22,49.26,5.78,70.3,1.69,13.83,3.56,28.23,5,39.3l5.72-6.88,6,27,5.87-8.94,8.19,30.32,4.89-5.26,10.33,24L193.3,381l12.56,20.21,9.9-15.91,24.78,48.79,8.83-22.47,10.43,16.11Zm19.23-109.43,0,0Zm-133-4.13s0,0,0,0A.43.43,0,0,0,152.13,301.35Zm-13.4-83.86s0,0,0,.07A.23.23,0,0,0,138.73,217.49Z"/><path class="cls-9" d="M289.86,117.15a41.29,41.29,0,0,1-6.05-.46c-16.75-2.53-28.33-14.64-26.38-27.57,1.06-7,5.93-12.94,13.36-16.22a36.51,36.51,0,0,1,20-2.31c16.75,2.53,28.33,14.63,26.38,27.56-1.06,7-5.93,12.95-13.36,16.22A34.68,34.68,0,0,1,289.86,117.15Zm-7.2-24.21a16.87,16.87,0,0,0,4.54,1.33,17.15,17.15,0,0,0,4.72.07,17.51,17.51,0,0,0-9.26-1.4Z"/><path class="cls-9" d="M264.64,417.23c-50.39,0-87.49-31.61-92.33-35.93-17.61-15.75-26.33-32.47-32.1-43.53-6.86-13.13-12.39-30.21-21.21-131-1.91-21.78-4.07-46.48,5.9-75.24a115.55,115.55,0,0,1,12.84-26.85h0c17-25.95,40.22-37.42,50.13-42.32a174.37,174.37,0,0,1,66.67-17.13c29.43-1.37,56.14,5.89,77.27,21,19.12,13.68,28.49,29.8,36,42.74,23.71,40.77,23.9,79.15,24.16,132.27.25,49.27.37,74-11.81,98.94-17.69,36.25-46.66,61.85-81.57,72.1A120,120,0,0,1,264.64,417.23ZM156.71,117.14A93.36,93.36,0,0,0,146.33,139c-8.39,24.19-6.53,45.37-4.74,65.85,9.11,104,14.44,114.25,18.72,122.45,5.31,10.18,12.58,24.12,27.11,37.11,1.63,1.46,34.25,30.08,77.57,30.08a96.23,96.23,0,0,0,27.23-3.91c38.75-11.38,59-42.66,67.58-60.3,9.86-20.18,9.74-43.14,9.52-88.88-.28-56.15-1.35-87-21.09-121-7.11-12.22-14.45-24.85-29.61-35.69-40.23-28.77-94.8-14.79-120.7-2-8.26,4.08-27.59,13.63-41.21,34.42Z"/><path class="cls-9" d="M264.64,417.23c-50.39,0-87.49-31.61-92.33-35.93-17.61-15.75-26.33-32.47-32.1-43.53-6.86-13.13-12.39-30.21-21.21-131-1.91-21.78-4.07-46.48,5.9-75.24a115.55,115.55,0,0,1,12.84-26.85h0c17-25.95,40.22-37.42,50.13-42.32a174.37,174.37,0,0,1,66.67-17.13c29.43-1.37,56.14,5.89,77.27,21,19.12,13.68,28.49,29.8,36,42.74,23.71,40.77,23.9,79.15,24.16,132.27.25,49.27.37,74-11.81,98.94-17.69,36.25-46.66,61.85-81.57,72.1A120,120,0,0,1,264.64,417.23ZM156.71,117.14A93.36,93.36,0,0,0,146.33,139c-8.39,24.19-6.53,45.37-4.74,65.85,9.11,104,14.44,114.25,18.72,122.45,5.31,10.18,12.58,24.12,27.11,37.11,1.63,1.46,34.25,30.08,77.57,30.08a96.23,96.23,0,0,0,27.23-3.91c38.75-11.38,59-42.66,67.58-60.3,9.86-20.18,9.74-43.14,9.52-88.88-.28-56.15-1.35-87-21.09-121-7.11-12.22-14.45-24.85-29.61-35.69-40.23-28.77-94.8-14.79-120.7-2-8.26,4.08-27.59,13.63-41.21,34.42Z"/><path class="cls-9" d="M196.35,277.39a38.14,38.14,0,0,1-8.11-.56,16,16,0,0,1-10.8-7.92,15.45,15.45,0,0,1-.76-12.51l2.57-6.75,73.48-5.25,14-4.55,15.75,2.42c7-.52,15.63-1.26,24-2,25.29-2.17,37.74-3.14,42.75-2.61l9.93,1,.22,10c.29,13.39-16.11,16.51-24,18-9,1.71-20,2.87-28.82,3.8-5,.53-9.76,1-12.22,1.45a40.16,40.16,0,0,1-20.75-1.55c-.79-.25-1.85-.58-2.29-.65a37.27,37.27,0,0,0-4.75,1.76c-4.37,1.82-9.78,4.08-15.83,3.84-2.07-.09-11.91.38-20.59.79C212.4,277,202.38,277.39,196.35,277.39Z"/><path class="cls-9" d="M196.35,277.39a38.14,38.14,0,0,1-8.11-.56,16,16,0,0,1-10.8-7.92,15.45,15.45,0,0,1-.76-12.51l2.57-6.75,73.48-5.25,14-4.55,15.75,2.42c7-.52,15.63-1.26,24-2,25.29-2.17,37.74-3.14,42.75-2.61l9.93,1,.22,10c.29,13.39-16.11,16.51-24,18-9,1.71-20,2.87-28.82,3.8-5,.53-9.76,1-12.22,1.45a40.16,40.16,0,0,1-20.75-1.55c-.79-.25-1.85-.58-2.29-.65a37.27,37.27,0,0,0-4.75,1.76c-4.37,1.82-9.78,4.08-15.83,3.84-2.07-.09-11.91.38-20.59.79C212.4,277,202.38,277.39,196.35,277.39Z"/><path class="cls-9" d="M323.19,283.3c-.38,0-.76,0-1.14,0-11.15-.84-18.83-13.59-18.26-30.32l.32-9.57,46.31-6.28-2.08,14.83C345.82,269.82,334.9,283.3,323.19,283.3Z"/><path class="cls-9" d="M323.19,283.3c-.38,0-.76,0-1.14,0-11.15-.84-18.83-13.59-18.26-30.32l.32-9.57,46.31-6.28-2.08,14.83C345.82,269.82,334.9,283.3,323.19,283.3Z"/><path class="cls-9" d="M216.78,290.54a18.05,18.05,0,0,1-3-.26c-11.1-1.95-20.24-15.12-21.73-31.31l-1.13-12.33,51.35-.2-.4,11.76c-.39,11.5-4.79,21.48-12.09,27.41A20.67,20.67,0,0,1,216.78,290.54Z"/><path class="cls-9" d="M216.78,290.54a18.05,18.05,0,0,1-3-.26c-11.1-1.95-20.24-15.12-21.73-31.31l-1.13-12.33,51.35-.2-.4,11.76c-.39,11.5-4.79,21.48-12.09,27.41A20.67,20.67,0,0,1,216.78,290.54Z"/><path class="cls-9" d="M325.6,276.3a14.68,14.68,0,0,1-1.75-.11c-9.39-1.16-16.15-11.08-16.43-24.14l-.23-10.76,40.23-3-1.26,13.36c-.82,8.65-4.48,16.19-10.07,20.68A16.83,16.83,0,0,1,325.6,276.3Z"/><path class="cls-9" d="M220.24,239.5a32.92,32.92,0,0,1-31.45-23.45A32,32,0,0,1,210.91,176a32.71,32.71,0,0,1,37.65,46.93h0a31.84,31.84,0,0,1-19.49,15.39A32.54,32.54,0,0,1,220.24,239.5Zm-.53-42.07a9.92,9.92,0,0,0-2.69.37,9.37,9.37,0,0,0-6.5,11.78A10.2,10.2,0,0,0,223,216.44a9.38,9.38,0,0,0,5.75-4.51,9.8,9.8,0,0,0-4.08-13.22A10.14,10.14,0,0,0,219.71,197.43Z"/><path class="cls-9" d="M220.24,239.5a32.92,32.92,0,0,1-31.45-23.45A32,32,0,0,1,210.91,176a32.71,32.71,0,0,1,37.65,46.93h0a31.84,31.84,0,0,1-19.49,15.39A32.54,32.54,0,0,1,220.24,239.5Zm-.53-42.07a9.92,9.92,0,0,0-2.69.37,9.37,9.37,0,0,0-6.5,11.78A10.2,10.2,0,0,0,223,216.44a9.38,9.38,0,0,0,5.75-4.51,9.8,9.8,0,0,0-4.08-13.22A10.14,10.14,0,0,0,219.71,197.43Z"/><path class="cls-9" d="M219.67,228.79a34.15,34.15,0,1,1,30-17.65A33.95,33.95,0,0,1,219.67,228.79Zm.08-45.63a11.48,11.48,0,0,0-5.56,21.53,11.48,11.48,0,1,0,5.56-21.53Z"/><path class="cls-9" d="M323.26,232.73a32.72,32.72,0,0,1-28.82-48.15,31.88,31.88,0,0,1,19.49-15.39,32.88,32.88,0,0,1,40.28,22.24,31.87,31.87,0,0,1-2.63,24.69h0a31.9,31.9,0,0,1-19.49,15.39A32.54,32.54,0,0,1,323.26,232.73Zm-.53-42.07A9.86,9.86,0,0,0,320,191a9.42,9.42,0,0,0-5.75,4.51,9.8,9.8,0,0,0,4.08,13.22,10,10,0,0,0,7.61.91,9.34,9.34,0,0,0,5.74-4.51h0a9.36,9.36,0,0,0,.76-7.26,10.23,10.23,0,0,0-9.75-7.24Z"/><path class="cls-9" d="M323.26,232.73a32.72,32.72,0,0,1-28.82-48.15,31.88,31.88,0,0,1,19.49-15.39,32.88,32.88,0,0,1,40.28,22.24,31.87,31.87,0,0,1-2.63,24.69h0a31.9,31.9,0,0,1-19.49,15.39A32.54,32.54,0,0,1,323.26,232.73Zm-.53-42.07A9.86,9.86,0,0,0,320,191a9.42,9.42,0,0,0-5.75,4.51,9.8,9.8,0,0,0,4.08,13.22,10,10,0,0,0,7.61.91,9.34,9.34,0,0,0,5.74-4.51h0a9.36,9.36,0,0,0,.76-7.26,10.23,10.23,0,0,0-9.75-7.24Z"/><path class="cls-9" d="M324.24,223.72a33,33,0,0,1-31.46-23.46,32,32,0,0,1,22.13-40.08,32.86,32.86,0,0,1,40.28,22.23,31.87,31.87,0,0,1-2.63,24.69h0a32,32,0,0,1-19.49,15.4A32.94,32.94,0,0,1,324.24,223.72Zm-.53-42.07A9.86,9.86,0,0,0,321,182a9.35,9.35,0,0,0-6.5,11.77A10.2,10.2,0,0,0,327,200.66a9.4,9.4,0,0,0,5.74-4.51h0a9.39,9.39,0,0,0,.76-7.27,10.05,10.05,0,0,0-4.83-5.95A10.17,10.17,0,0,0,323.71,181.65Z"/><path class="cls-9" d="M222,210.68a15.22,15.22,0,1,1,13.35-7.87h0A15.33,15.33,0,0,1,222,210.68Zm-6.51-18.83a7.46,7.46,0,0,0,13.06,7.21h0l-3.13-1.73,3.13,1.73a7.46,7.46,0,0,0-13.06-7.21Z"/><path class="cls-9" d="M322.88,207.73a15.22,15.22,0,1,1,13.35-7.86A15.13,15.13,0,0,1,322.88,207.73Zm-6.51-18.82a7.46,7.46,0,0,0,13.07,7.21l-3.14-1.73,3.14,1.73a7.46,7.46,0,1,0-13.07-7.21Z"/><path class="cls-9" d="M200.2,170.65l-21.79-6.28c1.11-3.85,5.8-16.93,19.66-24a39,39,0,0,1,25.84-3.22L219,159.33a16.36,16.36,0,0,0-10.7,1.29A17,17,0,0,0,200.2,170.65Z"/><path class="cls-9" d="M343.08,161.23a14.84,14.84,0,0,0-18.44-2.37l-11.72-19.42a37.55,37.55,0,0,1,46.43,6Z"/><path class="cls-9" d="M235.34,260.55a72.62,72.62,0,0,1-15.81-1.76,16.28,16.28,0,0,1-1.33-31.43,36.17,36.17,0,0,0,4.5-1.76A49.34,49.34,0,0,0,233,218.78c4.92-3.92,10.49-8.35,19.32-9.49A34.92,34.92,0,0,1,272.48,213,30.72,30.72,0,0,1,290.82,210c7.2,1.16,11.74,4.86,15.06,7.56a22.29,22.29,0,0,0,5.75,3.8,15,15,0,0,0,3.74.95,16.3,16.3,0,0,1,14.07,13.34A16.11,16.11,0,0,1,321,252.91l-.26.14c-4.48,2.31-16.43,8.48-32,5.74a46.32,46.32,0,0,1-18.15-7.44,72.3,72.3,0,0,1-35.2,9.2Zm48.34-27.68a23.4,23.4,0,0,0,8.92,3.59l.68.1c-.62-.48-1.19-.94-1.72-1.38-2.52-2.05-3.29-2.58-4.37-2.76A7.45,7.45,0,0,0,283.68,232.87Zm-27.3-1.16a8.77,8.77,0,0,0-1.15.07c-2.31.3-3.94,1.44-7.91,4.59a50.53,50.53,0,0,0,11.39-4.4A10.6,10.6,0,0,0,256.38,231.71Z"/><path class="cls-9" d="M235.34,260.55a72.62,72.62,0,0,1-15.81-1.76,16.28,16.28,0,0,1-1.33-31.43,36.17,36.17,0,0,0,4.5-1.76A49.34,49.34,0,0,0,233,218.78c4.92-3.92,10.49-8.35,19.32-9.49A34.92,34.92,0,0,1,272.48,213,30.72,30.72,0,0,1,290.82,210c7.2,1.16,11.74,4.86,15.06,7.56a22.29,22.29,0,0,0,5.75,3.8,15,15,0,0,0,3.74.95,16.3,16.3,0,0,1,14.07,13.34A16.11,16.11,0,0,1,321,252.91l-.26.14c-4.48,2.31-16.43,8.48-32,5.74a46.32,46.32,0,0,1-18.15-7.44,72.3,72.3,0,0,1-35.2,9.2Zm48.34-27.68a23.4,23.4,0,0,0,8.92,3.59l.68.1c-.62-.48-1.19-.94-1.72-1.38-2.52-2.05-3.29-2.58-4.37-2.76A7.45,7.45,0,0,0,283.68,232.87Zm-27.3-1.16a8.77,8.77,0,0,0-1.15.07c-2.31.3-3.94,1.44-7.91,4.59a50.53,50.53,0,0,0,11.39-4.4A10.6,10.6,0,0,0,256.38,231.71Z"/><path class="cls-9" d="M235.17,256.21a75.88,75.88,0,0,1-34.44-8.48l4.91-21.4a42.06,42.06,0,0,0,18.59-4.53,49,49,0,0,0,10-7.29c4.74-4.13,10.1-8.82,18.87-10.36a34.73,34.73,0,0,1,20.29,2.77,30.74,30.74,0,0,1,18.19-3.78c7.25.84,11.95,4.32,15.39,6.86a22.22,22.22,0,0,0,5.93,3.54c3.84,1.36,8.74,1.06,14.53-.89l36-12.12-23.53,29.88a57.36,57.36,0,0,1-16.51,14.33c-4.39,2.52-16,9.22-31.75,7.2a45.94,45.94,0,0,1-18.5-6.6,74,74,0,0,1-22.89,9.25A71.47,71.47,0,0,1,235.17,256.21Zm23.43-29.86a9.14,9.14,0,0,0-1.59.13c-2.3.41-3.88,1.62-7.69,5a51.46,51.46,0,0,0,11.16-4.92A11.19,11.19,0,0,0,258.6,226.35Zm26.86-.08a23.52,23.52,0,0,0,9.09,3.18l.68.08-1.78-1.3c-2.61-1.93-3.41-2.44-4.49-2.56A7.43,7.43,0,0,0,285.46,226.27Z"/><path class="cls-9" d="M217.32,284.27c-.4,0-.81,0-1.22,0-7.11-.43-13.43-4.54-15.73-10.24-1.2-3-3.91-10.07-4-10.37l-5.65-14.82,53.65-1.87-5,15.4a75.75,75.75,0,0,1-5.63,12.19A18.39,18.39,0,0,1,217.32,284.27Z"/><path class="cls-9" d="M185.32,271.92l-2.06-22.58c6.88-.63,41.61-3.72,50.13-3.09a116.82,116.82,0,0,0,19.94-.34c.53-.2,1.68-.75,2.53-1.17,3.95-1.89,9.32-4.48,15.23-4.25a49.62,49.62,0,0,1,9.3,1.52,29.3,29.3,0,0,0,4.83.9c1.81,0,10.82-1,18.06-1.71,10.31-1.08,21-2.2,26.85-2.48,10.48-.51,26.39-1.55,26.55-1.56l1.48,22.63c-.16,0-16.26,1.06-26.94,1.58-5.24.25-16.05,1.38-25.58,2.38-12.68,1.33-18.11,1.84-20.66,1.84a44.29,44.29,0,0,1-9.77-1.5,38.29,38.29,0,0,0-4.76-.92,31.64,31.64,0,0,0-4.77,2,36.33,36.33,0,0,1-6.67,2.68c-5.68,1.45-19.73,1.56-27.31,1C226.83,268.49,201.65,270.43,185.32,271.92Z"/><path class="cls-9" d="M184.11,276a15.39,15.39,0,0,1-1.43-30.72l.65,0,22.3-1.08c7.17-.34,14.58-.7,22.1-.74h.11l3.8.07c.93.05,2,.1,3,.21,1.54.13,3.12.23,4.7.3,3.46.14,6.8.17,9.94.07,1.19,0,2.57-.1,3.73-.22.45-.2.83-.38,1.17-.56l.92-.48c1.39-.74,3-1.58,4.78-2.38l.29-.12a26.51,26.51,0,0,1,10.62-2.25H271a50.6,50.6,0,0,1,9.88,1.54c1,.24,2,.46,2.78.6a11.67,11.67,0,0,0,1.24.19h.17a5.57,5.57,0,0,0,.65,0c1.37-.09,2.8-.23,4.31-.37l.68-.07,21.65-2.31c3.29-.35,7.17-.75,11.11-1.1,1.91-.17,3.82-.33,5.77-.46l5.61-.38,5.44-.29c1.34-.07,2.61-.09,3.89-.12l1.84,0,1.91-.05c3.08-.08,6.26-.16,9.5-.11h.14a13.36,13.36,0,0,1,.92,26.67h0c-2.31.18-4.62.38-6.94.58-4.9.42-10,.85-15,1.2l-5.39.4c-1.45.1-3,.24-5,.45-3.78.39-7.5.82-10.63,1.2l-22.64,2.7c-1.61.18-3.28.36-5.09.51a32.87,32.87,0,0,1-4.87.05c-1.64-.11-3.1-.34-4.19-.52-1.5-.26-2.85-.55-4.05-.81l-1.72-.37c-.9-.18-1.52-.28-1.93-.33l-.14.05-.21.08c-.87.34-2,.9-3.24,1.49l-1,.51c-.8.38-1.69.81-2.78,1.26a26.63,26.63,0,0,1-6.12,1.76c-2.51.39-4.66.55-6.82.69-3.94.24-7.86.33-12.07.28-2.06,0-4.14-.09-6.18-.22l-1.89-.07-2.25,0c-6.86.24-14.06.8-21,1.34-6.77.55-14,1.18-21.52,1.88l-.13,0C185.09,276,184.6,276,184.11,276Z"/><path class="cls-9" d="M295.68,480.07a14.4,14.4,0,0,1-11.29-5.44l-14.74-18.56A14.41,14.41,0,0,1,255.5,458l-.6,1.54a14.41,14.41,0,0,1-20.36,7.34h0a14.35,14.35,0,0,1-5.87-6.08l-15.89-31.29a14.28,14.28,0,0,1-6.93,1.77h0a14.41,14.41,0,0,1-6.5-1.56,14.38,14.38,0,0,1-23.8-4.08l-7.09-16.51a13.53,13.53,0,0,1-3.34-.42,14.23,14.23,0,0,1-3.51-1.37,14.48,14.48,0,0,1-6.94-8.86L152.91,392l-.75-.12a14.41,14.41,0,0,1-11.47-11.06l-2.26-10.26c-.39-.08-.79-.17-1.17-.28A14.41,14.41,0,0,1,127,358.43l0-.22c-.71-5.23-4.42-32.61-7.54-58.1-3.38-27.68-6.48-78.46-6.36-81.78a14.38,14.38,0,0,1,15.17-13.87l19.82-.2.79.11a14.35,14.35,0,0,1,9.61,5.58,14.49,14.49,0,0,1,2.77,10.75,152.83,152.83,0,0,0-.37,30.57c.91,10.34,3.08,24.49,4.8,34.83.27.11.54.23.82.37s.53.26.75.39a14.43,14.43,0,0,1,7,9.27s3.34,13.1,12,23.07a12,12,0,0,0,3.31,2.63c8,4.42,21.35,2.51,31-1.34,8.87-3.52,15-15.11,16.69-19.28a14.4,14.4,0,0,1,27.08.57l.17.5a19.45,19.45,0,0,1,9.1,1.14l7.91-10a14.4,14.4,0,0,1,24.61,3.38,63.41,63.41,0,0,0,5.06,9.51c.22-.51.41-1,.56-1.46A14.4,14.4,0,0,1,330.94,296c.43.16,4.43,1.51,8-.07,4.51-2,7.4-8.13,9-12.91,11.11-32.66,5.69-71.32,5-75.62l0-.27A14.46,14.46,0,0,1,365,191l17.36-2.66a14.39,14.39,0,0,1,16.58,14c0,.57.35,62.72-4,95.67C390.83,329,378.13,395.14,378,395.81a14.41,14.41,0,0,1-18.16,11.11A14.52,14.52,0,0,1,346.28,417l-12.52.13-8.16,18.34A14.35,14.35,0,0,1,312,444l-2,22.93a14.39,14.39,0,0,1-14.33,13.16Zm-29.74-65.16,23.27,29.31,2.92-33.86,16.25,8L319,394.6l19-.21L338.5,347l20.63,26.56c4.05-21.8,10.63-58.1,13.34-78.55.94-7.09,1.66-15.89,2.2-25.22a142.25,142.25,0,0,1-5.25,20.61c-4.49,13.2-11.66,22.06-21.3,26.34a32.85,32.85,0,0,1-17.92,2.36c-4.31,8-11.32,14.8-20.46,13.62a16.75,16.75,0,0,1-5.91-2c-4.95-2.73-9.21-8.09-12.43-13.22l-16,20.3-8.84-11.89-.38-.49a9.61,9.61,0,0,0-1.18.87L252.29,337l-3.65-10.81c-4.7,5.95-11.19,12-19.71,15.36-6.91,2.74-30.93,10.86-50.38.13a34.84,34.84,0,0,1-9.47-7.61,82.07,82.07,0,0,1-13.78-23.16l-7.74,3.67L145,300c-1.58-9-5.42-31.44-6.75-46.7a183.25,183.25,0,0,1-.36-26.21l-1.75,0c.91,15.62,3.22,49.26,5.78,70.3,1.69,13.83,3.56,28.23,5,39.3l5.72-6.88,6,27,5.87-8.94,8.19,30.32,4.89-5.26,10.33,24L193.3,381l12.56,20.21,9.9-15.91,24.78,48.79,8.83-22.47,10.43,16.11Zm19.23-109.43,0,0Zm-133-4.13s0,0,0,0A.43.43,0,0,0,152.13,301.35Zm-13.4-83.86s0,0,0,.07A.23.23,0,0,0,138.73,217.49Z"/><path class="cls-9" d="M289.86,117.15a41.29,41.29,0,0,1-6.05-.46c-16.75-2.53-28.33-14.64-26.38-27.57,1.06-7,5.93-12.94,13.36-16.22a36.51,36.51,0,0,1,20-2.31c16.75,2.53,28.33,14.63,26.38,27.56-1.06,7-5.93,12.95-13.36,16.22A34.68,34.68,0,0,1,289.86,117.15Zm-7.2-24.21a16.87,16.87,0,0,0,4.54,1.33,17.15,17.15,0,0,0,4.72.07,17.51,17.51,0,0,0-9.26-1.4Z"/><path class="cls-4" d="M147.22,110.93a105,105,0,0,0-11.61,24.34c-9.06,26.13-7.23,48.7-5.32,70.55,9,103.09,14.49,116.21,20,126.71,6.05,11.59,13.86,26.23,29.61,40.31,4,3.62,53.92,46.69,115.55,28.6,49.33-14.49,70.49-57.83,74.57-66.2,11-22.57,10.9-46.35,10.66-93.92-.26-53.83-.88-89.23-22.62-126.62-7.24-12.45-15.68-27-32.82-39.21-42.78-30.6-100.16-18.83-132.31-2.94C183,77.46,162.24,88,147.22,110.93Z"/><path class="cls-7" d="M264.59,409.94c-47.65,0-82.84-30-87.42-34.08-16.62-14.86-24.64-30.23-30.5-41.46-5.42-10.39-11-21.14-20.41-128.23-1.84-21.06-3.93-44.93,5.53-72.23a108.47,108.47,0,0,1,12.05-25.23h0c15.92-24.3,37.88-35.15,47.26-39.78a166.74,166.74,0,0,1,63.78-16.39c27.77-1.29,52.91,5.5,72.69,19.65,17.85,12.77,26.78,28.13,34,40.48,22.73,39.08,22.92,76.64,23.17,128.63.24,48.14.36,72.3-11.07,95.71-9.72,19.92-32.66,55.27-77.07,68.31A113,113,0,0,1,264.59,409.94Zm-114-296.79a101.42,101.42,0,0,0-11.17,23.45c-8.9,25.66-7,47.62-5.11,68.86,9.24,105.48,14.7,116,19.52,125.2,5.57,10.67,13.19,25.29,28.71,39.16a139.76,139.76,0,0,0,35.1,21.75c26,11.26,51.78,13.27,76.62,6,41.43-12.16,62.94-45.37,72.08-64.09,10.6-21.71,10.48-45.24,10.25-92.11-.26-50.74-.44-87.4-22.08-124.61-7.14-12.29-15.24-26.21-31.67-38-43-30.78-100.81-16.11-128.17-2.6-8.79,4.35-29.37,14.51-44.08,37Z"/><path class="cls-10" d="M187.27,260.44s-1.58,4.15,3.55,5.34,53.7-2,60.3-1.73,14.24-5.53,19.91-5.62,9.47,4.39,21.36,2.37c11.73-2,55.76-4.23,55.59-11.84-6.72-.72-44,3.14-66,4.71l-14.35-2.2-12.73,4.14Z"/><path class="cls-10" d="M337.11,250.34c-1.9,13.53-9.57,22-14.21,21.61-4.22-.32-8.14-8-7.78-18.63Z"/><path class="cls-10" d="M230.51,257.82c-.48,14.31-8.92,22.32-14.8,21.29-5.34-.94-11.35-9.82-12.4-21.18Z"/><path class="cls-11" d="M334.87,250.62c-.87,9.24-6.19,14.74-9.63,14.32-3.13-.39-6.33-5.86-6.48-13.13Z"/><ellipse class="cls-10" cx="219.99" cy="207.12" rx="20.94" ry="21.29" transform="translate(-67.65 299.65) rotate(-61.11)"/><circle class="cls-11" cx="219.73" cy="194.64" r="22.81"/><path class="cls-7" d="M219.7,220.36a25.78,25.78,0,1,1,7.16-1A25.68,25.68,0,0,1,219.7,220.36Zm.06-45.65a19.94,19.94,0,1,0,9.6,2.49A19.9,19.9,0,0,0,219.76,174.71Z"/><ellipse class="cls-10" cx="323.01" cy="200.35" rx="20.94" ry="21.29" transform="translate(-8.48 386.34) rotate(-61.11)"/><ellipse class="cls-11" cx="323.99" cy="191.34" rx="20.94" ry="21.29" transform="translate(-0.08 382.54) rotate(-61.11)"/><path class="cls-7" d="M324.25,215.05a24.26,24.26,0,0,1-23.16-17.26,23.37,23.37,0,0,1,16.15-29.27,24.23,24.23,0,0,1,29.65,16.36,23.39,23.39,0,0,1-16.15,29.28A24.41,24.41,0,0,1,324.25,215.05ZM323.72,173a18.52,18.52,0,0,0-5,.7,18,18,0,0,0-12.46,22.59A18.86,18.86,0,0,0,329.29,209a18,18,0,0,0,11-8.67h0a18,18,0,0,0,1.47-13.92,18.95,18.95,0,0,0-18-13.43Z"/><circle class="cls-7" cx="222" cy="195.45" r="3.88"/><circle class="cls-7" cx="322.91" cy="192.51" r="3.88"/><path class="cls-7" d="M189.31,170.4a3.09,3.09,0,0,1-.8-.11,2.89,2.89,0,0,1-2-3.58c.87-3,4.54-13.29,15.37-18.78a30.43,30.43,0,0,1,20.19-2.5,2.89,2.89,0,1,1-1.24,5.65,24.65,24.65,0,0,0-16.34,2,25.28,25.28,0,0,0-12.42,15.22A2.9,2.9,0,0,1,189.31,170.4Z"/><path class="cls-7" d="M351.22,156.22a2.9,2.9,0,0,1-2.08-.87,23.56,23.56,0,0,0-13.23-6.85,23.84,23.84,0,0,0-15.63,3.13,2.89,2.89,0,1,1-3-4.95,29.08,29.08,0,0,1,36,4.64,2.88,2.88,0,0,1-2.07,4.9Z"/><path class="cls-10" d="M274.93,224.49a5,5,0,0,1-5.05,0c-4.24-2.51-9.86-4.73-16.1-3.93-10.11,1.31-13.86,9.53-26.27,15.34a47.42,47.42,0,0,1-5.89,2.3,4.94,4.94,0,0,0,.37,9.55,60.73,60.73,0,0,0,23.35.65,62.68,62.68,0,0,0,23-8.89,4.9,4.9,0,0,1,5.77.39,35.49,35.49,0,0,0,16.53,7.75c11.61,2,20.78-2.53,24.89-4.65l.21-.11A4.94,4.94,0,0,0,314,233.6a25.8,25.8,0,0,1-6.58-1.7c-8.3-3.35-10.7-9.43-18.38-10.67C283.7,220.37,278.75,222.28,274.93,224.49Z"/><path class="cls-7" d="M273.91,220c-4.54-2.85-11.34-6-18.87-4.7-10,1.76-13.41,10.14-25.54,16.52a52.68,52.68,0,0,1-23.56,5.82c5.21,2.7,21.5,10.27,41.94,5.84a63.07,63.07,0,0,0,25.56-12.14,36,36,0,0,0,19.67,9.34c11.69,1.5,20.64-3.48,24.66-5.79A46.28,46.28,0,0,0,331,223.4c-10.33,3.47-17.38,2.43-21.92.83-8.44-3-11.11-8.93-18.84-9.83C283.66,213.64,277.77,217.09,273.91,220Z"/><path class="cls-11" d="M206.94,259.58s2.77,7.26,3.94,10.17,9.37,5.69,12.9-.7a67.09,67.09,0,0,0,4.77-10.23Z"/><path class="cls-7" d="M357.56,250.5c-7.27.59-14.54,1.26-21.81,1.77l-5.45.4c-1.76.12-3.56.29-5.36.48-3.59.37-7.2.79-10.81,1.22L292.42,257c-1.83.2-3.63.41-5.55.56a21.11,21.11,0,0,1-3.2.05,28.56,28.56,0,0,1-3.07-.39c-2-.34-3.74-.77-5.45-1.11a25.43,25.43,0,0,0-4.73-.62,8,8,0,0,0-1.75.26,20.27,20.27,0,0,0-2.13.7c-1.49.58-3,1.36-4.7,2.16-.84.4-1.68.82-2.68,1.23a14.75,14.75,0,0,1-3.41,1c-2.09.33-3.94.47-5.83.59-3.76.23-7.47.3-11.2.25-1.87,0-3.75-.08-5.65-.2l-.71,0-.6,0-1.19,0-2.61,0c-7.1.25-14.38.82-21.6,1.38s-14.48,1.22-21.7,1.89l-.16,0a4.05,4.05,0,0,1-.76-8.07h.19l21.89-1.05c7.3-.36,14.57-.71,22-.75l2.82,0c.95,0,2,.1,2.87.19,1.76.16,3.54.27,5.33.35,3.58.15,7.19.18,10.75.08,1.78-.06,3.58-.15,5.23-.37a7.34,7.34,0,0,0,2.2-.59c.75-.31,1.57-.68,2.36-1.1,1.61-.84,3.24-1.75,5-2.54a15.12,15.12,0,0,1,6.18-1.41c4.18.16,7.73,1.37,11.12,2a19.84,19.84,0,0,0,2.44.34,14.74,14.74,0,0,0,2.39,0c1.74-.11,3.56-.3,5.35-.47l21.71-2.32c3.62-.38,7.25-.75,10.91-1.08,1.83-.16,3.66-.31,5.52-.44l5.46-.36,5.44-.3c1.82-.09,3.64-.1,5.45-.15,3.64-.08,7.27-.2,10.92-.15h.13a2,2,0,0,1,.14,4Z"/><path class="cls-7" d="M240,457a3.05,3.05,0,0,1-1.25-1.29l-24-47.29-6.3,10.12a3.06,3.06,0,0,1-2.6,1.45,3,3,0,0,1-2.6-1.45l-6.94-11.16L191.67,421a3.06,3.06,0,0,1-2.78,2.07,3.13,3.13,0,0,1-1.6-.38,3.08,3.08,0,0,1-1.33-1.47l-12-27.8-3.21,3.45a3.1,3.1,0,0,1-3,.89,3.19,3.19,0,0,1-.74-.3,3,3,0,0,1-1.47-1.88l-5.51-20.37-2.79,4.25a3.07,3.07,0,0,1-4,1,3.07,3.07,0,0,1-1.51-2l-5.2-23.57-3,3.59a3.06,3.06,0,0,1-3.19,1,3.32,3.32,0,0,1-.64-.27,3.05,3.05,0,0,1-1.55-2.26c0-.3-4.14-30.23-7.55-58.15-3.44-28.13-6.37-77.81-6.29-80a3.06,3.06,0,0,1,3.45-2.93l19.52-.19a3,3,0,0,1,2.05,1.18,3.13,3.13,0,0,1,.59,2.29,161.67,161.67,0,0,0-.44,33.18c1.29,14.78,5,36.82,6.62,45.71l2.73-1.3a3.09,3.09,0,0,1,2.64,0l.15.08a3,3,0,0,1,1.5,2c0,.15,3.83,15.64,14.48,27.9a23.26,23.26,0,0,0,6.39,5.12c12,6.62,28.89,4,40.71-.74,15.53-6.16,23-25.52,23.07-25.71a3.06,3.06,0,0,1,5.77.1l4.12,12.18a18.24,18.24,0,0,1,7.11-3.86,8.14,8.14,0,0,1,6,.87,16,16,0,0,1,4.84,4.5l14.73-18.71a3.07,3.07,0,0,1,3.88-.79,3.08,3.08,0,0,1,1.35,1.5c1.82,4.38,7.84,16.43,13.67,19.65a5.42,5.42,0,0,0,1.88.67c5.47.71,10.11-9.44,11.31-13.05a3.05,3.05,0,0,1,4.14-1.84c.07,0,8.42,3.55,16.88-.21,6.63-2.94,11.73-9.54,15.16-19.62,12.6-37,5.58-80.47,5.5-81.08a3.06,3.06,0,0,1,2.57-3.45l17.36-2.66a3.12,3.12,0,0,1,1.95.34,3.3,3.3,0,0,1,.49.34,3.11,3.11,0,0,1,1.09,2.29c.06,3.28.18,63-3.93,94S367,393,366.87,393.67a3.06,3.06,0,0,1-4.49,2.1,3.22,3.22,0,0,1-.93-.8l-12-15.44-.27,23.08a3.07,3.07,0,0,1-3,3l-19.79.22-11.12,25a3.06,3.06,0,0,1-4.15,1.5L302,427.86l-3.29,38.08a3.06,3.06,0,0,1-4.53,2.41,3.2,3.2,0,0,1-.92-.77l-24.92-31.41-4.7,9.8a3.07,3.07,0,0,1-2.56,1.74,3,3,0,0,1-1.68-.38,3.1,3.1,0,0,1-1.09-1l-6.46-10-7.51,19.08A3,3,0,0,1,240,457Z"/><ellipse class="cls-11" cx="287.29" cy="93.64" rx="11.97" ry="18.86" transform="translate(151.77 363.71) rotate(-81.41)"/><g class="cls-12"><g class="cls-12"><rect class="cls-3" x="193.44" y="-53.82" width="1111.61" height="213.21" transform="translate(5.96 160.85) rotate(-12.3)"/><rect class="cls-3" x="193.44" y="-53.82" width="1111.61" height="213.21" transform="translate(5.96 160.85) rotate(-12.3)"/><rect class="cls-3" x="238.87" y="154.49" width="1111.61" height="213.21" transform="translate(-37.38 175.31) rotate(-12.3)"/><rect class="cls-3" x="238.87" y="154.49" width="1111.61" height="213.21" transform="translate(-37.38 175.31) rotate(-12.3)"/><rect class="cls-3" x="284.3" y="362.8" width="1111.61" height="213.21" transform="translate(-80.72 189.78) rotate(-12.3)"/><rect class="cls-3" x="284.3" y="362.8" width="1111.61" height="213.21" transform="translate(-80.72 189.78) rotate(-12.3)"/></g></g><g class="cls-12"><g class="cls-12"><rect class="cls-13" x="193.44" y="-53.82" width="1111.61" height="213.21" transform="translate(5.96 160.85) rotate(-12.3)"/><rect class="cls-14" x="238.87" y="154.49" width="1111.61" height="213.21" transform="translate(-37.38 175.31) rotate(-12.3)"/><rect class="cls-15" x="284.3" y="362.8" width="1111.61" height="213.21" transform="translate(-80.72 189.78) rotate(-12.3)"/></g></g></svg>