<svg xmlns="http://www.w3.org/2000/svg" xmlns:xlink="http://www.w3.org/1999/xlink" viewBox="0 0 512 512"><defs><style>.cls-1,.cls-11,.cls-12,.cls-14,.cls-21,.cls-22,.cls-24,.cls-25,.cls-27,.cls-29,.cls-32,.cls-33,.cls-34,.cls-35,.cls-5{fill:none;}.cls-2{isolation:isolate;}.cls-3{fill:#9389ed;}.cls-4{clip-path:url(#clip-path);}.cls-14,.cls-5{stroke:#fff;}.cls-5{stroke-linejoin:round;stroke-width:25.51px;}.cls-6{clip-path:url(#clip-path-2);}.cls-7{fill:#725e54;}.cls-8{fill:#c6c6c6;}.cls-9{fill:#e5e5e5;}.cls-10{fill:#ba7e56;}.cls-11{stroke:#ba7e56;}.cls-11,.cls-12,.cls-22,.cls-24,.cls-25,.cls-27,.cls-32,.cls-33,.cls-34,.cls-35{stroke-miterlimit:10;}.cls-11,.cls-12{stroke-width:14.17px;}.cls-12{stroke:#96665e;}.cls-13{clip-path:url(#clip-path-4);}.cls-14{stroke-width:32.52px;}.cls-15{clip-path:url(#clip-path-5);}.cls-16{clip-path:url(#clip-path-7);}.cls-17{fill:#ffca98;}.cls-18{fill:#b78865;}.cls-19{fill:#e1ad7f;}.cls-20{mix-blend-mode:overlay;}.cls-21{stroke:#efefef;stroke-width:26.44px;}.cls-22,.cls-24,.cls-25,.cls-27,.cls-29,.cls-33,.cls-34,.cls-35{stroke:#6c517a;}.cls-22,.cls-34{stroke-width:9.25px;}.cls-23{fill:#fff;}.cls-24,.cls-27{stroke-width:6.61px;}.cls-25{stroke-width:6.12px;}.cls-26{fill:#6c517a;}.cls-27,.cls-33,.cls-34{stroke-linecap:round;}.cls-28{opacity:0.5;mix-blend-mode:multiply;}.cls-29{stroke-width:18.51px;}.cls-30{fill:#ffb07b;}.cls-31{fill:#ef6ac7;}.cls-32{stroke:#f9f946;stroke-width:6.61px;}.cls-33{stroke-width:4.63px;}.cls-35{stroke-width:9.25px;}</style><clipPath id="clip-path"><rect class="cls-1" x="-532" width="512" height="512"/></clipPath><clipPath id="clip-path-2"><rect class="cls-1" x="-231.72" y="245.57" width="262.06" height="13.12"/></clipPath><clipPath id="clip-path-4"><polygon class="cls-1" points="227.41 338.54 345.96 335.69 347.99 424.34 213.91 424.12 227.41 338.54"/></clipPath><clipPath id="clip-path-5"><path class="cls-1" d="M132.72,164a119.58,119.58,0,0,0-13,27.93c-11.37,33.71-7.62,63.89-5.41,80.67,11.71,88.93,17.64,133.51,21.37,139.22,30.17,46.28,88.47,67.87,137.34,66.4,7.53-.23,85.81-3.6,113.7-54.46,1-1.9,1.65-3.24,2.75-5.53,12.37-25.89,12-53.07,11.29-107.43-.81-61.52-1.85-102-27.05-144.48-8.4-14.16-18.18-30.67-37.88-44.51-49.18-34.56-114.64-20.56-151.24-2.1C173.25,125.41,149.66,137.68,132.72,164Z"/></clipPath><clipPath id="clip-path-7"><path class="cls-1" d="M321.65,361c-.46,18.52-17.06,33.13-37.07,32.62s-35.85-15.92-35.38-34.44,17.06-33.13,37.07-32.63S322.12,342.43,321.65,361ZM285.75,347c-7.77-.19-14.22,5.48-14.4,12.67s6,13.19,13.75,13.38,14.22-5.48,14.4-12.67S293.52,347.22,285.75,347Z"/></clipPath></defs><g class="cls-2"><g id="Layer_1" data-name="Layer 1"><rect class="cls-3" width="512" height="512"/><g class="cls-4"><rect class="cls-5" x="-209.81" y="225.15" width="214.66" height="88.55"/><rect class="cls-5" x="-225.01" y="329.65" width="254.91" height="194.39"/><path class="cls-5" d="M-14.77,219.27c-2.84-7.66-6.72-12.89-17.44-37.76-8.38-19.42-6.93-18.35-8.87-20.88-18.7-24.29-70.39-15.31-95.81-7.15-13.39,4.3-20.08,6.45-24.89,12.59-12.61,16.09,2.58,34.39-7.72,65.5-6.2,18.73-14.27,19.82-13.16,30.31,2.89,27.09,58.8,40.34,63.79,41.48,19.44,4.42,67.68,15.39,93-13.73C-9.39,270.58-7.21,239.61-14.77,219.27Z"/><rect class="cls-5" x="-219.35" y="327.26" width="293.37" height="56.65"/><rect class="cls-5" x="-219.35" y="391.66" width="293.37" height="53.37"/><rect class="cls-5" x="-219.35" y="456.65" width="293.37" height="59.93"/><rect class="cls-5" x="-236.64" y="214.57" width="269.81" height="31.01"/><rect class="cls-5" x="-211" y="309.97" width="226.91" height="15.2"/><line class="cls-5" x1="-28.6" y1="235.14" x2="-1.17" y2="318.61"/><g class="cls-6"><line class="cls-5" x1="-28.6" y1="235.14" x2="-1.17" y2="318.61"/></g><rect class="cls-7" x="-209.81" y="225.15" width="214.66" height="88.55"/><rect class="cls-8" x="-225.01" y="329.65" width="254.91" height="194.39"/><rect class="cls-9" x="-219.35" y="327.26" width="293.37" height="56.65"/><rect class="cls-9" x="-219.35" y="391.66" width="293.37" height="53.37"/><rect class="cls-9" x="-219.35" y="456.65" width="293.37" height="59.93"/><rect class="cls-10" x="-236.64" y="214.57" width="269.81" height="31.01"/><rect class="cls-10" x="-211" y="309.97" width="226.91" height="15.2"/><line class="cls-11" x1="-28.6" y1="235.14" x2="-1.17" y2="318.61"/><g class="cls-6"><line class="cls-12" x1="-28.6" y1="235.14" x2="-1.17" y2="318.61"/></g></g><path class="cls-14" d="M132.72,164a119.58,119.58,0,0,0-13,27.93c-11.37,33.71-7.62,63.89-5.41,80.67,11.71,88.93,17.64,133.51,21.37,139.22,30.17,46.28,88.47,67.87,137.34,66.4,7.53-.23,85.81-3.6,113.7-54.46,1-1.9,1.65-3.24,2.75-5.53,12.37-25.89,12-53.07,11.29-107.43-.81-61.52-1.85-102-27.06-144.48-8.39-14.16-18.17-30.67-37.87-44.51-49.18-34.56-114.64-20.56-151.24-2.1C173.25,125.41,149.66,137.68,132.72,164Z"/><path class="cls-14" d="M132.72,164a119.58,119.58,0,0,0-13,27.93c-11.37,33.71-7.62,63.89-5.41,80.67,11.71,88.93,17.64,133.51,21.37,139.22,30.17,46.28,88.47,67.87,137.34,66.4,7.53-.23,85.81-3.6,113.7-54.46,1-1.9,1.65-3.24,2.75-5.53,12.37-25.89,12-53.07,11.29-107.43-.81-61.52-1.85-102-27.06-144.48-8.39-14.16-18.17-30.67-37.87-44.51-49.18-34.56-114.64-20.56-151.24-2.1C173.25,125.41,149.66,137.68,132.72,164Z"/><ellipse class="cls-14" cx="217.98" cy="273.05" rx="31.56" ry="32.08" transform="translate(-125.9 334.81) rotate(-61.58)"/><ellipse class="cls-14" cx="217.98" cy="273.05" rx="31.56" ry="32.08" transform="translate(-125.9 334.81) rotate(-61.58)"/><ellipse class="cls-14" cx="269.92" cy="424.98" rx="44.32" ry="45.24" transform="translate(-232.3 460.12) rotate(-61.58)"/><ellipse class="cls-14" cx="269.92" cy="424.98" rx="44.32" ry="45.24" transform="translate(-232.3 460.12) rotate(-61.58)"/><g class="cls-15"><path class="cls-14" d="M226.76,334.1c-1.35,10.86-6,10.29-7.31,21.15s3.28,11.43,1.94,22.29-6,10.29-7.31,21.14,3.29,11.44,1.95,22.3-6,10.29-7.31,21.15,3.29,11.43,1.94,22.29"/><path class="cls-14" d="M226.76,334.1c-1.35,10.86-6,10.29-7.31,21.15s3.28,11.43,1.94,22.29-6,10.29-7.31,21.14,3.29,11.44,1.95,22.3-6,10.29-7.31,21.15,3.29,11.43,1.94,22.29"/><path class="cls-14" d="M335,331.62c1.19,11.35-3.45,11.84-2.26,23.19s5.83,10.87,7,22.22-3.45,11.84-2.26,23.2,5.83,10.86,7,22.22-3.45,11.84-2.26,23.2,5.83,10.87,7,22.22"/><path class="cls-14" d="M335,331.62c1.19,11.35-3.45,11.84-2.26,23.19s5.83,10.87,7,22.22-3.45,11.84-2.26,23.2,5.83,10.86,7,22.22-3.45,11.84-2.26,23.2,5.83,10.87,7,22.22"/></g><path class="cls-14" d="M132.72,164a119.58,119.58,0,0,0-13,27.93c-11.37,33.71-7.62,63.89-5.41,80.67,11.71,88.93,17.64,133.51,21.37,139.22,30.17,46.28,88.47,67.87,137.34,66.4,7.53-.23,85.81-3.6,113.7-54.46,1-1.9,1.65-3.24,2.75-5.53,12.37-25.89,12-53.07,11.29-107.43-.81-61.52-1.85-102-27.06-144.48-8.39-14.16-18.17-30.67-37.87-44.51-49.18-34.56-114.64-20.56-151.24-2.1C173.25,125.41,149.66,137.68,132.72,164Z"/><path class="cls-14" d="M132.72,164a119.58,119.58,0,0,0-13,27.93c-11.37,33.71-7.62,63.89-5.41,80.67,11.71,88.93,17.64,133.51,21.37,139.22,30.17,46.28,88.47,67.87,137.34,66.4,7.53-.23,85.81-3.6,113.7-54.46,1-1.9,1.65-3.24,2.75-5.53,12.37-25.89,12-53.07,11.29-107.43-.81-61.52-1.85-102-27.06-144.48-8.39-14.16-18.17-30.67-37.87-44.51-49.18-34.56-114.64-20.56-151.24-2.1C173.25,125.41,149.66,137.68,132.72,164Z"/><circle class="cls-14" cx="216.37" cy="258.98" r="26.07"/><circle class="cls-14" cx="216.37" cy="258.98" r="26.07"/><ellipse class="cls-14" cx="334.45" cy="264.53" rx="31.56" ry="32.08" transform="translate(-57.37 432.78) rotate(-61.58)"/><ellipse class="cls-14" cx="334.45" cy="264.53" rx="31.56" ry="32.08" transform="translate(-57.37 432.78) rotate(-61.58)"/><ellipse class="cls-14" cx="335.49" cy="254.22" rx="23.93" ry="24.33" transform="translate(-47.76 428.29) rotate(-61.58)"/><ellipse class="cls-14" cx="335.49" cy="254.22" rx="23.93" ry="24.33" transform="translate(-47.76 428.29) rotate(-61.58)"/><circle class="cls-14" cx="204.2" cy="259.8" r="4.43"/><circle class="cls-14" cx="204.2" cy="259.8" r="4.43"/><circle class="cls-14" cx="346.11" cy="257.04" r="4.43"/><circle class="cls-14" cx="346.11" cy="257.04" r="4.43"/><path class="cls-14" d="M217.92,206a31.61,31.61,0,0,0-20.85,2.74c-11.76,6.1-15.17,17.58-15.72,19.56"/><path class="cls-14" d="M217.92,206a31.61,31.61,0,0,0-20.85,2.74c-11.76,6.1-15.17,17.58-15.72,19.56"/><path class="cls-14" d="M329.14,206.06a29.94,29.94,0,0,1,37.11,4.46"/><path class="cls-14" d="M329.14,206.06a29.94,29.94,0,0,1,37.11,4.46"/><path class="cls-14" d="M178.67,338.05l173.71-3.63L343,353s-43.94-2.94-76-3.51-77.26,5.82-77.26,5.82Z"/><path class="cls-14" d="M178.67,338.05l173.71-3.63L343,353s-43.94-2.94-76-3.51-77.26,5.82-77.26,5.82Z"/><g class="cls-13"><ellipse class="cls-14" cx="284.91" cy="358.55" rx="17.82" ry="24.16" transform="translate(-81.27 633.6) rotate(-88.44)"/><ellipse class="cls-14" cx="284.91" cy="358.55" rx="17.82" ry="24.16" transform="translate(-81.27 633.6) rotate(-88.44)"/><path class="cls-14" d="M321.58,358c.48,2.86,2.85,18.78-7.39,30.57-12.93,14.87-39.7,16-54.4,1.09-10.23-10.34-13-26.81-7.34-41.77,2-2,14-14.07,32.47-13.4C309,335.35,321.05,357,321.58,358Zm-35-5.16c-7.8-.84-14.7,3.81-15.41,10.39s5.05,12.6,12.85,13.44,14.7-3.81,15.41-10.39S294.36,353.67,286.55,352.83Z"/><path class="cls-14" d="M321.58,358c.48,2.86,2.85,18.78-7.39,30.57-12.93,14.87-39.7,16-54.4,1.09-10.23-10.34-13-26.81-7.34-41.77,2-2,14-14.07,32.47-13.4C309,335.35,321.05,357,321.58,358Zm-35-5.16c-7.8-.84-14.7,3.81-15.41,10.39s5.05,12.6,12.85,13.44,14.7-3.81,15.41-10.39S294.36,353.67,286.55,352.83Z"/><path class="cls-14" d="M321.65,361c-.46,18.52-17.06,33.13-37.07,32.62s-35.85-15.92-35.38-34.44,17.06-33.13,37.07-32.63S322.12,342.43,321.65,361ZM285.75,347c-7.77-.19-14.22,5.48-14.4,12.67s6,13.19,13.75,13.38,14.22-5.48,14.4-12.67S293.52,347.22,285.75,347Z"/><path class="cls-14" d="M321.65,361c-.46,18.52-17.06,33.13-37.07,32.62s-35.85-15.92-35.38-34.44,17.06-33.13,37.07-32.63S322.12,342.43,321.65,361ZM285.75,347c-7.77-.19-14.22,5.48-14.4,12.67s6,13.19,13.75,13.38,14.22-5.48,14.4-12.67S293.52,347.22,285.75,347Z"/><g class="cls-16"><path class="cls-14" d="M225.35,340c8.05-.89,9,8.08,17.09,7.18s7.06-9.86,15.12-10.75,9,8.07,17.09,7.18,7.06-9.86,15.12-10.75,9,8.07,17.1,7.18,7.06-9.86,15.11-10.76,9,8.07,17.11,7.18"/><path class="cls-14" d="M225.35,340c8.05-.89,9,8.08,17.09,7.18s7.06-9.86,15.12-10.75,9,8.07,17.09,7.18,7.06-9.86,15.12-10.75,9,8.07,17.1,7.18,7.06-9.86,15.11-10.76,9,8.07,17.11,7.18"/><path class="cls-14" d="M191.41,359.74c12.94-1,14.06,13.45,27,12.45s11.82-15.45,24.76-16.44,14.06,13.45,27,12.45,11.83-15.45,24.77-16.45,14.06,13.45,27,12.46,11.82-15.45,24.77-16.45,14.06,13.45,27,12.45"/><path class="cls-14" d="M191.41,359.74c12.94-1,14.06,13.45,27,12.45s11.82-15.45,24.76-16.44,14.06,13.45,27,12.45,11.83-15.45,24.77-16.45,14.06,13.45,27,12.46,11.82-15.45,24.77-16.45,14.06,13.45,27,12.45"/><path class="cls-14" d="M244.57,391.39c8-1.57,9.67,7.16,17.62,5.59s6.23-10.3,14.17-11.87,9.68,7.16,17.62,5.6,6.23-10.31,14.18-11.88,9.67,7.17,17.62,5.6S332,374.12,340,372.55s9.68,7.16,17.63,5.59"/><path class="cls-14" d="M244.57,391.39c8-1.57,9.67,7.16,17.62,5.59s6.23-10.3,14.17-11.87,9.68,7.16,17.62,5.6,6.23-10.31,14.18-11.88,9.67,7.17,17.62,5.6S332,374.12,340,372.55s9.68,7.16,17.63,5.59"/></g><ellipse class="cls-14" cx="285.39" cy="360.32" rx="13.29" ry="14.51" transform="translate(-82.56 635.8) rotate(-88.44)"/><ellipse class="cls-14" cx="285.39" cy="360.32" rx="13.29" ry="14.51" transform="translate(-82.56 635.8) rotate(-88.44)"/><ellipse class="cls-14" cx="284.91" cy="358.55" rx="17.82" ry="24.16" transform="translate(-81.27 633.6) rotate(-88.44)"/><ellipse class="cls-14" cx="284.91" cy="358.55" rx="17.82" ry="24.16" transform="translate(-81.27 633.6) rotate(-88.44)"/><path class="cls-14" d="M321.58,358c.48,2.86,2.85,18.78-7.39,30.57-12.93,14.87-39.7,16-54.4,1.09-10.23-10.34-13-26.81-7.34-41.77,2-2,14-14.07,32.47-13.4C309,335.35,321.05,357,321.58,358Zm-35-5.16c-7.8-.84-14.7,3.81-15.41,10.39s5.05,12.6,12.85,13.44,14.7-3.81,15.41-10.39S294.36,353.67,286.55,352.83Z"/><path class="cls-14" d="M321.58,358c.48,2.86,2.85,18.78-7.39,30.57-12.93,14.87-39.7,16-54.4,1.09-10.23-10.34-13-26.81-7.34-41.77,2-2,14-14.07,32.47-13.4C309,335.35,321.05,357,321.58,358Zm-35-5.16c-7.8-.84-14.7,3.81-15.41,10.39s5.05,12.6,12.85,13.44,14.7-3.81,15.41-10.39S294.36,353.67,286.55,352.83Z"/><path class="cls-14" d="M321.65,361c-.46,18.52-17.06,33.13-37.07,32.62s-35.85-15.92-35.38-34.44,17.06-33.13,37.07-32.63S322.12,342.43,321.65,361ZM285.75,347c-7.77-.19-14.22,5.48-14.4,12.67s6,13.19,13.75,13.38,14.22-5.48,14.4-12.67S293.52,347.22,285.75,347Z"/><path class="cls-14" d="M321.65,361c-.46,18.52-17.06,33.13-37.07,32.62s-35.85-15.92-35.38-34.44,17.06-33.13,37.07-32.63S322.12,342.43,321.65,361ZM285.75,347c-7.77-.19-14.22,5.48-14.4,12.67s6,13.19,13.75,13.38,14.22-5.48,14.4-12.67S293.52,347.22,285.75,347Z"/><g class="cls-16"><path class="cls-14" d="M225.35,340c8.05-.89,9,8.08,17.09,7.18s7.06-9.86,15.12-10.75,9,8.07,17.09,7.18,7.06-9.86,15.12-10.75,9,8.07,17.1,7.18,7.06-9.86,15.11-10.76,9,8.07,17.11,7.18"/><path class="cls-14" d="M225.35,340c8.05-.89,9,8.08,17.09,7.18s7.06-9.86,15.12-10.75,9,8.07,17.09,7.18,7.06-9.86,15.12-10.75,9,8.07,17.1,7.18,7.06-9.86,15.11-10.76,9,8.07,17.11,7.18"/><path class="cls-14" d="M191.41,359.74c12.94-1,14.06,13.45,27,12.45s11.82-15.45,24.76-16.44,14.06,13.45,27,12.45,11.83-15.45,24.77-16.45,14.06,13.45,27,12.46,11.82-15.45,24.77-16.45,14.06,13.45,27,12.45"/><path class="cls-14" d="M191.41,359.74c12.94-1,14.06,13.45,27,12.45s11.82-15.45,24.76-16.44,14.06,13.45,27,12.45,11.83-15.45,24.77-16.45,14.06,13.45,27,12.46,11.82-15.45,24.77-16.45,14.06,13.45,27,12.45"/><path class="cls-14" d="M244.57,391.39c8-1.57,9.67,7.16,17.62,5.59s6.23-10.3,14.17-11.87,9.68,7.16,17.62,5.6,6.23-10.31,14.18-11.88,9.67,7.17,17.62,5.6S332,374.12,340,372.55s9.68,7.16,17.63,5.59"/><path class="cls-14" d="M244.57,391.39c8-1.57,9.67,7.16,17.62,5.59s6.23-10.3,14.17-11.87,9.68,7.16,17.62,5.6,6.23-10.31,14.18-11.88,9.67,7.17,17.62,5.6S332,374.12,340,372.55s9.68,7.16,17.63,5.59"/></g><ellipse class="cls-14" cx="285.39" cy="360.32" rx="13.29" ry="14.51" transform="translate(-82.56 635.8) rotate(-88.44)"/><ellipse class="cls-14" cx="285.39" cy="360.32" rx="13.29" ry="14.51" transform="translate(-82.56 635.8) rotate(-88.44)"/><ellipse class="cls-14" cx="284.91" cy="358.55" rx="17.82" ry="24.16" transform="translate(-81.27 633.6) rotate(-88.44)"/><ellipse class="cls-14" cx="284.91" cy="358.55" rx="17.82" ry="24.16" transform="translate(-81.27 633.6) rotate(-88.44)"/><path class="cls-14" d="M321.58,358c.48,2.86,2.85,18.78-7.39,30.57-12.93,14.87-39.7,16-54.4,1.09-10.23-10.34-13-26.81-7.34-41.77,2-2,14-14.07,32.47-13.4C309,335.35,321.05,357,321.58,358Zm-35-5.16c-7.8-.84-14.7,3.81-15.41,10.39s5.05,12.6,12.85,13.44,14.7-3.81,15.41-10.39S294.36,353.67,286.55,352.83Z"/><path class="cls-14" d="M321.58,358c.48,2.86,2.85,18.78-7.39,30.57-12.93,14.87-39.7,16-54.4,1.09-10.23-10.34-13-26.81-7.34-41.77,2-2,14-14.07,32.47-13.4C309,335.35,321.05,357,321.58,358Zm-35-5.16c-7.8-.84-14.7,3.81-15.41,10.39s5.05,12.6,12.85,13.44,14.7-3.81,15.41-10.39S294.36,353.67,286.55,352.83Z"/><path class="cls-14" d="M321.65,361c-.46,18.52-17.06,33.13-37.07,32.62s-35.85-15.92-35.38-34.44,17.06-33.13,37.07-32.63S322.12,342.43,321.65,361ZM285.75,347c-7.77-.19-14.22,5.48-14.4,12.67s6,13.19,13.75,13.38,14.22-5.48,14.4-12.67S293.52,347.22,285.75,347Z"/><path class="cls-14" d="M321.65,361c-.46,18.52-17.06,33.13-37.07,32.62s-35.85-15.92-35.38-34.44,17.06-33.13,37.07-32.63S322.12,342.43,321.65,361ZM285.75,347c-7.77-.19-14.22,5.48-14.4,12.67s6,13.19,13.75,13.38,14.22-5.48,14.4-12.67S293.52,347.22,285.75,347Z"/><g class="cls-16"><path class="cls-14" d="M225.35,340c8.05-.89,9,8.08,17.09,7.18s7.06-9.86,15.12-10.75,9,8.07,17.09,7.18,7.06-9.86,15.12-10.75,9,8.07,17.1,7.18,7.06-9.86,15.11-10.76,9,8.07,17.11,7.18"/><path class="cls-14" d="M225.35,340c8.05-.89,9,8.08,17.09,7.18s7.06-9.86,15.12-10.75,9,8.07,17.09,7.18,7.06-9.86,15.12-10.75,9,8.07,17.1,7.18,7.06-9.86,15.11-10.76,9,8.07,17.11,7.18"/><path class="cls-14" d="M191.41,359.74c12.94-1,14.06,13.45,27,12.45s11.82-15.45,24.76-16.44,14.06,13.45,27,12.45,11.83-15.45,24.77-16.45,14.06,13.45,27,12.46,11.82-15.45,24.77-16.45,14.06,13.45,27,12.45"/><path class="cls-14" d="M191.41,359.74c12.94-1,14.06,13.45,27,12.45s11.82-15.45,24.76-16.44,14.06,13.45,27,12.45,11.83-15.45,24.77-16.45,14.06,13.45,27,12.46,11.82-15.45,24.77-16.45,14.06,13.45,27,12.45"/><path class="cls-14" d="M244.57,391.39c8-1.57,9.67,7.16,17.62,5.59s6.23-10.3,14.17-11.87,9.68,7.16,17.62,5.6,6.23-10.31,14.18-11.88,9.67,7.17,17.62,5.6S332,374.12,340,372.55s9.68,7.16,17.63,5.59"/><path class="cls-14" d="M244.57,391.39c8-1.57,9.67,7.16,17.62,5.59s6.23-10.3,14.17-11.87,9.68,7.16,17.62,5.6,6.23-10.31,14.18-11.88,9.67,7.17,17.62,5.6S332,374.12,340,372.55s9.68,7.16,17.63,5.59"/></g><ellipse class="cls-14" cx="285.39" cy="360.32" rx="13.29" ry="14.51" transform="translate(-82.56 635.8) rotate(-88.44)"/><ellipse class="cls-14" cx="285.39" cy="360.32" rx="13.29" ry="14.51" transform="translate(-82.56 635.8) rotate(-88.44)"/></g><path class="cls-14" d="M371.68,331.62q-48.07,2.22-98.26,3.35-51.33,1.13-100.52.95"/><path class="cls-14" d="M371.68,331.62q-48.07,2.22-98.26,3.35-51.33,1.13-100.52.95"/><path class="cls-14" d="M207.28,42.66c-48,17.23-74,52.5-83.2,66.83C82,174.8,87.37,267.68,112.43,277.11a16.65,16.65,0,0,0,13.9-1.57c25.62-15.62,3.22-94.12,16.23-97.94,5.85-1.71,11.19,14.07,24.44,14,6.69,0,8.84-5.31,22.76-14.48,5.37-3.54,14.28-9.41,19.59-10.82,27.71-7.39,73,76,77.09,73.73,3.61-2-30.74-68.74-26.47-71.24,2.41-1.41,14.89,18.87,40.61,42.92,8.39,7.85,32,29.9,37.43,25.79,8.13-6.11-26.49-62.72-20.87-66.24,3.35-2.1,19.71,15.6,34,31,15,16.24,20.16,23.7,24.32,22.25,8.38-2.92,2.18-38.31,4.52-38.66,3.36-.52,10.76,72.58,20.5,73.14,7.14.42,33.5-67.11,6.77-132.3A151.75,151.75,0,0,0,359,63.9C292.62,13.54,211.84,41,207.28,42.66Z"/><path class="cls-14" d="M207.28,42.66c-48,17.23-74,52.5-83.2,66.83C82,174.8,87.37,267.68,112.43,277.11a16.65,16.65,0,0,0,13.9-1.57c25.62-15.62,3.22-94.12,16.23-97.94,5.85-1.71,11.19,14.07,24.44,14,6.69,0,8.84-5.31,22.76-14.48,5.37-3.54,14.28-9.41,19.59-10.82,27.71-7.39,73,76,77.09,73.73,3.61-2-30.74-68.74-26.47-71.24,2.41-1.41,14.89,18.87,40.61,42.92,8.39,7.85,32,29.9,37.43,25.79,8.13-6.11-26.49-62.72-20.87-66.24,3.35-2.1,19.71,15.6,34,31,15,16.24,20.16,23.7,24.32,22.25,8.38-2.92,2.18-38.31,4.52-38.66,3.36-.52,10.76,72.58,20.5,73.14,7.14.42,33.5-67.11,6.77-132.3A151.75,151.75,0,0,0,359,63.9C292.62,13.54,211.84,41,207.28,42.66Z"/><path class="cls-14" d="M208.1,309.24C206,313.39,198.72,326.57,183,333a47.2,47.2,0,0,1-19.17,3.42"/><path class="cls-14" d="M208.1,309.24C206,313.39,198.72,326.57,183,333a47.2,47.2,0,0,1-19.17,3.42"/><path class="cls-14" d="M326.42,306.2c2.25,4.08,10,17,26,22.77a47.33,47.33,0,0,0,19.29,2.68"/><path class="cls-14" d="M326.42,306.2c2.25,4.08,10,17,26,22.77a47.33,47.33,0,0,0,19.29,2.68"/><path class="cls-14" d="M164.15,336.42a30.58,30.58,0,0,1,24.52,28.1"/><path class="cls-14" d="M164.15,336.42a30.58,30.58,0,0,1,24.52,28.1"/><path class="cls-14" d="M371.25,332.11a31.21,31.21,0,0,0-19.45,7.6,30.89,30.89,0,0,0-9.55,15.84"/><path class="cls-14" d="M371.25,332.11a31.21,31.21,0,0,0-19.45,7.6,30.89,30.89,0,0,0-9.55,15.84"/><ellipse class="cls-14" cx="322.14" cy="83.86" rx="16.95" ry="47.97" transform="translate(95.08 327.27) rotate(-61.58)"/><ellipse class="cls-14" cx="322.14" cy="83.86" rx="16.95" ry="47.97" transform="translate(95.08 327.27) rotate(-61.58)"/><path class="cls-17" d="M132.72,164a119.58,119.58,0,0,0-13,27.93c-11.37,33.71-7.62,63.89-5.41,80.67,11.71,88.93,17.64,133.51,21.37,139.22,30.17,46.28,88.47,67.87,137.34,66.4,7.53-.23,85.81-3.6,113.7-54.46,1-1.9,1.65-3.24,2.75-5.53,12.37-25.89,12-53.07,11.29-107.43-.81-61.52-1.85-102-27.06-144.48-8.39-14.16-18.17-30.67-37.87-44.51-49.18-34.56-114.64-20.56-151.24-2.1C173.25,125.41,149.66,137.68,132.72,164Z"/><ellipse class="cls-18" cx="217.98" cy="273.05" rx="31.56" ry="32.08" transform="translate(-125.9 334.81) rotate(-61.58)"/><ellipse class="cls-19" cx="269.92" cy="424.98" rx="44.32" ry="45.24" transform="translate(-232.3 460.12) rotate(-61.58)"/><g class="cls-15"><g class="cls-20"><path class="cls-21" d="M226.76,334.1c-1.35,10.86-6,10.29-7.31,21.15s3.28,11.43,1.94,22.29-6,10.29-7.31,21.14,3.29,11.44,1.95,22.3-6,10.29-7.31,21.15,3.29,11.43,1.94,22.29"/></g><g class="cls-20"><path class="cls-21" d="M335,331.62c1.19,11.35-3.45,11.84-2.26,23.19s5.83,10.87,7,22.22-3.45,11.84-2.26,23.2,5.83,10.86,7,22.22-3.45,11.84-2.26,23.2,5.83,10.87,7,22.22"/></g></g><path class="cls-22" d="M132.72,164a119.58,119.58,0,0,0-13,27.93c-11.37,33.71-7.62,63.89-5.41,80.67,11.71,88.93,17.64,133.51,21.37,139.22,30.17,46.28,88.47,67.87,137.34,66.4,7.53-.23,85.81-3.6,113.7-54.46,1-1.9,1.65-3.24,2.75-5.53,12.37-25.89,12-53.07,11.29-107.43-.81-61.52-1.85-102-27.06-144.48-8.39-14.16-18.17-30.67-37.87-44.51-49.18-34.56-114.64-20.56-151.24-2.1C173.25,125.41,149.66,137.68,132.72,164Z"/><circle class="cls-23" cx="216.37" cy="258.98" r="26.07"/><circle class="cls-24" cx="216.37" cy="258.98" r="26.07"/><ellipse class="cls-18" cx="334.45" cy="264.53" rx="31.56" ry="32.08" transform="translate(-57.37 432.78) rotate(-61.58)"/><ellipse class="cls-23" cx="335.49" cy="254.22" rx="23.93" ry="24.33" transform="translate(-47.76 428.29) rotate(-61.58)"/><ellipse class="cls-25" cx="335.49" cy="254.22" rx="23.93" ry="24.33" transform="translate(-47.76 428.29) rotate(-61.58)"/><circle class="cls-26" cx="204.2" cy="259.8" r="4.43"/><circle class="cls-26" cx="346.11" cy="257.04" r="4.43"/><path class="cls-27" d="M217.92,206a31.61,31.61,0,0,0-20.85,2.74c-11.76,6.1-15.17,17.58-15.72,19.56"/><path class="cls-27" d="M329.14,206.06a29.94,29.94,0,0,1,37.11,4.46"/><g class="cls-28"><path class="cls-19" d="M178.67,338.05l173.71-3.63L343,353s-43.94-2.94-76-3.51-77.26,5.82-77.26,5.82Z"/></g><g class="cls-13"><ellipse class="cls-29" cx="284.91" cy="358.55" rx="17.82" ry="24.16" transform="translate(-81.27 633.6) rotate(-88.44)"/><ellipse class="cls-29" cx="284.91" cy="358.55" rx="17.82" ry="24.16" transform="translate(-81.27 633.6) rotate(-88.44)"/><path class="cls-29" d="M321.58,358c.48,2.86,2.85,18.78-7.39,30.57-12.93,14.87-39.7,16-54.4,1.09-10.23-10.34-13-26.81-7.34-41.77,2-2,14-14.07,32.47-13.4C309,335.35,321.05,357,321.58,358Zm-35-5.16c-7.8-.84-14.7,3.81-15.41,10.39s5.05,12.6,12.85,13.44,14.7-3.81,15.41-10.39S294.36,353.67,286.55,352.83Z"/><path class="cls-29" d="M321.58,358c.48,2.86,2.85,18.78-7.39,30.57-12.93,14.87-39.7,16-54.4,1.09-10.23-10.34-13-26.81-7.34-41.77,2-2,14-14.07,32.47-13.4C309,335.35,321.05,357,321.58,358Zm-35-5.16c-7.8-.84-14.7,3.81-15.41,10.39s5.05,12.6,12.85,13.44,14.7-3.81,15.41-10.39S294.36,353.67,286.55,352.83Z"/><path class="cls-29" d="M321.65,361c-.46,18.52-17.06,33.13-37.07,32.62s-35.85-15.92-35.38-34.44,17.06-33.13,37.07-32.63S322.12,342.43,321.65,361ZM285.75,347c-7.77-.19-14.22,5.48-14.4,12.67s6,13.19,13.75,13.38,14.22-5.48,14.4-12.67S293.52,347.22,285.75,347Z"/><path class="cls-29" d="M321.65,361c-.46,18.52-17.06,33.13-37.07,32.62s-35.85-15.92-35.38-34.44,17.06-33.13,37.07-32.63S322.12,342.43,321.65,361ZM285.75,347c-7.77-.19-14.22,5.48-14.4,12.67s6,13.19,13.75,13.38,14.22-5.48,14.4-12.67S293.52,347.22,285.75,347Z"/><g class="cls-16"><path class="cls-29" d="M225.35,340c8.05-.89,9,8.08,17.09,7.18s7.06-9.86,15.12-10.75,9,8.07,17.09,7.18,7.06-9.86,15.12-10.75,9,8.07,17.1,7.18,7.06-9.86,15.11-10.76,9,8.07,17.11,7.18"/><path class="cls-29" d="M225.35,340c8.05-.89,9,8.08,17.09,7.18s7.06-9.86,15.12-10.75,9,8.07,17.09,7.18,7.06-9.86,15.12-10.75,9,8.07,17.1,7.18,7.06-9.86,15.11-10.76,9,8.07,17.11,7.18"/><path class="cls-29" d="M191.41,359.74c12.94-1,14.06,13.45,27,12.45s11.82-15.45,24.76-16.44,14.06,13.45,27,12.45,11.83-15.45,24.77-16.45,14.06,13.45,27,12.46,11.82-15.45,24.77-16.45,14.06,13.45,27,12.45"/><path class="cls-29" d="M191.41,359.74c12.94-1,14.06,13.45,27,12.45s11.82-15.45,24.76-16.44,14.06,13.45,27,12.45,11.83-15.45,24.77-16.45,14.06,13.45,27,12.46,11.82-15.45,24.77-16.45,14.06,13.45,27,12.45"/><path class="cls-29" d="M244.57,391.39c8-1.57,9.67,7.16,17.62,5.59s6.23-10.3,14.17-11.87,9.68,7.16,17.62,5.6,6.23-10.31,14.18-11.88,9.67,7.17,17.62,5.6S332,374.12,340,372.55s9.68,7.16,17.63,5.59"/><path class="cls-29" d="M244.57,391.39c8-1.57,9.67,7.16,17.62,5.59s6.23-10.3,14.17-11.87,9.68,7.16,17.62,5.6,6.23-10.31,14.18-11.88,9.67,7.17,17.62,5.6S332,374.12,340,372.55s9.68,7.16,17.63,5.59"/></g><ellipse class="cls-29" cx="285.39" cy="360.32" rx="13.29" ry="14.51" transform="translate(-82.56 635.8) rotate(-88.44)"/><ellipse class="cls-29" cx="285.39" cy="360.32" rx="13.29" ry="14.51" transform="translate(-82.56 635.8) rotate(-88.44)"/><ellipse class="cls-17" cx="284.91" cy="358.55" rx="17.82" ry="24.16" transform="translate(-81.27 633.6) rotate(-88.44)"/><path class="cls-30" d="M321.58,358c.48,2.86,2.85,18.78-7.39,30.57-12.93,14.87-39.7,16-54.4,1.09-10.23-10.34-13-26.81-7.34-41.77,2-2,14-14.07,32.47-13.4C309,335.35,321.05,357,321.58,358Zm-35-5.16c-7.8-.84-14.7,3.81-15.41,10.39s5.05,12.6,12.85,13.44,14.7-3.81,15.41-10.39S294.36,353.67,286.55,352.83Z"/><path class="cls-31" d="M321.65,361c-.46,18.52-17.06,33.13-37.07,32.62s-35.85-15.92-35.38-34.44,17.06-33.13,37.07-32.63S322.12,342.43,321.65,361ZM285.75,347c-7.77-.19-14.22,5.48-14.4,12.67s6,13.19,13.75,13.38,14.22-5.48,14.4-12.67S293.52,347.22,285.75,347Z"/><g class="cls-16"><path class="cls-32" d="M225.35,340c8.05-.89,9,8.08,17.09,7.18s7.06-9.86,15.12-10.75,9,8.07,17.09,7.18,7.06-9.86,15.12-10.75,9,8.07,17.1,7.18,7.06-9.86,15.11-10.76,9,8.07,17.11,7.18"/><path class="cls-32" d="M191.41,359.74c12.94-1,14.06,13.45,27,12.45s11.82-15.45,24.76-16.44,14.06,13.45,27,12.45,11.83-15.45,24.77-16.45,14.06,13.45,27,12.46,11.82-15.45,24.77-16.45,14.06,13.45,27,12.45"/><path class="cls-32" d="M244.57,391.39c8-1.57,9.67,7.16,17.62,5.59s6.23-10.3,14.17-11.87,9.68,7.16,17.62,5.6,6.23-10.31,14.18-11.88,9.67,7.17,17.62,5.6S332,374.12,340,372.55s9.68,7.16,17.63,5.59"/></g><ellipse class="cls-33" cx="285.39" cy="360.32" rx="13.29" ry="14.51" transform="translate(-82.56 635.8) rotate(-88.44)"/></g><path class="cls-34" d="M371.68,331.62q-48.07,2.22-98.26,3.35-51.33,1.13-100.52.95"/><path class="cls-26" d="M207.28,42.66c-48,17.23-74,52.5-83.2,66.83C82,174.8,87.37,267.68,112.43,277.11a16.65,16.65,0,0,0,13.9-1.57c25.62-15.62,3.22-94.12,16.23-97.94,5.85-1.71,11.19,14.07,24.44,14,6.69,0,8.84-5.31,22.76-14.48,5.37-3.54,14.28-9.41,19.59-10.82,27.71-7.39,73,76,77.09,73.73,3.61-2-30.74-68.74-26.47-71.24,2.41-1.41,14.89,18.87,40.61,42.92,8.39,7.85,32,29.9,37.43,25.79,8.13-6.11-26.49-62.72-20.87-66.24,3.35-2.1,19.71,15.6,34,31,15,16.24,20.16,23.7,24.32,22.25,8.38-2.92,2.18-38.31,4.52-38.66,3.36-.52,10.76,72.58,20.5,73.14,7.14.42,33.5-67.11,6.77-132.3A151.75,151.75,0,0,0,359,63.9C292.62,13.54,211.84,41,207.28,42.66Z"/><path class="cls-35" d="M207.28,42.66c-48,17.23-74,52.5-83.2,66.83C82,174.8,87.37,267.68,112.43,277.11a16.65,16.65,0,0,0,13.9-1.57c25.62-15.62,3.22-94.12,16.23-97.94,5.85-1.71,11.19,14.07,24.44,14,6.69,0,8.84-5.31,22.76-14.48,5.37-3.54,14.28-9.41,19.59-10.82,27.71-7.39,73,76,77.09,73.73,3.61-2-30.74-68.74-26.47-71.24,2.41-1.41,14.89,18.87,40.61,42.92,8.39,7.85,32,29.9,37.43,25.79,8.13-6.11-26.49-62.72-20.87-66.24,3.35-2.1,19.71,15.6,34,31,15,16.24,20.16,23.7,24.32,22.25,8.38-2.92,2.18-38.31,4.52-38.66,3.36-.52,10.76,72.58,20.5,73.14,7.14.42,33.5-67.11,6.77-132.3A151.75,151.75,0,0,0,359,63.9C292.62,13.54,211.84,41,207.28,42.66Z"/><path class="cls-34" d="M208.1,309.24C206,313.39,198.72,326.57,183,333a47.2,47.2,0,0,1-19.17,3.42"/><path class="cls-34" d="M326.42,306.2c2.25,4.08,10,17,26,22.77a47.33,47.33,0,0,0,19.29,2.68"/><path class="cls-34" d="M164.15,336.42a30.58,30.58,0,0,1,24.52,28.1"/><path class="cls-34" d="M371.25,332.11a31.21,31.21,0,0,0-19.45,7.6,30.89,30.89,0,0,0-9.55,15.84"/><ellipse class="cls-23" cx="322.14" cy="83.86" rx="16.95" ry="47.97" transform="translate(95.08 327.27) rotate(-61.58)"/></g></g></svg>