<svg id="Layer_1" data-name="Layer 1" xmlns="http://www.w3.org/2000/svg" xmlns:xlink="http://www.w3.org/1999/xlink" viewBox="0 0 512 512"><defs><style>.cls-1,.cls-10,.cls-11,.cls-13,.cls-14,.cls-4{fill:none;}.cls-2{fill:#e88bc7;}.cls-3{clip-path:url(#clip-path);}.cls-4{stroke:#fff;stroke-linejoin:round;stroke-width:25.51px;}.cls-5{fill:#c6c6c6;}.cls-6{fill:#e5e5e5;}.cls-7{fill:#fff;}.cls-8{fill:#e1ad7f;}.cls-9{fill:#ffca98;}.cls-10,.cls-11,.cls-13,.cls-14{stroke:#6c517a;stroke-miterlimit:10;}.cls-10{stroke-width:7.94px;}.cls-11,.cls-14{stroke-width:4.99px;}.cls-12{fill:#6c517a;}.cls-13{stroke-width:4.61px;}.cls-14{stroke-linecap:round;}.cls-15{opacity:0.6;}.cls-16{fill:#e84383;}.cls-17{fill:#b5416b;}</style><clipPath id="clip-path"><rect class="cls-1" x="-532" width="512" height="512"/></clipPath></defs><rect class="cls-2" width="512" height="512"/><g class="cls-3"><rect class="cls-4" x="-267.75" y="215.01" width="395.95" height="301.94"/><rect class="cls-4" x="-258.95" y="211.3" width="455.69" height="87.99"/><rect class="cls-4" x="-258.95" y="311.33" width="455.69" height="88.67"/><rect class="cls-4" x="-258.95" y="412.29" width="455.69" height="93.08"/><rect class="cls-5" x="-267.75" y="215.01" width="395.95" height="301.94"/><rect class="cls-6" x="-258.95" y="211.3" width="455.69" height="87.99"/><rect class="cls-6" x="-258.95" y="311.33" width="455.69" height="88.67"/><rect class="cls-6" x="-258.95" y="412.29" width="455.69" height="93.08"/></g><path class="cls-7" d="M254.61,376.19c-11.94,0-24.26-1.08-39.42-2.42-12-1.06-18.05-1.59-22.76-3.66-14.44-6.33-26.55-22.51-33.24-44.39-7.27-23.8-9-58.72,7.82-85.38,14.31-22.6,40.54-36.92,73.88-40.3,42.26-4.3,87.55,10.37,112.71,36.49,15,15.62,37.35,50,25.56,79.85-4.81,12.15-13.44,18.75-25.39,27.88-29,22.21-59.73,27.62-69.82,29.4A165.07,165.07,0,0,1,254.61,376.19ZM256,219.12a129.74,129.74,0,0,0-13.08.66c-27.15,2.76-48.14,13.83-59.12,31.17s-13.14,44.36-5.61,69c4.92,16.1,13.23,28.08,22.23,32h0c1.73.76,8.91,1.39,16.51,2.06,25.8,2.27,42.84,3.78,63.6.12,9.84-1.74,36-6.35,61.21-25.62,11.53-8.81,16.31-12.66,19-19.42,7.52-19-8.67-45.58-21.39-58.78C320.67,230.94,288.37,219.12,256,219.12Z"/><path class="cls-7" d="M254.61,376.19c-11.94,0-24.26-1.08-39.42-2.42-12-1.06-18.05-1.59-22.76-3.66-14.44-6.33-26.55-22.51-33.24-44.39-7.27-23.8-9-58.72,7.82-85.38,14.31-22.6,40.54-36.92,73.88-40.3,42.26-4.3,87.55,10.37,112.71,36.49,15,15.62,37.35,50,25.56,79.85-4.81,12.15-13.44,18.75-25.39,27.88-29,22.21-59.73,27.62-69.82,29.4A165.07,165.07,0,0,1,254.61,376.19ZM256,219.12a129.74,129.74,0,0,0-13.08.66c-27.15,2.76-48.14,13.83-59.12,31.17s-13.14,44.36-5.61,69c4.92,16.1,13.23,28.08,22.23,32h0c1.73.76,8.91,1.39,16.51,2.06,25.8,2.27,42.84,3.78,63.6.12,9.84-1.74,36-6.35,61.21-25.62,11.53-8.81,16.31-12.66,19-19.42,7.52-19-8.67-45.58-21.39-58.78C320.67,230.94,288.37,219.12,256,219.12Z"/><path class="cls-7" d="M231.41,360.89c-10.2,0-17.69-2.57-24-4.74-7.83-2.68-13.49-4.62-23.55-2l-1.95.52c-7.89,2.16-22.58,6.18-32.28-3a20,20,0,0,1-4.26-5.93l0-.08c-5.45-9-12.4-24.91-30.95-104.67-4.28-18.37-9.12-39.2-4.09-65a99.71,99.71,0,0,1,7.71-24.5c11.39-24.25,29.83-36.87,37.7-42.25A150.51,150.51,0,0,1,210.57,86.5c25-4.74,48.69-1.78,68.58,8.57,18,9.37,28,22,36,32.15a96.32,96.32,0,0,1,10,15.05c10.37,19.7,14.08,38.28,18,57.95,2.27,11.36,4.62,23.1,8.39,35.57a175,175,0,0,0,15.72,36.47c6.25,11.44,11.64,21.31,6.59,35.6-9.78,27.7-44.32,35.44-48.22,36.23a50.13,50.13,0,0,1-23.69-.37,40.15,40.15,0,0,0-16.35-.85c-9.62,1.25-13.62,3.87-18.68,7.17-5.64,3.69-12,7.87-24.53,9.92A67.23,67.23,0,0,1,231.41,360.89Zm-86-15h0Zm47.25-12.8c8.5,0,15.09,2.26,21.13,4.33,7.57,2.59,14.1,4.83,25.28,3,8.35-1.37,12.12-3.83,16.88-6.95,6-3.93,12.85-8.39,27-10.24a60,60,0,0,1,23.18,1.14c4.75,1.05,8.18,1.8,15.49.32,7.55-1.53,28.28-8.72,33.47-23.4,1.93-5.46.88-8.15-5.3-19.47a195.3,195.3,0,0,1-17.3-40.24c-4.05-13.39-6.49-25.61-8.86-37.43-3.8-19-7.08-35.44-16.1-52.6a78.68,78.68,0,0,0-8-12C292,130,284.21,120.07,270,112.67,232.24,93,187.42,111.56,166.9,125.6c-6.54,4.48-21.86,15-31,34.32h0a80.37,80.37,0,0,0-6.19,19.86c-4.22,21.62-.08,39.45,3.93,56.7,17.18,73.84,23.95,91.25,28.71,99,.2.33.44.78.71,1.33l.22.42c1.47.83,6,.24,13.34-1.78.81-.22,1.57-.43,2.25-.6A55.07,55.07,0,0,1,192.7,333.05Zm-29.3,4.35ZM127,155.7h0Z"/><path class="cls-7" d="M231.41,360.89c-10.2,0-17.69-2.57-24-4.74-7.83-2.68-13.49-4.62-23.55-2l-1.95.52c-7.89,2.16-22.58,6.18-32.28-3a20,20,0,0,1-4.26-5.93l0-.08c-5.45-9-12.4-24.91-30.95-104.67-4.28-18.37-9.12-39.2-4.09-65a99.71,99.71,0,0,1,7.71-24.5c11.39-24.25,29.83-36.87,37.7-42.25A150.51,150.51,0,0,1,210.57,86.5c25-4.74,48.69-1.78,68.58,8.57,18,9.37,28,22,36,32.15a96.32,96.32,0,0,1,10,15.05c10.37,19.7,14.08,38.28,18,57.95,2.27,11.36,4.62,23.1,8.39,35.57a175,175,0,0,0,15.72,36.47c6.25,11.44,11.64,21.31,6.59,35.6-9.78,27.7-44.32,35.44-48.22,36.23a50.13,50.13,0,0,1-23.69-.37,40.15,40.15,0,0,0-16.35-.85c-9.62,1.25-13.62,3.87-18.68,7.17-5.64,3.69-12,7.87-24.53,9.92A67.23,67.23,0,0,1,231.41,360.89Zm-86-15h0Zm47.25-12.8c8.5,0,15.09,2.26,21.13,4.33,7.57,2.59,14.1,4.83,25.28,3,8.35-1.37,12.12-3.83,16.88-6.95,6-3.93,12.85-8.39,27-10.24a60,60,0,0,1,23.18,1.14c4.75,1.05,8.18,1.8,15.49.32,7.55-1.53,28.28-8.72,33.47-23.4,1.93-5.46.88-8.15-5.3-19.47a195.3,195.3,0,0,1-17.3-40.24c-4.05-13.39-6.49-25.61-8.86-37.43-3.8-19-7.08-35.44-16.1-52.6a78.68,78.68,0,0,0-8-12C292,130,284.21,120.07,270,112.67,232.24,93,187.42,111.56,166.9,125.6c-6.54,4.48-21.86,15-31,34.32h0a80.37,80.37,0,0,0-6.19,19.86c-4.22,21.62-.08,39.45,3.93,56.7,17.18,73.84,23.95,91.25,28.71,99,.2.33.44.78.71,1.33l.22.42c1.47.83,6,.24,13.34-1.78.81-.22,1.57-.43,2.25-.6A55.07,55.07,0,0,1,192.7,333.05Zm-29.3,4.35ZM127,155.7h0Z"/><path class="cls-7" d="M142.18,278.79a29.46,29.46,0,0,1-8.25-1.14c-15.12-4.44-28-23.08-34.39-49.84C92.16,197,93.1,152.07,120,126.65c15.41-14.54,37.73-20.78,51.79-19.43,9.34.9,14,4.89,16.31,8.07,7,9.75,0,19.65-6.17,28.38-6.4,9.06-14.35,20.33-16.5,36.48s2.7,29.21,7,40.83c5,13.71,10.24,27.89.75,41.64h0C166.3,272.57,153.81,278.79,142.18,278.79Zm26.07-151.92c-7.93,0-23.44,3.69-34.59,14.21-19.44,18.35-21.45,54.46-14.83,82.11,5.2,21.69,14.38,33.56,20.7,35.42,5.25,1.55,13.67-2,17.32-7.27h0c3.32-4.81,1.71-10.56-3-23.53s-10.79-29.37-8-50.27,13.12-35.63,20-45.31c1.16-1.65,2.56-3.63,3.66-5.33Q168.87,126.87,168.25,126.87Zm4.5.73Z"/><path class="cls-7" d="M142.18,278.79a29.46,29.46,0,0,1-8.25-1.14c-15.12-4.44-28-23.08-34.39-49.84C92.16,197,93.1,152.07,120,126.65c15.41-14.54,37.73-20.78,51.79-19.43,9.34.9,14,4.89,16.31,8.07,7,9.75,0,19.65-6.17,28.38-6.4,9.06-14.35,20.33-16.5,36.48s2.7,29.21,7,40.83c5,13.71,10.24,27.89.75,41.64h0C166.3,272.57,153.81,278.79,142.18,278.79Zm26.07-151.92c-7.93,0-23.44,3.69-34.59,14.21-19.44,18.35-21.45,54.46-14.83,82.11,5.2,21.69,14.38,33.56,20.7,35.42,5.25,1.55,13.67-2,17.32-7.27h0c3.32-4.81,1.71-10.56-3-23.53s-10.79-29.37-8-50.27,13.12-35.63,20-45.31c1.16-1.65,2.56-3.63,3.66-5.33Q168.87,126.87,168.25,126.87Zm4.5.73Z"/><path class="cls-7" d="M334.51,229.85c-11.55,0-16.44-12.47-22.08-26.82-6.56-16.69-15.53-39.55-34.92-52.81-9.64-6.6-21.27-10.49-34.58-11.56a9.93,9.93,0,0,1-9.12-10.17c.52-18.75,5.6-30.44,15.51-35.73,17.64-9.42,43.31,6.4,53.53,13.63a152.06,152.06,0,0,1,39.3,40.76c11.86,18.49,16.8,37,14.28,53.41-.72,4.68-5.08,28.06-20.65,29.24h0C335.35,229.83,334.92,229.85,334.51,229.85Zm.52-9.95h0Zm-80.6-99.75a86.82,86.82,0,0,1,34.29,13.7c24.42,16.7,35.11,43.92,42.18,61.92,1.18,3,2.6,6.61,3.91,9.6a41.45,41.45,0,0,0,2-7.82c3.88-25.33-19.92-56.89-45.44-75-17.47-12.38-29.34-14.13-32.71-12.33C257.17,111.06,255.44,114.12,254.43,120.15Z"/><path class="cls-7" d="M334.51,229.85c-11.55,0-16.44-12.47-22.08-26.82-6.56-16.69-15.53-39.55-34.92-52.81-9.64-6.6-21.27-10.49-34.58-11.56a9.93,9.93,0,0,1-9.12-10.17c.52-18.75,5.6-30.44,15.51-35.73,17.64-9.42,43.31,6.4,53.53,13.63a152.06,152.06,0,0,1,39.3,40.76c11.86,18.49,16.8,37,14.28,53.41-.72,4.68-5.08,28.06-20.65,29.24h0C335.35,229.83,334.92,229.85,334.51,229.85Zm.52-9.95h0Zm-80.6-99.75a86.82,86.82,0,0,1,34.29,13.7c24.42,16.7,35.11,43.92,42.18,61.92,1.18,3,2.6,6.61,3.91,9.6a41.45,41.45,0,0,0,2-7.82c3.88-25.33-19.92-56.89-45.44-75-17.47-12.38-29.34-14.13-32.71-12.33C257.17,111.06,255.44,114.12,254.43,120.15Z"/><path class="cls-7" d="M181,268.19a28,28,0,1,1,25.51-39.48,27.62,27.62,0,0,1,.75,21.51h0A28,28,0,0,1,181,268.19ZM180.68,232a8.15,8.15,0,0,0-7.69,5.17,8.44,8.44,0,0,0,15.76,6h0a7.91,7.91,0,0,0-.23-6.18,8.55,8.55,0,0,0-4.76-4.42A8.76,8.76,0,0,0,180.68,232ZM198,246.69h0Z"/><path class="cls-7" d="M181,268.19a28,28,0,1,1,25.51-39.48,27.62,27.62,0,0,1,.75,21.51h0A28,28,0,0,1,181,268.19ZM180.68,232a8.15,8.15,0,0,0-7.69,5.17,8.44,8.44,0,0,0,15.76,6h0a7.91,7.91,0,0,0-.23-6.18,8.55,8.55,0,0,0-4.76-4.42A8.76,8.76,0,0,0,180.68,232ZM198,246.69h0Z"/><path class="cls-7" d="M179.15,259.16a29.61,29.61,0,1,1,27.64-19.1h0a29.66,29.66,0,0,1-27.64,19.1Zm0-39.35a9.74,9.74,0,0,0-3.47,18.85A9.75,9.75,0,0,0,188.25,233h0a9.75,9.75,0,0,0-9.1-13.2Z"/><path class="cls-7" d="M179.15,259.16a29.61,29.61,0,1,1,27.64-19.1h0a29.66,29.66,0,0,1-27.64,19.1Zm0-39.35a9.74,9.74,0,0,0-3.47,18.85A9.75,9.75,0,0,0,188.25,233h0a9.75,9.75,0,0,0-9.1-13.2Z"/><path class="cls-7" d="M181.18,243.24a13.36,13.36,0,0,1-4.72-.87,13.26,13.26,0,1,1,17.11-7.69h0a13.27,13.27,0,0,1-12.39,8.56ZM175,227.63a6.58,6.58,0,1,0,12.29,4.68l-3-1.15,3,1.15h0A6.58,6.58,0,0,0,175,227.64Z"/><path class="cls-7" d="M181.18,243.24a13.36,13.36,0,0,1-4.72-.87,13.26,13.26,0,1,1,17.11-7.69h0a13.27,13.27,0,0,1-12.39,8.56ZM175,227.63a6.58,6.58,0,1,0,12.29,4.68l-3-1.15,3,1.15h0A6.58,6.58,0,0,0,175,227.64Z"/><path class="cls-7" d="M181,268.19a28,28,0,1,1,25.51-39.48,27.62,27.62,0,0,1,.75,21.51h0A28,28,0,0,1,181,268.19ZM180.68,232a8.15,8.15,0,0,0-7.69,5.17,8.44,8.44,0,0,0,15.76,6h0a7.91,7.91,0,0,0-.23-6.18,8.55,8.55,0,0,0-4.76-4.42A8.76,8.76,0,0,0,180.68,232ZM198,246.69h0Z"/><path class="cls-7" d="M181,268.19a28,28,0,1,1,25.51-39.48,27.62,27.62,0,0,1,.75,21.51h0A28,28,0,0,1,181,268.19ZM180.68,232a8.15,8.15,0,0,0-7.69,5.17,8.44,8.44,0,0,0,15.76,6h0a7.91,7.91,0,0,0-.23-6.18,8.55,8.55,0,0,0-4.76-4.42A8.76,8.76,0,0,0,180.68,232ZM198,246.69h0Z"/><path class="cls-7" d="M179.15,259.16a29.61,29.61,0,1,1,27.64-19.1h0a29.66,29.66,0,0,1-27.64,19.1Zm0-39.35a9.74,9.74,0,0,0-3.47,18.85A9.75,9.75,0,0,0,188.25,233h0a9.75,9.75,0,0,0-9.1-13.2Z"/><path class="cls-7" d="M179.15,259.16a29.61,29.61,0,1,1,27.64-19.1h0a29.66,29.66,0,0,1-27.64,19.1Zm0-39.35a9.74,9.74,0,0,0-3.47,18.85A9.75,9.75,0,0,0,188.25,233h0a9.75,9.75,0,0,0-9.1-13.2Z"/><path class="cls-7" d="M181.18,243.24a13.36,13.36,0,0,1-4.72-.87,13.26,13.26,0,1,1,17.11-7.69h0a13.27,13.27,0,0,1-12.39,8.56ZM175,227.63a6.58,6.58,0,1,0,12.29,4.68l-3-1.15,3,1.15h0A6.58,6.58,0,0,0,175,227.64Z"/><path class="cls-7" d="M181.18,243.24a13.36,13.36,0,0,1-4.72-.87,13.26,13.26,0,1,1,17.11-7.69h0a13.27,13.27,0,0,1-12.39,8.56ZM175,227.63a6.58,6.58,0,1,0,12.29,4.68l-3-1.15,3,1.15h0A6.58,6.58,0,0,0,175,227.64Z"/><path class="cls-7" d="M181,268.19a28,28,0,1,1,25.51-39.48,27.62,27.62,0,0,1,.75,21.51h0A28,28,0,0,1,181,268.19ZM180.68,232a8.15,8.15,0,0,0-7.69,5.17,8.44,8.44,0,0,0,15.76,6h0a7.91,7.91,0,0,0-.23-6.18,8.55,8.55,0,0,0-4.76-4.42A8.76,8.76,0,0,0,180.68,232ZM198,246.69h0Z"/><path class="cls-7" d="M181,268.19a28,28,0,1,1,25.51-39.48,27.62,27.62,0,0,1,.75,21.51h0A28,28,0,0,1,181,268.19ZM180.68,232a8.15,8.15,0,0,0-7.69,5.17,8.44,8.44,0,0,0,15.76,6h0a7.91,7.91,0,0,0-.23-6.18,8.55,8.55,0,0,0-4.76-4.42A8.76,8.76,0,0,0,180.68,232ZM198,246.69h0Z"/><path class="cls-7" d="M179.15,259.16a29.61,29.61,0,1,1,27.64-19.1h0a29.66,29.66,0,0,1-27.64,19.1Zm0-39.35a9.74,9.74,0,0,0-3.47,18.85A9.75,9.75,0,0,0,188.25,233h0a9.75,9.75,0,0,0-9.1-13.2Z"/><path class="cls-7" d="M179.15,259.16a29.61,29.61,0,1,1,27.64-19.1h0a29.66,29.66,0,0,1-27.64,19.1Zm0-39.35a9.74,9.74,0,0,0-3.47,18.85A9.75,9.75,0,0,0,188.25,233h0a9.75,9.75,0,0,0-9.1-13.2Z"/><path class="cls-7" d="M181.18,243.24a13.36,13.36,0,0,1-4.72-.87,13.26,13.26,0,1,1,17.11-7.69h0a13.27,13.27,0,0,1-12.39,8.56ZM175,227.63a6.58,6.58,0,1,0,12.29,4.68l-3-1.15,3,1.15h0A6.58,6.58,0,0,0,175,227.64Z"/><path class="cls-7" d="M181.18,243.24a13.36,13.36,0,0,1-4.72-.87,13.26,13.26,0,1,1,17.11-7.69h0a13.27,13.27,0,0,1-12.39,8.56ZM175,227.63a6.58,6.58,0,1,0,12.29,4.68l-3-1.15,3,1.15h0A6.58,6.58,0,0,0,175,227.64Z"/><path class="cls-7" d="M312.41,240.27a28.49,28.49,0,0,1-25.85-16.55,27.59,27.59,0,0,1-.75-21.5,28.34,28.34,0,0,1,52.11-1.42,27.63,27.63,0,0,1,.75,21.5A28,28,0,0,1,312.41,240.27ZM312,204.09a8.15,8.15,0,0,0-7.68,5.17,7.9,7.9,0,0,0,.23,6.18,8.48,8.48,0,0,0,4.76,4.42,8.3,8.3,0,0,0,10.77-4.61h0a7.92,7.92,0,0,0-.23-6.17,8.7,8.7,0,0,0-7.85-5Z"/><path class="cls-7" d="M312.41,240.27a28.49,28.49,0,0,1-25.85-16.55,27.59,27.59,0,0,1-.75-21.5,28.34,28.34,0,0,1,52.11-1.42,27.63,27.63,0,0,1,.75,21.5A28,28,0,0,1,312.41,240.27ZM312,204.09a8.15,8.15,0,0,0-7.68,5.17,7.9,7.9,0,0,0,.23,6.18,8.48,8.48,0,0,0,4.76,4.42,8.3,8.3,0,0,0,10.77-4.61h0a7.92,7.92,0,0,0-.23-6.17,8.7,8.7,0,0,0-7.85-5Z"/><path class="cls-7" d="M312.19,232.47A28.61,28.61,0,0,1,302,230.6,28,28,0,1,1,337.66,193a27.76,27.76,0,0,1-14.09,37.08A28.22,28.22,0,0,1,312.19,232.47Zm-.4-36.19a8.15,8.15,0,0,0-7.69,5.17,8.3,8.3,0,0,0,5,10.6,8.56,8.56,0,0,0,6.5-.14,7.94,7.94,0,0,0,4.27-4.47h0a7.92,7.92,0,0,0-.23-6.17,8.67,8.67,0,0,0-7.84-5Z"/><path class="cls-7" d="M312.19,232.47A28.61,28.61,0,0,1,302,230.6,28,28,0,1,1,337.66,193a27.76,27.76,0,0,1-14.09,37.08A28.22,28.22,0,0,1,312.19,232.47Zm-.4-36.19a8.15,8.15,0,0,0-7.69,5.17,8.3,8.3,0,0,0,5,10.6,8.56,8.56,0,0,0,6.5-.14,7.94,7.94,0,0,0,4.27-4.47h0a7.92,7.92,0,0,0-.23-6.17,8.67,8.67,0,0,0-7.84-5Z"/><path class="cls-7" d="M311.18,218.85a13.27,13.27,0,0,1-12.38-18,13.26,13.26,0,0,1,24.8,9.42h0A13.3,13.3,0,0,1,311.18,218.85Zm-6.13-15.6a6.58,6.58,0,1,0,12.15-.36,6.67,6.67,0,0,0-3.66-3.46,6.59,6.59,0,0,0-8.49,3.81l9.27,3.53Z"/><path class="cls-7" d="M311.18,218.85a13.27,13.27,0,0,1-12.38-18,13.26,13.26,0,0,1,24.8,9.42h0A13.3,13.3,0,0,1,311.18,218.85Zm-6.13-15.6a6.58,6.58,0,1,0,12.15-.36,6.67,6.67,0,0,0-3.66-3.46,6.59,6.59,0,0,0-8.49,3.81l9.27,3.53Z"/><path class="cls-7" d="M312.41,240.27a28.49,28.49,0,0,1-25.85-16.55,27.59,27.59,0,0,1-.75-21.5,28.34,28.34,0,0,1,52.11-1.42,27.63,27.63,0,0,1,.75,21.5A28,28,0,0,1,312.41,240.27ZM312,204.09a8.15,8.15,0,0,0-7.68,5.17,7.9,7.9,0,0,0,.23,6.18,8.48,8.48,0,0,0,4.76,4.42,8.3,8.3,0,0,0,10.77-4.61h0a7.92,7.92,0,0,0-.23-6.17,8.7,8.7,0,0,0-7.85-5Z"/><path class="cls-7" d="M312.41,240.27a28.49,28.49,0,0,1-25.85-16.55,27.59,27.59,0,0,1-.75-21.5,28.34,28.34,0,0,1,52.11-1.42,27.63,27.63,0,0,1,.75,21.5A28,28,0,0,1,312.41,240.27ZM312,204.09a8.15,8.15,0,0,0-7.68,5.17,7.9,7.9,0,0,0,.23,6.18,8.48,8.48,0,0,0,4.76,4.42,8.3,8.3,0,0,0,10.77-4.61h0a7.92,7.92,0,0,0-.23-6.17,8.7,8.7,0,0,0-7.85-5Z"/><path class="cls-7" d="M312.19,232.47A28.61,28.61,0,0,1,302,230.6,28,28,0,1,1,337.66,193a27.76,27.76,0,0,1-14.09,37.08A28.22,28.22,0,0,1,312.19,232.47Zm-.4-36.19a8.15,8.15,0,0,0-7.69,5.17,8.3,8.3,0,0,0,5,10.6,8.56,8.56,0,0,0,6.5-.14,7.94,7.94,0,0,0,4.27-4.47h0a7.92,7.92,0,0,0-.23-6.17,8.67,8.67,0,0,0-7.84-5Z"/><path class="cls-7" d="M312.19,232.47A28.61,28.61,0,0,1,302,230.6,28,28,0,1,1,337.66,193a27.76,27.76,0,0,1-14.09,37.08A28.22,28.22,0,0,1,312.19,232.47Zm-.4-36.19a8.15,8.15,0,0,0-7.69,5.17,8.3,8.3,0,0,0,5,10.6,8.56,8.56,0,0,0,6.5-.14,7.94,7.94,0,0,0,4.27-4.47h0a7.92,7.92,0,0,0-.23-6.17,8.67,8.67,0,0,0-7.84-5Z"/><path class="cls-7" d="M311.18,218.85a13.27,13.27,0,0,1-12.38-18,13.26,13.26,0,0,1,24.8,9.42h0A13.3,13.3,0,0,1,311.18,218.85Zm-6.13-15.6a6.58,6.58,0,1,0,12.15-.36,6.67,6.67,0,0,0-3.66-3.46,6.59,6.59,0,0,0-8.49,3.81l9.27,3.53Z"/><path class="cls-7" d="M311.18,218.85a13.27,13.27,0,0,1-12.38-18,13.26,13.26,0,0,1,24.8,9.42h0A13.3,13.3,0,0,1,311.18,218.85Zm-6.13-15.6a6.58,6.58,0,1,0,12.15-.36,6.67,6.67,0,0,0-3.66-3.46,6.59,6.59,0,0,0-8.49,3.81l9.27,3.53Z"/><path class="cls-7" d="M312.41,240.27a28.49,28.49,0,0,1-25.85-16.55,27.59,27.59,0,0,1-.75-21.5,28.34,28.34,0,0,1,52.11-1.42,27.63,27.63,0,0,1,.75,21.5A28,28,0,0,1,312.41,240.27ZM312,204.09a8.15,8.15,0,0,0-7.68,5.17,7.9,7.9,0,0,0,.23,6.18,8.48,8.48,0,0,0,4.76,4.42,8.3,8.3,0,0,0,10.77-4.61h0a7.92,7.92,0,0,0-.23-6.17,8.7,8.7,0,0,0-7.85-5Z"/><path class="cls-7" d="M312.41,240.27a28.49,28.49,0,0,1-25.85-16.55,27.59,27.59,0,0,1-.75-21.5,28.34,28.34,0,0,1,52.11-1.42,27.63,27.63,0,0,1,.75,21.5A28,28,0,0,1,312.41,240.27ZM312,204.09a8.15,8.15,0,0,0-7.68,5.17,7.9,7.9,0,0,0,.23,6.18,8.48,8.48,0,0,0,4.76,4.42,8.3,8.3,0,0,0,10.77-4.61h0a7.92,7.92,0,0,0-.23-6.17,8.7,8.7,0,0,0-7.85-5Z"/><path class="cls-7" d="M312.19,232.47A28.61,28.61,0,0,1,302,230.6,28,28,0,1,1,337.66,193a27.76,27.76,0,0,1-14.09,37.08A28.22,28.22,0,0,1,312.19,232.47Zm-.4-36.19a8.15,8.15,0,0,0-7.69,5.17,8.3,8.3,0,0,0,5,10.6,8.56,8.56,0,0,0,6.5-.14,7.94,7.94,0,0,0,4.27-4.47h0a7.92,7.92,0,0,0-.23-6.17,8.67,8.67,0,0,0-7.84-5Z"/><path class="cls-7" d="M312.19,232.47A28.61,28.61,0,0,1,302,230.6,28,28,0,1,1,337.66,193a27.76,27.76,0,0,1-14.09,37.08A28.22,28.22,0,0,1,312.19,232.47Zm-.4-36.19a8.15,8.15,0,0,0-7.69,5.17,8.3,8.3,0,0,0,5,10.6,8.56,8.56,0,0,0,6.5-.14,7.94,7.94,0,0,0,4.27-4.47h0a7.92,7.92,0,0,0-.23-6.17,8.67,8.67,0,0,0-7.84-5Z"/><path class="cls-7" d="M311.18,218.85a13.27,13.27,0,0,1-12.38-18,13.26,13.26,0,0,1,24.8,9.42h0A13.3,13.3,0,0,1,311.18,218.85Zm-6.13-15.6a6.58,6.58,0,1,0,12.15-.36,6.67,6.67,0,0,0-3.66-3.46,6.59,6.59,0,0,0-8.49,3.81l9.27,3.53Z"/><path class="cls-7" d="M311.18,218.85a13.27,13.27,0,0,1-12.38-18,13.26,13.26,0,0,1,24.8,9.42h0A13.3,13.3,0,0,1,311.18,218.85Zm-6.13-15.6a6.58,6.58,0,1,0,12.15-.36,6.67,6.67,0,0,0-3.66-3.46,6.59,6.59,0,0,0-8.49,3.81l9.27,3.53Z"/><path class="cls-7" d="M143.84,224.57a9.15,9.15,0,0,1-1.38-.1,9.92,9.92,0,0,1-8.46-11.2c.48-3.43,2.9-15.22,13.94-22.94a33.67,33.67,0,0,1,21.75-5.9,9.92,9.92,0,0,1-1.5,19.78,14,14,0,0,0-8.87,2.37,14.42,14.42,0,0,0-5.67,9.44A9.92,9.92,0,0,1,143.84,224.57Z"/><path class="cls-7" d="M143.84,224.57a9.15,9.15,0,0,1-1.38-.1,9.92,9.92,0,0,1-8.46-11.2c.48-3.43,2.9-15.22,13.94-22.94a33.67,33.67,0,0,1,21.75-5.9,9.92,9.92,0,0,1-1.5,19.78,14,14,0,0,0-8.87,2.37,14.42,14.42,0,0,0-5.67,9.44A9.92,9.92,0,0,1,143.84,224.57Z"/><path class="cls-7" d="M296.66,180a9.92,9.92,0,0,1-6.28-17.61,32.53,32.53,0,0,1,40.54-.52,9.92,9.92,0,1,1-12.15,15.69,13,13,0,0,0-7.65-2.68,12.83,12.83,0,0,0-8.19,2.89A9.89,9.89,0,0,1,296.66,180Z"/><path class="cls-7" d="M296.66,180a9.92,9.92,0,0,1-6.28-17.61,32.53,32.53,0,0,1,40.54-.52,9.92,9.92,0,1,1-12.15,15.69,13,13,0,0,0-7.65-2.68,12.83,12.83,0,0,0-8.19,2.89A9.89,9.89,0,0,1,296.66,180Z"/><path class="cls-7" d="M242.05,283a108.53,108.53,0,0,1-19.58-1.78,9.92,9.92,0,0,1-2.33-18.79,148.68,148.68,0,0,1,72.76-12.92A9.92,9.92,0,0,1,297.17,268a108.5,108.5,0,0,1-55.12,15Z"/><path class="cls-7" d="M242.05,283a108.53,108.53,0,0,1-19.58-1.78,9.92,9.92,0,0,1-2.33-18.79,148.68,148.68,0,0,1,72.76-12.92A9.92,9.92,0,0,1,297.17,268a108.5,108.5,0,0,1-55.12,15Z"/><path class="cls-7" d="M218.87,280.22a9.93,9.93,0,0,1-9.43-13c5.37-16.42,12.93-25.45,23.11-27.6,6-1.27,10.77.3,14.25,1.44,2.92.95,4.67,1.53,7.48,1,2.09-.39,3-1.07,4.9-2.41a25.09,25.09,0,0,1,11.31-5.1c10.49-1.73,21.61,3.45,33,15.38A9.92,9.92,0,0,1,297,266.69a360.65,360.65,0,0,0-75.4,13.14A9.84,9.84,0,0,1,218.87,280.22Z"/><path class="cls-7" d="M218.87,280.22a9.93,9.93,0,0,1-9.43-13c5.37-16.42,12.93-25.45,23.11-27.6,6-1.27,10.77.3,14.25,1.44,2.92.95,4.67,1.53,7.48,1,2.09-.39,3-1.07,4.9-2.41a25.09,25.09,0,0,1,11.31-5.1c10.49-1.73,21.61,3.45,33,15.38A9.92,9.92,0,0,1,297,266.69a360.65,360.65,0,0,0-75.4,13.14A9.84,9.84,0,0,1,218.87,280.22Z"/><path class="cls-7" d="M206.58,292.29a11.43,11.43,0,0,1-1.42-.1A9.92,9.92,0,0,1,196.75,281c1.24-8.71,10.43-15.46,29.79-21.9a229.67,229.67,0,0,1,45.16-9.75,141,141,0,0,1,29.63-.32c7.59.86,18.12,2.94,21.9,11,1,2,3.53,9.33-4,16.67a9.91,9.91,0,0,1-16.83-7.47c-5.54-1-15.48-1.54-28.58-.14-26.69,2.86-52.73,11.77-57.86,16.54A9.92,9.92,0,0,1,206.58,292.29Zm9.81-8.52h0Z"/><path class="cls-7" d="M206.59,294.82a13.07,13.07,0,0,1-2-.15,12.41,12.41,0,0,1-10.32-14.21s0-.08,0-.13a18.5,18.5,0,0,1,5-9.68l.08-.08a30.25,30.25,0,0,1,4.87-4.16,58.78,58.78,0,0,1,8.29-4.7,126.34,126.34,0,0,1,15.7-6.08,235,235,0,0,1,31.12-7.41,172.24,172.24,0,0,1,32.56-2.46,86.15,86.15,0,0,1,17.63,2.11,34.61,34.61,0,0,1,5.53,1.87l.22.09a21.45,21.45,0,0,1,6.91,4.82c.12.13.24.26.35.4a15.93,15.93,0,0,1,3.39,6.25,14.24,14.24,0,0,1,.51,3.9v.14a10.47,10.47,0,0,1-.09,1.58,15.57,15.57,0,0,1-1,3.84,17.63,17.63,0,0,1-6.4,7.81,11.26,11.26,0,0,1-17.55-7,72.52,72.52,0,0,0-10.07-.74,157.57,157.57,0,0,0-27.75,2.42,211.14,211.14,0,0,0-27.76,6.54,114.72,114.72,0,0,0-12.66,4.68,35.39,35.39,0,0,0-4.85,2.61l-.36.25a12.43,12.43,0,0,1-11.37,7.48Zm12.25-10.56v.06A.13.13,0,0,1,218.84,284.26ZM204.1,282h0Zm-4.88-.78h0Zm120.55-7.31,0,0,0,0Z"/><path class="cls-7" d="M242.05,283a108.53,108.53,0,0,1-19.58-1.78,9.92,9.92,0,0,1-2.33-18.79,148.68,148.68,0,0,1,72.76-12.92A9.92,9.92,0,0,1,297.17,268a108.5,108.5,0,0,1-55.12,15Z"/><path class="cls-7" d="M242.05,283a108.53,108.53,0,0,1-19.58-1.78,9.92,9.92,0,0,1-2.33-18.79,148.68,148.68,0,0,1,72.76-12.92A9.92,9.92,0,0,1,297.17,268a108.5,108.5,0,0,1-55.12,15Z"/><path class="cls-7" d="M218.87,280.22a9.93,9.93,0,0,1-9.43-13c5.37-16.42,12.93-25.45,23.11-27.6,6-1.27,10.77.3,14.25,1.44,2.92.95,4.67,1.53,7.48,1,2.09-.39,3-1.07,4.9-2.41a25.09,25.09,0,0,1,11.31-5.1c10.49-1.73,21.61,3.45,33,15.38A9.92,9.92,0,0,1,297,266.69a360.65,360.65,0,0,0-75.4,13.14A9.84,9.84,0,0,1,218.87,280.22Z"/><path class="cls-7" d="M218.87,280.22a9.93,9.93,0,0,1-9.43-13c5.37-16.42,12.93-25.45,23.11-27.6,6-1.27,10.77.3,14.25,1.44,2.92.95,4.67,1.53,7.48,1,2.09-.39,3-1.07,4.9-2.41a25.09,25.09,0,0,1,11.31-5.1c10.49-1.73,21.61,3.45,33,15.38A9.92,9.92,0,0,1,297,266.69a360.65,360.65,0,0,0-75.4,13.14A9.84,9.84,0,0,1,218.87,280.22Z"/><path class="cls-7" d="M206.58,292.29a11.43,11.43,0,0,1-1.42-.1A9.92,9.92,0,0,1,196.75,281c1.24-8.71,10.43-15.46,29.79-21.9a229.67,229.67,0,0,1,45.16-9.75,141,141,0,0,1,29.63-.32c7.59.86,18.12,2.94,21.9,11,1,2,3.53,9.33-4,16.67a9.91,9.91,0,0,1-16.83-7.47c-5.54-1-15.48-1.54-28.58-.14-26.69,2.86-52.73,11.77-57.86,16.54A9.92,9.92,0,0,1,206.58,292.29Zm9.81-8.52h0Z"/><path class="cls-7" d="M206.59,294.82a13.07,13.07,0,0,1-2-.15,12.41,12.41,0,0,1-10.32-14.21s0-.08,0-.13a18.5,18.5,0,0,1,5-9.68l.08-.08a30.25,30.25,0,0,1,4.87-4.16,58.78,58.78,0,0,1,8.29-4.7,126.34,126.34,0,0,1,15.7-6.08,235,235,0,0,1,31.12-7.41,172.24,172.24,0,0,1,32.56-2.46,86.15,86.15,0,0,1,17.63,2.11,34.61,34.61,0,0,1,5.53,1.87l.22.09a21.45,21.45,0,0,1,6.91,4.82c.12.13.24.26.35.4a15.93,15.93,0,0,1,3.39,6.25,14.24,14.24,0,0,1,.51,3.9v.14a10.47,10.47,0,0,1-.09,1.58,15.57,15.57,0,0,1-1,3.84,17.63,17.63,0,0,1-6.4,7.81,11.26,11.26,0,0,1-17.55-7,72.52,72.52,0,0,0-10.07-.74,157.57,157.57,0,0,0-27.75,2.42,211.14,211.14,0,0,0-27.76,6.54,114.72,114.72,0,0,0-12.66,4.68,35.39,35.39,0,0,0-4.85,2.61l-.36.25a12.43,12.43,0,0,1-11.37,7.48Zm12.25-10.56v.06A.13.13,0,0,1,218.84,284.26ZM204.1,282h0Zm-4.88-.78h0Zm120.55-7.31,0,0,0,0Z"/><path class="cls-7" d="M242.05,283a108.53,108.53,0,0,1-19.58-1.78,9.92,9.92,0,0,1-2.33-18.79,148.68,148.68,0,0,1,72.76-12.92A9.92,9.92,0,0,1,297.17,268a108.5,108.5,0,0,1-55.12,15Z"/><path class="cls-7" d="M242.05,283a108.53,108.53,0,0,1-19.58-1.78,9.92,9.92,0,0,1-2.33-18.79,148.68,148.68,0,0,1,72.76-12.92A9.92,9.92,0,0,1,297.17,268a108.5,108.5,0,0,1-55.12,15Z"/><path class="cls-7" d="M218.87,280.22a9.93,9.93,0,0,1-9.43-13c5.37-16.42,12.93-25.45,23.11-27.6,6-1.27,10.77.3,14.25,1.44,2.92.95,4.67,1.53,7.48,1,2.09-.39,3-1.07,4.9-2.41a25.09,25.09,0,0,1,11.31-5.1c10.49-1.73,21.61,3.45,33,15.38A9.92,9.92,0,0,1,297,266.69a360.65,360.65,0,0,0-75.4,13.14A9.84,9.84,0,0,1,218.87,280.22Z"/><path class="cls-7" d="M218.87,280.22a9.93,9.93,0,0,1-9.43-13c5.37-16.42,12.93-25.45,23.11-27.6,6-1.27,10.77.3,14.25,1.44,2.92.95,4.67,1.53,7.48,1,2.09-.39,3-1.07,4.9-2.41a25.09,25.09,0,0,1,11.31-5.1c10.49-1.73,21.61,3.45,33,15.38A9.92,9.92,0,0,1,297,266.69a360.65,360.65,0,0,0-75.4,13.14A9.84,9.84,0,0,1,218.87,280.22Z"/><path class="cls-7" d="M206.58,292.29a11.43,11.43,0,0,1-1.42-.1A9.92,9.92,0,0,1,196.75,281c1.24-8.71,10.43-15.46,29.79-21.9a229.67,229.67,0,0,1,45.16-9.75,141,141,0,0,1,29.63-.32c7.59.86,18.12,2.94,21.9,11,1,2,3.53,9.33-4,16.67a9.91,9.91,0,0,1-16.83-7.47c-5.54-1-15.48-1.54-28.58-.14-26.69,2.86-52.73,11.77-57.86,16.54A9.92,9.92,0,0,1,206.58,292.29Zm9.81-8.52h0Z"/><path class="cls-7" d="M206.59,294.82a13.07,13.07,0,0,1-2-.15,12.41,12.41,0,0,1-10.32-14.21s0-.08,0-.13a18.5,18.5,0,0,1,5-9.68l.08-.08a30.25,30.25,0,0,1,4.87-4.16,58.78,58.78,0,0,1,8.29-4.7,126.34,126.34,0,0,1,15.7-6.08,235,235,0,0,1,31.12-7.41,172.24,172.24,0,0,1,32.56-2.46,86.15,86.15,0,0,1,17.63,2.11,34.61,34.61,0,0,1,5.53,1.87l.22.09a21.45,21.45,0,0,1,6.91,4.82c.12.13.24.26.35.4a15.93,15.93,0,0,1,3.39,6.25,14.24,14.24,0,0,1,.51,3.9v.14a10.47,10.47,0,0,1-.09,1.58,15.57,15.57,0,0,1-1,3.84,17.63,17.63,0,0,1-6.4,7.81,11.26,11.26,0,0,1-17.55-7,72.52,72.52,0,0,0-10.07-.74,157.57,157.57,0,0,0-27.75,2.42,211.14,211.14,0,0,0-27.76,6.54,114.72,114.72,0,0,0-12.66,4.68,35.39,35.39,0,0,0-4.85,2.61l-.36.25a12.43,12.43,0,0,1-11.37,7.48Zm12.25-10.56v.06A.13.13,0,0,1,218.84,284.26ZM204.1,282h0Zm-4.88-.78h0Zm120.55-7.31,0,0,0,0Z"/><path class="cls-7" d="M218,112.76a9.9,9.9,0,0,1-5.25-1.51c-11.49-7.17-35.22-18.63-64.93-14.83a95.31,95.31,0,0,0-38.61,13.91A9.92,9.92,0,0,1,94.48,98.82c4.29-13,11.25-23.34,20.69-30.59,27.27-21,73-14.81,111.25,15A9.92,9.92,0,0,1,230.05,93l-2.36,11.8a9.94,9.94,0,0,1-9.73,8ZM154.64,75.7A53.77,53.77,0,0,0,141,77.36c1.4-.23,2.81-.44,4.22-.62a112.14,112.14,0,0,1,13.45-.91C157.33,75.74,156,75.7,154.64,75.7Z"/><path class="cls-7" d="M218,112.76a9.9,9.9,0,0,1-5.25-1.51c-11.49-7.17-35.22-18.63-64.93-14.83a95.31,95.31,0,0,0-38.61,13.91A9.92,9.92,0,0,1,94.48,98.82c4.29-13,11.25-23.34,20.69-30.59,27.27-21,73-14.81,111.25,15A9.92,9.92,0,0,1,230.05,93l-2.36,11.8a9.94,9.94,0,0,1-9.73,8ZM154.64,75.7A53.77,53.77,0,0,0,141,77.36c1.4-.23,2.81-.44,4.22-.62a112.14,112.14,0,0,1,13.45-.91C157.33,75.74,156,75.7,154.64,75.7Z"/><path class="cls-7" d="M209,99.26a9.92,9.92,0,0,1-8.56-4.92,61.83,61.83,0,0,0-9.16-12,65.58,65.58,0,0,0-29.89-17.21,9.92,9.92,0,0,1,.76-19.33c10.39-1.94,31.06-3.65,52.7,6.7a85.07,85.07,0,0,1,29.42,23.38,9.92,9.92,0,0,1-5.2,15.81l-27.53,7.28A10.12,10.12,0,0,1,209,99.26Zm-.89-28q2.81,3.18,5.3,6.65l3.69-1A65,65,0,0,0,208.09,71.26Z"/><path class="cls-7" d="M209,99.26a9.92,9.92,0,0,1-8.56-4.92,61.83,61.83,0,0,0-9.16-12,65.58,65.58,0,0,0-29.89-17.21,9.92,9.92,0,0,1,.76-19.33c10.39-1.94,31.06-3.65,52.7,6.7a85.07,85.07,0,0,1,29.42,23.38,9.92,9.92,0,0,1-5.2,15.81l-27.53,7.28A10.12,10.12,0,0,1,209,99.26Zm-.89-28q2.81,3.18,5.3,6.65l3.69-1A65,65,0,0,0,208.09,71.26Z"/><path class="cls-7" d="M266.07,171.76a9.93,9.93,0,0,1-8.95-5.65,45.52,45.52,0,0,0-36.72-25.75,9.92,9.92,0,0,1-5.23-17.62,33.79,33.79,0,0,1,17.63-7.44c15.46-1.57,28.47,9,35.48,19.52A47,47,0,0,1,276,162.06a9.92,9.92,0,0,1-7.84,9.48A9.8,9.8,0,0,1,266.07,171.76Z"/><path class="cls-7" d="M266.07,171.76a9.93,9.93,0,0,1-8.95-5.65,45.52,45.52,0,0,0-36.72-25.75,9.92,9.92,0,0,1-5.23-17.62,33.79,33.79,0,0,1,17.63-7.44c15.46-1.57,28.47,9,35.48,19.52A47,47,0,0,1,276,162.06a9.92,9.92,0,0,1-7.84,9.48A9.8,9.8,0,0,1,266.07,171.76Z"/><path class="cls-7" d="M234.34,185a9.92,9.92,0,0,1-9.85-8.81,54.46,54.46,0,0,0-17.56-34.37,9.92,9.92,0,0,1,3.21-16.64l20.35-7.58a9.93,9.93,0,0,1,8.28.63,35.29,35.29,0,0,1,12.89,12.16c5.08,8.19,6.35,17.91,3.79,28.89a43.4,43.4,0,0,1-14.84,23.5A10,10,0,0,1,234.34,185Zm-3.7-46.28a74.36,74.36,0,0,1,4.11,6.37q1.14,2,2.16,4a15,15,0,0,0-2.12-8.28,14.18,14.18,0,0,0-2.3-2.81Z"/><path class="cls-7" d="M234.34,185a9.92,9.92,0,0,1-9.85-8.81,54.46,54.46,0,0,0-17.56-34.37,9.92,9.92,0,0,1,3.21-16.64l20.35-7.58a9.93,9.93,0,0,1,8.28.63,35.29,35.29,0,0,1,12.89,12.16c5.08,8.19,6.35,17.91,3.79,28.89a43.4,43.4,0,0,1-14.84,23.5A10,10,0,0,1,234.34,185Zm-3.7-46.28a74.36,74.36,0,0,1,4.11,6.37q1.14,2,2.16,4a15,15,0,0,0-2.12-8.28,14.18,14.18,0,0,0-2.3-2.81Z"/><path class="cls-7" d="M149,480.62c-4.45,0-8-1.35-10.64-4-7-7.1-1.83-16.21,1.92-22.85.58-1,1.36-2.41,2.09-3.8-6.32,1.22-16.1,4.59-22.07,6.65a195.24,195.24,0,0,1-18.8,5.84c-4,.93-14.77,3.38-20.29-4.69-2-3-4.43-9.17,2.17-17.58A112.48,112.48,0,0,1,93,430.11c7.85-7.63,17.6-17.12,23.62-28.59,14.11-26.89,1.34-54.32-14.81-89-17.24-37.05-36.78-79-27.47-131.66,3.09-17.4,17-76,67.24-100h0c26.9-12.85,54.48-11.21,74-7,10.94-10,27.86-21.23,50.26-23.75,34.12-3.84,60.85,14.65,73.74,26,34.82,30.69,39.59,75.85,43.41,112.14,2.54,24,4.73,44.8,14.74,48.39,6.65,2.39,17.56-2,30.72-12.43a12.63,12.63,0,0,1,19.41,4.83c3.49,8,8.15,23.38.15,36.75-2.18,3.65-7.82,13.09-23.18,19.08,6.87,3.82,14.58,4.11,20.84,4.33,6.74.25,15.12.56,18.42,8.39,1.16,2.75,1.84,7.25-1.45,13-5.18,9.1-19.49,20-35.83,22.26a46.88,46.88,0,0,1-11.75.16c7.21,3.68,7.08,9.83,6.87,11.63-.52,4.34-3.37,7.78-8.49,10.23-11.85,5.67-38.4,8.38-57.77-3.78-15.49-9.73-22.21-25.51-34-105.27-.71-4.77-1.37-9.3-2-13.62-5.68-39.3-8.54-59-23.78-80.23-11-15.31-19-18.4-24.13-19.39C255.55,129.34,240.27,142.77,236,147a12.65,12.65,0,0,1-14.52,2.24c-8-4-23.5-9.94-37.68-4.25-20.85,8.36-27.66,37.13-28.39,52.8-1.07,22.78,9.35,36.05,23.78,54.42,13.93,17.74,31.27,39.82,41.92,76.89,6.14,21.4,17.57,61.22-2,98.21-16.17,30.65-48.93,50.51-66.36,53.06A26.05,26.05,0,0,1,149,480.62Zm-2.44-50.9c6.18,0,11.29,1.79,14.76,6.54,4.72,6.47,2.94,13.76,0,20.22,12.33-6.29,30.19-19.34,40.28-38.47,15.8-29.93,6.17-63.45.42-83.48-9.57-33.33-24.91-52.87-38.45-70.11-15.12-19.25-29.41-37.44-28-67.59,1.19-25.35,12.59-59,40.82-70.3,18.77-7.52,37.68-2.32,49.45,2.81,9.56-8.25,28-20.55,49.74-16.32,13.36,2.6,24.94,11.27,36.45,27.29,18.08,25.15,21.55,49.17,27.31,89,.62,4.3,1.27,8.81,2,13.55,11.51,77.67,17.35,86.61,24.95,91.38a38.94,38.94,0,0,0,17.53,5.42,36,36,0,0,1-9.09-10.74,38.79,38.79,0,0,1-4.36-21.54,12.63,12.63,0,0,1,21.54-8.08c6,6,18.15,15.81,32.24,13.85a33.25,33.25,0,0,0,12.65-4.69,53.47,53.47,0,0,1-23.27-7.35,59.65,59.65,0,0,1-10-8c-3.82-3.79-8-8.93-6.77-15.16a11.09,11.09,0,0,1,9.4-8.72c18.35-2.78,23.11-10.73,24.9-13.73,1.69-2.84,1.84-6.37,1.36-9.69-15.87,10.59-29.45,13.66-41.32,9.4-21.73-7.8-24.52-34.3-27.76-65-3.65-34.57-7.78-73.76-36.8-99.33-10.42-9.2-31.87-24.17-58.4-21.18-18.85,2.12-33,12.55-41.46,20.92a12.52,12.52,0,0,1-11.81,3.28c-16.56-4-41.22-6.43-64.69,4.78-41.66,19.9-53.59,70.55-56.26,85.59-8.22,46.46,9.91,85.44,25.92,119.83,17,36.54,33.06,71.06,14.4,106.63-5.73,10.91-13.78,20-21,27.33l.67-.23C125.82,433.71,137.38,429.72,146.59,429.72Z"/><path class="cls-7" d="M149,480.62c-4.45,0-8-1.35-10.64-4-7-7.1-1.83-16.21,1.92-22.85.58-1,1.36-2.41,2.09-3.8-6.32,1.22-16.1,4.59-22.07,6.65a195.24,195.24,0,0,1-18.8,5.84c-4,.93-14.77,3.38-20.29-4.69-2-3-4.43-9.17,2.17-17.58A112.48,112.48,0,0,1,93,430.11c7.85-7.63,17.6-17.12,23.62-28.59,14.11-26.89,1.34-54.32-14.81-89-17.24-37.05-36.78-79-27.47-131.66,3.09-17.4,17-76,67.24-100h0c26.9-12.85,54.48-11.21,74-7,10.94-10,27.86-21.23,50.26-23.75,34.12-3.84,60.85,14.65,73.74,26,34.82,30.69,39.59,75.85,43.41,112.14,2.54,24,4.73,44.8,14.74,48.39,6.65,2.39,17.56-2,30.72-12.43a12.63,12.63,0,0,1,19.41,4.83c3.49,8,8.15,23.38.15,36.75-2.18,3.65-7.82,13.09-23.18,19.08,6.87,3.82,14.58,4.11,20.84,4.33,6.74.25,15.12.56,18.42,8.39,1.16,2.75,1.84,7.25-1.45,13-5.18,9.1-19.49,20-35.83,22.26a46.88,46.88,0,0,1-11.75.16c7.21,3.68,7.08,9.83,6.87,11.63-.52,4.34-3.37,7.78-8.49,10.23-11.85,5.67-38.4,8.38-57.77-3.78-15.49-9.73-22.21-25.51-34-105.27-.71-4.77-1.37-9.3-2-13.62-5.68-39.3-8.54-59-23.78-80.23-11-15.31-19-18.4-24.13-19.39C255.55,129.34,240.27,142.77,236,147a12.65,12.65,0,0,1-14.52,2.24c-8-4-23.5-9.94-37.68-4.25-20.85,8.36-27.66,37.13-28.39,52.8-1.07,22.78,9.35,36.05,23.78,54.42,13.93,17.74,31.27,39.82,41.92,76.89,6.14,21.4,17.57,61.22-2,98.21-16.17,30.65-48.93,50.51-66.36,53.06A26.05,26.05,0,0,1,149,480.62Zm-2.44-50.9c6.18,0,11.29,1.79,14.76,6.54,4.72,6.47,2.94,13.76,0,20.22,12.33-6.29,30.19-19.34,40.28-38.47,15.8-29.93,6.17-63.45.42-83.48-9.57-33.33-24.91-52.87-38.45-70.11-15.12-19.25-29.41-37.44-28-67.59,1.19-25.35,12.59-59,40.82-70.3,18.77-7.52,37.68-2.32,49.45,2.81,9.56-8.25,28-20.55,49.74-16.32,13.36,2.6,24.94,11.27,36.45,27.29,18.08,25.15,21.55,49.17,27.31,89,.62,4.3,1.27,8.81,2,13.55,11.51,77.67,17.35,86.61,24.95,91.38a38.94,38.94,0,0,0,17.53,5.42,36,36,0,0,1-9.09-10.74,38.79,38.79,0,0,1-4.36-21.54,12.63,12.63,0,0,1,21.54-8.08c6,6,18.15,15.81,32.24,13.85a33.25,33.25,0,0,0,12.65-4.69,53.47,53.47,0,0,1-23.27-7.35,59.65,59.65,0,0,1-10-8c-3.82-3.79-8-8.93-6.77-15.16a11.09,11.09,0,0,1,9.4-8.72c18.35-2.78,23.11-10.73,24.9-13.73,1.69-2.84,1.84-6.37,1.36-9.69-15.87,10.59-29.45,13.66-41.32,9.4-21.73-7.8-24.52-34.3-27.76-65-3.65-34.57-7.78-73.76-36.8-99.33-10.42-9.2-31.87-24.17-58.4-21.18-18.85,2.12-33,12.55-41.46,20.92a12.52,12.52,0,0,1-11.81,3.28c-16.56-4-41.22-6.43-64.69,4.78-41.66,19.9-53.59,70.55-56.26,85.59-8.22,46.46,9.91,85.44,25.92,119.83,17,36.54,33.06,71.06,14.4,106.63-5.73,10.91-13.78,20-21,27.33l.67-.23C125.82,433.71,137.38,429.72,146.59,429.72Z"/><path class="cls-7" d="M218,112.76a9.9,9.9,0,0,1-5.25-1.51c-11.49-7.17-35.22-18.63-64.93-14.83a95.31,95.31,0,0,0-38.61,13.91A9.92,9.92,0,0,1,94.48,98.82c4.29-13,11.25-23.34,20.69-30.59,27.27-21,73-14.81,111.25,15A9.92,9.92,0,0,1,230.05,93l-2.36,11.8a9.94,9.94,0,0,1-9.73,8ZM154.64,75.7A53.77,53.77,0,0,0,141,77.36c1.4-.23,2.81-.44,4.22-.62a112.14,112.14,0,0,1,13.45-.91C157.33,75.74,156,75.7,154.64,75.7Z"/><path class="cls-7" d="M218,112.76a9.9,9.9,0,0,1-5.25-1.51c-11.49-7.17-35.22-18.63-64.93-14.83a95.31,95.31,0,0,0-38.61,13.91A9.92,9.92,0,0,1,94.48,98.82c4.29-13,11.25-23.34,20.69-30.59,27.27-21,73-14.81,111.25,15A9.92,9.92,0,0,1,230.05,93l-2.36,11.8a9.94,9.94,0,0,1-9.73,8ZM154.64,75.7A53.77,53.77,0,0,0,141,77.36c1.4-.23,2.81-.44,4.22-.62a112.14,112.14,0,0,1,13.45-.91C157.33,75.74,156,75.7,154.64,75.7Z"/><path class="cls-7" d="M209,99.26a9.92,9.92,0,0,1-8.56-4.92,61.83,61.83,0,0,0-9.16-12,65.58,65.58,0,0,0-29.89-17.21,9.92,9.92,0,0,1,.76-19.33c10.39-1.94,31.06-3.65,52.7,6.7a85.07,85.07,0,0,1,29.42,23.38,9.92,9.92,0,0,1-5.2,15.81l-27.53,7.28A10.12,10.12,0,0,1,209,99.26Zm-.89-28q2.81,3.18,5.3,6.65l3.69-1A65,65,0,0,0,208.09,71.26Z"/><path class="cls-7" d="M209,99.26a9.92,9.92,0,0,1-8.56-4.92,61.83,61.83,0,0,0-9.16-12,65.58,65.58,0,0,0-29.89-17.21,9.92,9.92,0,0,1,.76-19.33c10.39-1.94,31.06-3.65,52.7,6.7a85.07,85.07,0,0,1,29.42,23.38,9.92,9.92,0,0,1-5.2,15.81l-27.53,7.28A10.12,10.12,0,0,1,209,99.26Zm-.89-28q2.81,3.18,5.3,6.65l3.69-1A65,65,0,0,0,208.09,71.26Z"/><path class="cls-7" d="M266.07,171.76a9.93,9.93,0,0,1-8.95-5.65,45.52,45.52,0,0,0-36.72-25.75,9.92,9.92,0,0,1-5.23-17.62,33.79,33.79,0,0,1,17.63-7.44c15.46-1.57,28.47,9,35.48,19.52A47,47,0,0,1,276,162.06a9.92,9.92,0,0,1-7.84,9.48A9.8,9.8,0,0,1,266.07,171.76Z"/><path class="cls-7" d="M266.07,171.76a9.93,9.93,0,0,1-8.95-5.65,45.52,45.52,0,0,0-36.72-25.75,9.92,9.92,0,0,1-5.23-17.62,33.79,33.79,0,0,1,17.63-7.44c15.46-1.57,28.47,9,35.48,19.52A47,47,0,0,1,276,162.06a9.92,9.92,0,0,1-7.84,9.48A9.8,9.8,0,0,1,266.07,171.76Z"/><path class="cls-7" d="M234.34,185a9.92,9.92,0,0,1-9.85-8.81,54.46,54.46,0,0,0-17.56-34.37,9.92,9.92,0,0,1,3.21-16.64l20.35-7.58a9.93,9.93,0,0,1,8.28.63,35.29,35.29,0,0,1,12.89,12.16c5.08,8.19,6.35,17.91,3.79,28.89a43.4,43.4,0,0,1-14.84,23.5A10,10,0,0,1,234.34,185Zm-3.7-46.28a74.36,74.36,0,0,1,4.11,6.37q1.14,2,2.16,4a15,15,0,0,0-2.12-8.28,14.18,14.18,0,0,0-2.3-2.81Z"/><path class="cls-7" d="M234.34,185a9.92,9.92,0,0,1-9.85-8.81,54.46,54.46,0,0,0-17.56-34.37,9.92,9.92,0,0,1,3.21-16.64l20.35-7.58a9.93,9.93,0,0,1,8.28.63,35.29,35.29,0,0,1,12.89,12.16c5.08,8.19,6.35,17.91,3.79,28.89a43.4,43.4,0,0,1-14.84,23.5A10,10,0,0,1,234.34,185Zm-3.7-46.28a74.36,74.36,0,0,1,4.11,6.37q1.14,2,2.16,4a15,15,0,0,0-2.12-8.28,14.18,14.18,0,0,0-2.3-2.81Z"/><path class="cls-7" d="M149,480.62c-4.45,0-8-1.35-10.64-4-7-7.1-1.83-16.21,1.92-22.85.58-1,1.36-2.41,2.09-3.8-6.32,1.22-16.1,4.59-22.07,6.65a195.24,195.24,0,0,1-18.8,5.84c-4,.93-14.77,3.38-20.29-4.69-2-3-4.43-9.17,2.17-17.58A112.48,112.48,0,0,1,93,430.11c7.85-7.63,17.6-17.12,23.62-28.59,14.11-26.89,1.34-54.32-14.81-89-17.24-37.05-36.78-79-27.47-131.66,3.09-17.4,17-76,67.24-100h0c26.9-12.85,54.48-11.21,74-7,10.94-10,27.86-21.23,50.26-23.75,34.12-3.84,60.85,14.65,73.74,26,34.82,30.69,39.59,75.85,43.41,112.14,2.54,24,4.73,44.8,14.74,48.39,6.65,2.39,17.56-2,30.72-12.43a12.63,12.63,0,0,1,19.41,4.83c3.49,8,8.15,23.38.15,36.75-2.18,3.65-7.82,13.09-23.18,19.08,6.87,3.82,14.58,4.11,20.84,4.33,6.74.25,15.12.56,18.42,8.39,1.16,2.75,1.84,7.25-1.45,13-5.18,9.1-19.49,20-35.83,22.26a46.88,46.88,0,0,1-11.75.16c7.21,3.68,7.08,9.83,6.87,11.63-.52,4.34-3.37,7.78-8.49,10.23-11.85,5.67-38.4,8.38-57.77-3.78-15.49-9.73-22.21-25.51-34-105.27-.71-4.77-1.37-9.3-2-13.62-5.68-39.3-8.54-59-23.78-80.23-11-15.31-19-18.4-24.13-19.39C255.55,129.34,240.27,142.77,236,147a12.65,12.65,0,0,1-14.52,2.24c-8-4-23.5-9.94-37.68-4.25-20.85,8.36-27.66,37.13-28.39,52.8-1.07,22.78,9.35,36.05,23.78,54.42,13.93,17.74,31.27,39.82,41.92,76.89,6.14,21.4,17.57,61.22-2,98.21-16.17,30.65-48.93,50.51-66.36,53.06A26.05,26.05,0,0,1,149,480.62Zm-2.44-50.9c6.18,0,11.29,1.79,14.76,6.54,4.72,6.47,2.94,13.76,0,20.22,12.33-6.29,30.19-19.34,40.28-38.47,15.8-29.93,6.17-63.45.42-83.48-9.57-33.33-24.91-52.87-38.45-70.11-15.12-19.25-29.41-37.44-28-67.59,1.19-25.35,12.59-59,40.82-70.3,18.77-7.52,37.68-2.32,49.45,2.81,9.56-8.25,28-20.55,49.74-16.32,13.36,2.6,24.94,11.27,36.45,27.29,18.08,25.15,21.55,49.17,27.31,89,.62,4.3,1.27,8.81,2,13.55,11.51,77.67,17.35,86.61,24.95,91.38a38.94,38.94,0,0,0,17.53,5.42,36,36,0,0,1-9.09-10.74,38.79,38.79,0,0,1-4.36-21.54,12.63,12.63,0,0,1,21.54-8.08c6,6,18.15,15.81,32.24,13.85a33.25,33.25,0,0,0,12.65-4.69,53.47,53.47,0,0,1-23.27-7.35,59.65,59.65,0,0,1-10-8c-3.82-3.79-8-8.93-6.77-15.16a11.09,11.09,0,0,1,9.4-8.72c18.35-2.78,23.11-10.73,24.9-13.73,1.69-2.84,1.84-6.37,1.36-9.69-15.87,10.59-29.45,13.66-41.32,9.4-21.73-7.8-24.52-34.3-27.76-65-3.65-34.57-7.78-73.76-36.8-99.33-10.42-9.2-31.87-24.17-58.4-21.18-18.85,2.12-33,12.55-41.46,20.92a12.52,12.52,0,0,1-11.81,3.28c-16.56-4-41.22-6.43-64.69,4.78-41.66,19.9-53.59,70.55-56.26,85.59-8.22,46.46,9.91,85.44,25.92,119.83,17,36.54,33.06,71.06,14.4,106.63-5.73,10.91-13.78,20-21,27.33l.67-.23C125.82,433.71,137.38,429.72,146.59,429.72Z"/><path class="cls-7" d="M149,480.62c-4.45,0-8-1.35-10.64-4-7-7.1-1.83-16.21,1.92-22.85.58-1,1.36-2.41,2.09-3.8-6.32,1.22-16.1,4.59-22.07,6.65a195.24,195.24,0,0,1-18.8,5.84c-4,.93-14.77,3.38-20.29-4.69-2-3-4.43-9.17,2.17-17.58A112.48,112.48,0,0,1,93,430.11c7.85-7.63,17.6-17.12,23.62-28.59,14.11-26.89,1.34-54.32-14.81-89-17.24-37.05-36.78-79-27.47-131.66,3.09-17.4,17-76,67.24-100h0c26.9-12.85,54.48-11.21,74-7,10.94-10,27.86-21.23,50.26-23.75,34.12-3.84,60.85,14.65,73.74,26,34.82,30.69,39.59,75.85,43.41,112.14,2.54,24,4.73,44.8,14.74,48.39,6.65,2.39,17.56-2,30.72-12.43a12.63,12.63,0,0,1,19.41,4.83c3.49,8,8.15,23.38.15,36.75-2.18,3.65-7.82,13.09-23.18,19.08,6.87,3.82,14.58,4.11,20.84,4.33,6.74.25,15.12.56,18.42,8.39,1.16,2.75,1.84,7.25-1.45,13-5.18,9.1-19.49,20-35.83,22.26a46.88,46.88,0,0,1-11.75.16c7.21,3.68,7.08,9.83,6.87,11.63-.52,4.34-3.37,7.78-8.49,10.23-11.85,5.67-38.4,8.38-57.77-3.78-15.49-9.73-22.21-25.51-34-105.27-.71-4.77-1.37-9.3-2-13.62-5.68-39.3-8.54-59-23.78-80.23-11-15.31-19-18.4-24.13-19.39C255.55,129.34,240.27,142.77,236,147a12.65,12.65,0,0,1-14.52,2.24c-8-4-23.5-9.94-37.68-4.25-20.85,8.36-27.66,37.13-28.39,52.8-1.07,22.78,9.35,36.05,23.78,54.42,13.93,17.74,31.27,39.82,41.92,76.89,6.14,21.4,17.57,61.22-2,98.21-16.17,30.65-48.93,50.51-66.36,53.06A26.05,26.05,0,0,1,149,480.62Zm-2.44-50.9c6.18,0,11.29,1.79,14.76,6.54,4.72,6.47,2.94,13.76,0,20.22,12.33-6.29,30.19-19.34,40.28-38.47,15.8-29.93,6.17-63.45.42-83.48-9.57-33.33-24.91-52.87-38.45-70.11-15.12-19.25-29.41-37.44-28-67.59,1.19-25.35,12.59-59,40.82-70.3,18.77-7.52,37.68-2.32,49.45,2.81,9.56-8.25,28-20.55,49.74-16.32,13.36,2.6,24.94,11.27,36.45,27.29,18.08,25.15,21.55,49.17,27.31,89,.62,4.3,1.27,8.81,2,13.55,11.51,77.67,17.35,86.61,24.95,91.38a38.94,38.94,0,0,0,17.53,5.42,36,36,0,0,1-9.09-10.74,38.79,38.79,0,0,1-4.36-21.54,12.63,12.63,0,0,1,21.54-8.08c6,6,18.15,15.81,32.24,13.85a33.25,33.25,0,0,0,12.65-4.69,53.47,53.47,0,0,1-23.27-7.35,59.65,59.65,0,0,1-10-8c-3.82-3.79-8-8.93-6.77-15.16a11.09,11.09,0,0,1,9.4-8.72c18.35-2.78,23.11-10.73,24.9-13.73,1.69-2.84,1.84-6.37,1.36-9.69-15.87,10.59-29.45,13.66-41.32,9.4-21.73-7.8-24.52-34.3-27.76-65-3.65-34.57-7.78-73.76-36.8-99.33-10.42-9.2-31.87-24.17-58.4-21.18-18.85,2.12-33,12.55-41.46,20.92a12.52,12.52,0,0,1-11.81,3.28c-16.56-4-41.22-6.43-64.69,4.78-41.66,19.9-53.59,70.55-56.26,85.59-8.22,46.46,9.91,85.44,25.92,119.83,17,36.54,33.06,71.06,14.4,106.63-5.73,10.91-13.78,20-21,27.33l.67-.23C125.82,433.71,137.38,429.72,146.59,429.72Z"/><path class="cls-7" d="M218,112.76a9.9,9.9,0,0,1-5.25-1.51c-11.49-7.17-35.22-18.63-64.93-14.83a95.31,95.31,0,0,0-38.61,13.91A9.92,9.92,0,0,1,94.48,98.82c4.29-13,11.25-23.34,20.69-30.59,27.27-21,73-14.81,111.25,15A9.92,9.92,0,0,1,230.05,93l-2.36,11.8a9.94,9.94,0,0,1-9.73,8ZM154.64,75.7A53.77,53.77,0,0,0,141,77.36c1.4-.23,2.81-.44,4.22-.62a112.14,112.14,0,0,1,13.45-.91C157.33,75.74,156,75.7,154.64,75.7Z"/><path class="cls-7" d="M218,112.76a9.9,9.9,0,0,1-5.25-1.51c-11.49-7.17-35.22-18.63-64.93-14.83a95.31,95.31,0,0,0-38.61,13.91A9.92,9.92,0,0,1,94.48,98.82c4.29-13,11.25-23.34,20.69-30.59,27.27-21,73-14.81,111.25,15A9.92,9.92,0,0,1,230.05,93l-2.36,11.8a9.94,9.94,0,0,1-9.73,8ZM154.64,75.7A53.77,53.77,0,0,0,141,77.36c1.4-.23,2.81-.44,4.22-.62a112.14,112.14,0,0,1,13.45-.91C157.33,75.74,156,75.7,154.64,75.7Z"/><path class="cls-7" d="M209,99.26a9.92,9.92,0,0,1-8.56-4.92,61.83,61.83,0,0,0-9.16-12,65.58,65.58,0,0,0-29.89-17.21,9.92,9.92,0,0,1,.76-19.33c10.39-1.94,31.06-3.65,52.7,6.7a85.07,85.07,0,0,1,29.42,23.38,9.92,9.92,0,0,1-5.2,15.81l-27.53,7.28A10.12,10.12,0,0,1,209,99.26Zm-.89-28q2.81,3.18,5.3,6.65l3.69-1A65,65,0,0,0,208.09,71.26Z"/><path class="cls-7" d="M209,99.26a9.92,9.92,0,0,1-8.56-4.92,61.83,61.83,0,0,0-9.16-12,65.58,65.58,0,0,0-29.89-17.21,9.92,9.92,0,0,1,.76-19.33c10.39-1.94,31.06-3.65,52.7,6.7a85.07,85.07,0,0,1,29.42,23.38,9.92,9.92,0,0,1-5.2,15.81l-27.53,7.28A10.12,10.12,0,0,1,209,99.26Zm-.89-28q2.81,3.18,5.3,6.65l3.69-1A65,65,0,0,0,208.09,71.26Z"/><path class="cls-7" d="M266.07,171.76a9.93,9.93,0,0,1-8.95-5.65,45.52,45.52,0,0,0-36.72-25.75,9.92,9.92,0,0,1-5.23-17.62,33.79,33.79,0,0,1,17.63-7.44c15.46-1.57,28.47,9,35.48,19.52A47,47,0,0,1,276,162.06a9.92,9.92,0,0,1-7.84,9.48A9.8,9.8,0,0,1,266.07,171.76Z"/><path class="cls-7" d="M266.07,171.76a9.93,9.93,0,0,1-8.95-5.65,45.52,45.52,0,0,0-36.72-25.75,9.92,9.92,0,0,1-5.23-17.62,33.79,33.79,0,0,1,17.63-7.44c15.46-1.57,28.47,9,35.48,19.52A47,47,0,0,1,276,162.06a9.92,9.92,0,0,1-7.84,9.48A9.8,9.8,0,0,1,266.07,171.76Z"/><path class="cls-7" d="M234.34,185a9.92,9.92,0,0,1-9.85-8.81,54.46,54.46,0,0,0-17.56-34.37,9.92,9.92,0,0,1,3.21-16.64l20.35-7.58a9.93,9.93,0,0,1,8.28.63,35.29,35.29,0,0,1,12.89,12.16c5.08,8.19,6.35,17.91,3.79,28.89a43.4,43.4,0,0,1-14.84,23.5A10,10,0,0,1,234.34,185Zm-3.7-46.28a74.36,74.36,0,0,1,4.11,6.37q1.14,2,2.16,4a15,15,0,0,0-2.12-8.28,14.18,14.18,0,0,0-2.3-2.81Z"/><path class="cls-7" d="M234.34,185a9.92,9.92,0,0,1-9.85-8.81,54.46,54.46,0,0,0-17.56-34.37,9.92,9.92,0,0,1,3.21-16.64l20.35-7.58a9.93,9.93,0,0,1,8.28.63,35.29,35.29,0,0,1,12.89,12.16c5.08,8.19,6.35,17.91,3.79,28.89a43.4,43.4,0,0,1-14.84,23.5A10,10,0,0,1,234.34,185Zm-3.7-46.28a74.36,74.36,0,0,1,4.11,6.37q1.14,2,2.16,4a15,15,0,0,0-2.12-8.28,14.18,14.18,0,0,0-2.3-2.81Z"/><path class="cls-7" d="M149,480.62c-4.45,0-8-1.35-10.64-4-7-7.1-1.83-16.21,1.92-22.85.58-1,1.36-2.41,2.09-3.8-6.32,1.22-16.1,4.59-22.07,6.65a195.24,195.24,0,0,1-18.8,5.84c-4,.93-14.77,3.38-20.29-4.69-2-3-4.43-9.17,2.17-17.58A112.48,112.48,0,0,1,93,430.11c7.85-7.63,17.6-17.12,23.62-28.59,14.11-26.89,1.34-54.32-14.81-89-17.24-37.05-36.78-79-27.47-131.66,3.09-17.4,17-76,67.24-100h0c26.9-12.85,54.48-11.21,74-7,10.94-10,27.86-21.23,50.26-23.75,34.12-3.84,60.85,14.65,73.74,26,34.82,30.69,39.59,75.85,43.41,112.14,2.54,24,4.73,44.8,14.74,48.39,6.65,2.39,17.56-2,30.72-12.43a12.63,12.63,0,0,1,19.41,4.83c3.49,8,8.15,23.38.15,36.75-2.18,3.65-7.82,13.09-23.18,19.08,6.87,3.82,14.58,4.11,20.84,4.33,6.74.25,15.12.56,18.42,8.39,1.16,2.75,1.84,7.25-1.45,13-5.18,9.1-19.49,20-35.83,22.26a46.88,46.88,0,0,1-11.75.16c7.21,3.68,7.08,9.83,6.87,11.63-.52,4.34-3.37,7.78-8.49,10.23-11.85,5.67-38.4,8.38-57.77-3.78-15.49-9.73-22.21-25.51-34-105.27-.71-4.77-1.37-9.3-2-13.62-5.68-39.3-8.54-59-23.78-80.23-11-15.31-19-18.4-24.13-19.39C255.55,129.34,240.27,142.77,236,147a12.65,12.65,0,0,1-14.52,2.24c-8-4-23.5-9.94-37.68-4.25-20.85,8.36-27.66,37.13-28.39,52.8-1.07,22.78,9.35,36.05,23.78,54.42,13.93,17.74,31.27,39.82,41.92,76.89,6.14,21.4,17.57,61.22-2,98.21-16.17,30.65-48.93,50.51-66.36,53.06A26.05,26.05,0,0,1,149,480.62Zm-2.44-50.9c6.18,0,11.29,1.79,14.76,6.54,4.72,6.47,2.94,13.76,0,20.22,12.33-6.29,30.19-19.34,40.28-38.47,15.8-29.93,6.17-63.45.42-83.48-9.57-33.33-24.91-52.87-38.45-70.11-15.12-19.25-29.41-37.44-28-67.59,1.19-25.35,12.59-59,40.82-70.3,18.77-7.52,37.68-2.32,49.45,2.81,9.56-8.25,28-20.55,49.74-16.32,13.36,2.6,24.94,11.27,36.45,27.29,18.08,25.15,21.55,49.17,27.31,89,.62,4.3,1.27,8.81,2,13.55,11.51,77.67,17.35,86.61,24.95,91.38a38.94,38.94,0,0,0,17.53,5.42,36,36,0,0,1-9.09-10.74,38.79,38.79,0,0,1-4.36-21.54,12.63,12.63,0,0,1,21.54-8.08c6,6,18.15,15.81,32.24,13.85a33.25,33.25,0,0,0,12.65-4.69,53.47,53.47,0,0,1-23.27-7.35,59.65,59.65,0,0,1-10-8c-3.82-3.79-8-8.93-6.77-15.16a11.09,11.09,0,0,1,9.4-8.72c18.35-2.78,23.11-10.73,24.9-13.73,1.69-2.84,1.84-6.37,1.36-9.69-15.87,10.59-29.45,13.66-41.32,9.4-21.73-7.8-24.52-34.3-27.76-65-3.65-34.57-7.78-73.76-36.8-99.33-10.42-9.2-31.87-24.17-58.4-21.18-18.85,2.12-33,12.55-41.46,20.92a12.52,12.52,0,0,1-11.81,3.28c-16.56-4-41.22-6.43-64.69,4.78-41.66,19.9-53.59,70.55-56.26,85.59-8.22,46.46,9.91,85.44,25.92,119.83,17,36.54,33.06,71.06,14.4,106.63-5.73,10.91-13.78,20-21,27.33l.67-.23C125.82,433.71,137.38,429.72,146.59,429.72Z"/><path class="cls-7" d="M149,480.62c-4.45,0-8-1.35-10.64-4-7-7.1-1.83-16.21,1.92-22.85.58-1,1.36-2.41,2.09-3.8-6.32,1.22-16.1,4.59-22.07,6.65a195.24,195.24,0,0,1-18.8,5.84c-4,.93-14.77,3.38-20.29-4.69-2-3-4.43-9.17,2.17-17.58A112.48,112.48,0,0,1,93,430.11c7.85-7.63,17.6-17.12,23.62-28.59,14.11-26.89,1.34-54.32-14.81-89-17.24-37.05-36.78-79-27.47-131.66,3.09-17.4,17-76,67.24-100h0c26.9-12.85,54.48-11.21,74-7,10.94-10,27.86-21.23,50.26-23.75,34.12-3.84,60.85,14.65,73.74,26,34.82,30.69,39.59,75.85,43.41,112.14,2.54,24,4.73,44.8,14.74,48.39,6.65,2.39,17.56-2,30.72-12.43a12.63,12.63,0,0,1,19.41,4.83c3.49,8,8.15,23.38.15,36.75-2.18,3.65-7.82,13.09-23.18,19.08,6.87,3.82,14.58,4.11,20.84,4.33,6.74.25,15.12.56,18.42,8.39,1.16,2.75,1.84,7.25-1.45,13-5.18,9.1-19.49,20-35.83,22.26a46.88,46.88,0,0,1-11.75.16c7.21,3.68,7.08,9.83,6.87,11.63-.52,4.34-3.37,7.78-8.49,10.23-11.85,5.67-38.4,8.38-57.77-3.78-15.49-9.73-22.21-25.51-34-105.27-.71-4.77-1.37-9.3-2-13.62-5.68-39.3-8.54-59-23.78-80.23-11-15.31-19-18.4-24.13-19.39C255.55,129.34,240.27,142.77,236,147a12.65,12.65,0,0,1-14.52,2.24c-8-4-23.5-9.94-37.68-4.25-20.85,8.36-27.66,37.13-28.39,52.8-1.07,22.78,9.35,36.05,23.78,54.42,13.93,17.74,31.27,39.82,41.92,76.89,6.14,21.4,17.57,61.22-2,98.21-16.17,30.65-48.93,50.51-66.36,53.06A26.05,26.05,0,0,1,149,480.62Zm-2.44-50.9c6.18,0,11.29,1.79,14.76,6.54,4.72,6.47,2.94,13.76,0,20.22,12.33-6.29,30.19-19.34,40.28-38.47,15.8-29.93,6.17-63.45.42-83.48-9.57-33.33-24.91-52.87-38.45-70.11-15.12-19.25-29.41-37.44-28-67.59,1.19-25.35,12.59-59,40.82-70.3,18.77-7.52,37.68-2.32,49.45,2.81,9.56-8.25,28-20.55,49.74-16.32,13.36,2.6,24.94,11.27,36.45,27.29,18.08,25.15,21.55,49.17,27.31,89,.62,4.3,1.27,8.81,2,13.55,11.51,77.67,17.35,86.61,24.95,91.38a38.94,38.94,0,0,0,17.53,5.42,36,36,0,0,1-9.09-10.74,38.79,38.79,0,0,1-4.36-21.54,12.63,12.63,0,0,1,21.54-8.08c6,6,18.15,15.81,32.24,13.85a33.25,33.25,0,0,0,12.65-4.69,53.47,53.47,0,0,1-23.27-7.35,59.65,59.65,0,0,1-10-8c-3.82-3.79-8-8.93-6.77-15.16a11.09,11.09,0,0,1,9.4-8.72c18.35-2.78,23.11-10.73,24.9-13.73,1.69-2.84,1.84-6.37,1.36-9.69-15.87,10.59-29.45,13.66-41.32,9.4-21.73-7.8-24.52-34.3-27.76-65-3.65-34.57-7.78-73.76-36.8-99.33-10.42-9.2-31.87-24.17-58.4-21.18-18.85,2.12-33,12.55-41.46,20.92a12.52,12.52,0,0,1-11.81,3.28c-16.56-4-41.22-6.43-64.69,4.78-41.66,19.9-53.59,70.55-56.26,85.59-8.22,46.46,9.91,85.44,25.92,119.83,17,36.54,33.06,71.06,14.4,106.63-5.73,10.91-13.78,20-21,27.33l.67-.23C125.82,433.71,137.38,429.72,146.59,429.72Z"/><path class="cls-8" d="M196.42,361c3.15,1.38,8.68,1.89,19.62,2.86,26.6,2.34,44.14,3.88,66.19,0,11.17-2,38.93-7.19,65.51-27.51,11.5-8.79,18.4-14.06,22.19-23.65,9.66-24.43-9.56-54.86-23.48-69.32-41.82-43.42-138.95-48.5-171,2.24C151.78,283,167.16,348.2,196.42,361Z"/><path class="cls-9" d="M127,155.7a89.8,89.8,0,0,0-7,22.18c-4.57,23.4-.27,42.44,4,60.85,17.43,74.92,24.47,93.07,29.9,102a12.89,12.89,0,0,0,2.5,3.75c6.3,5.95,18.82,1.64,24.95.07,25.4-6.52,31.53,10.23,59.33,5.66,21.55-3.54,20.55-14.13,43.53-17.14,19.6-2.57,21.14,5,39.36,1.34,2.69-.55,32.94-7.47,40.84-29.81,6.39-18.08-9.91-24.46-22.45-65.89-10.39-34.32-10.12-62.2-25.69-91.78a87.51,87.51,0,0,0-9-13.53c-7.69-9.75-16.65-21.11-32.76-29.49C234.35,83,186.81,100,161.3,117.41,153.42,122.8,137,134.33,127,155.7Z"/><path class="cls-10" d="M127,155.7a89.8,89.8,0,0,0-7,22.18c-4.57,23.4-.27,42.44,4,60.85,17.43,74.92,24.47,93.07,29.9,102a12.89,12.89,0,0,0,2.5,3.75c6.3,5.95,18.82,1.64,24.95.07,25.4-6.52,31.53,10.23,59.33,5.66,21.55-3.54,20.55-14.13,43.53-17.14,19.6-2.57,21.14,5,39.36,1.34,2.69-.55,32.94-7.47,40.84-29.81,6.39-18.08-9.91-24.46-22.45-65.89-10.39-34.32-10.12-62.2-25.69-91.78a87.51,87.51,0,0,0-9-13.53c-7.69-9.75-16.65-21.11-32.76-29.49C234.35,83,186.81,100,161.3,117.41,153.42,122.8,137,134.33,127,155.7Z"/><path class="cls-8" d="M165,257c13-18.76-14.35-40.64-9.38-78.13,4.48-33.67,30.86-48.84,24.45-57.77-6-8.38-35.54-3.91-53.23,12.78C89,169.61,107.38,259.5,136.73,268.13,146.35,271,159,265.62,165,257Z"/><path class="cls-8" d="M335,219.9c-12.61,1-14.85-52.51-51.91-77.87-14.69-10.05-30.23-12.52-39.39-13.26.46-16.69,4.74-24.31,10.26-27.26,24.07-12.85,100.25,47.88,92.63,97.55C345.28,207.84,340.82,219.47,335,219.9Z"/><ellipse class="cls-8" cx="180.87" cy="240.18" rx="18.05" ry="18.35" transform="translate(-107.89 323.94) rotate(-69.19)"/><circle class="cls-7" cx="179.14" cy="229.55" r="19.66"/><circle class="cls-11" cx="179.14" cy="229.55" r="19.66"/><circle class="cls-12" cx="181.17" cy="229.97" r="3.34"/><ellipse class="cls-8" cx="312.24" cy="212.26" rx="18.05" ry="18.35" transform="translate(2.91 428.73) rotate(-69.19)"/><ellipse class="cls-7" cx="311.98" cy="204.45" rx="18.05" ry="18.35" transform="translate(10.04 423.46) rotate(-69.19)"/><ellipse class="cls-13" cx="311.98" cy="204.45" rx="18.05" ry="18.35" transform="translate(10.04 423.46) rotate(-69.19)"/><circle class="cls-12" cx="311.2" cy="205.58" r="3.34"/><path class="cls-14" d="M168.94,194.32a23.81,23.81,0,0,0-15.31,4.13,24.3,24.3,0,0,0-9.8,16.2"/><path class="cls-14" d="M296.65,170.08a22.6,22.6,0,0,1,28.19-.37"/><g class="cls-15"><path class="cls-16" d="M224.25,271.47a98.63,98.63,0,0,0,67.9-12.06,138.82,138.82,0,0,0-67.9,12.06Z"/></g><path class="cls-16" d="M218.87,270.29c5.13-15.67,11.12-20,15.73-21,7.27-1.54,11.56,4.35,21.5,2.49,8.16-1.53,9.4-6.39,16-7.47,5.11-.84,13,.66,24.25,12.45a369.78,369.78,0,0,0-77.48,13.5Z"/><path class="cls-12" d="M204.1,282a8.67,8.67,0,0,1,2.46-4.63,20.43,20.43,0,0,1,3.28-2.79,49.8,49.8,0,0,1,6.95-3.93,117.63,117.63,0,0,1,14.43-5.58A226.36,226.36,0,0,1,261,258a163.13,163.13,0,0,1,30.62-2.32,75.55,75.55,0,0,1,15.54,1.83,23.29,23.29,0,0,1,3.93,1.32,11.6,11.6,0,0,1,3.85,2.6,6.08,6.08,0,0,1,1.43,2.53,5.14,5.14,0,0,1,.15,1.56,6.24,6.24,0,0,1-.31,1.43,7.87,7.87,0,0,1-3,3.53,1.32,1.32,0,0,1-1.88-1.79l.06-.08a6.65,6.65,0,0,0,1.19-2.68,1.46,1.46,0,0,0,0-.43c-.08-.1-.05-.2-.16-.29a2.41,2.41,0,0,0-.58-.61,9.39,9.39,0,0,0-2.58-1.29,28,28,0,0,0-3.28-.94,70.09,70.09,0,0,0-14.46-1.45,165.5,165.5,0,0,0-29.59,2.56,221,221,0,0,0-29,6.85A122.81,122.81,0,0,0,219,275.46a44.41,44.41,0,0,0-6.25,3.4,16.12,16.12,0,0,0-2.53,2,4.17,4.17,0,0,0-1.23,1.84v.08a2.49,2.49,0,0,1-4.92-.78Z"/><path class="cls-17" d="M103.91,101.92c4.81-14.64,12.51-22.14,17.3-25.83,23-17.68,63.65-12.68,99.11,15L218,102.84c-8.76-5.47-35.9-20.81-71.44-16.26A105.85,105.85,0,0,0,103.91,101.92Z"/><path class="cls-17" d="M210.56,61.41A76.4,76.4,0,0,0,164,55.51a75.45,75.45,0,0,1,34.41,19.86,71.88,71.88,0,0,1,10.62,14l27.53-7.27A74.81,74.81,0,0,0,210.56,61.41Z"/><path class="cls-17" d="M233.8,125.17c14.75-1.5,24.91,13.18,26.24,15.17a37.27,37.27,0,0,1,6,21.5,55.42,55.42,0,0,0-44.7-31.36A24,24,0,0,1,233.8,125.17Z"/><path class="cls-17" d="M234,126.89a25.37,25.37,0,0,1,9.28,8.72c5.49,8.86,3.28,18.32,2.56,21.41a33.39,33.39,0,0,1-11.44,18,64.33,64.33,0,0,0-20.75-40.6Z"/><path class="cls-17" d="M145.86,89.73c-47,22.47-59.27,78.85-61.75,92.81-17.45,98.6,74.22,160.82,41.3,223.58-12.88,24.56-40,40.08-36,46,5.54,8.1,55.92-21,63.91-10,5.07,6.95-11.72,23.6-7.86,27.53,5.69,5.8,46.76-12.64,64.89-47,17.66-33.46,7.18-69.93,1.18-90.85-21-73.17-68.46-83.51-66.07-134.5.94-20,9.83-51.61,34.61-61.55,18.69-7.49,38.06.67,45.84,4.6a2.72,2.72,0,0,0,3.12-.48c5.53-5.4,23.67-21.18,44.64-17.1,7.46,1.46,17.75,5.91,30.28,23.34,18.48,25.7,20.35,49.77,27.53,98.19,11.59,78.14,17.81,91,29.5,98.32,20.83,13.08,50.65,4.78,51.12.79.41-3.41-20.48-4.27-28.71-19.28A29.26,29.26,0,0,1,380.24,308a2.71,2.71,0,0,1,4.62-1.73c6.88,6.91,22,19.25,40.63,16.67,17.41-2.42,31.43-17,29.49-21.64-2-4.78-20.3,1.15-36.28-8.68-6-3.69-15.68-12.9-11.09-13.6,22.87-3.47,29.62-14.6,31.92-18.45,5.81-9.72,1.81-21.91-.72-27.69a2.71,2.71,0,0,0-4.17-1c-20.53,16.23-32.79,16.66-40.22,14-35.51-12.75-3.65-111.56-61.36-162.43-4.9-4.32-31.22-27.52-66.07-23.59-23.51,2.64-39.88,16.4-47.31,23.71a2.67,2.67,0,0,1-2.52.7C202.37,80.67,173.88,76.34,145.86,89.73Z"/></svg>