<svg id="Layer_1" data-name="Layer 1" xmlns="http://www.w3.org/2000/svg" xmlns:xlink="http://www.w3.org/1999/xlink" viewBox="0 0 512 512"><defs><style>.cls-1,.cls-4{fill:none;}.cls-2{fill:#6eb0ff;}.cls-3{clip-path:url(#clip-path);}.cls-4{stroke:#fff;stroke-width:19.84px;}.cls-5{clip-path:url(#clip-path-2);}.cls-6{clip-path:url(#clip-path-3);}.cls-7{fill:#ff967f;}.cls-8{fill:#f6f6f6;}.cls-9{clip-path:url(#clip-path-7);}.cls-10{fill:#ffca98;}.cls-11{fill:#e1ad7f;}.cls-12{fill:#6c517a;}.cls-13{fill:#fff;}</style><clipPath id="clip-path"><rect class="cls-1" x="-532" width="512" height="512"/></clipPath><clipPath id="clip-path-2"><rect class="cls-1" x="532" width="512" height="512"/></clipPath><clipPath id="clip-path-3"><path class="cls-1" d="M539.59,177.22a102.22,102.22,0,0,0-3.24,26.23c-.36,30.51,10.7,54.13,16.94,67.24,33.1,69.44,49.74,104.23,54.29,107.9,36.87,29.77,90.15,31.94,129.62,17.8,6.08-2.18,69-25.66,78.33-74.53.35-1.82.49-3.08.77-5.23,3.24-24.4-4.25-46.47-19.23-90.62-17-50-28.51-82.69-60.32-110.7-10.6-9.33-23-20.2-42.68-26.28-49.27-15.17-99,13.59-123.93,38.34C562.44,135,546.44,151.26,539.59,177.22Z"/></clipPath><clipPath id="clip-path-7"><path class="cls-1" d="M120,114.55a133.32,133.32,0,0,0-14.89,30.91c-13.12,37.36-9.35,71-7.12,89.71C109.81,334.3,115.81,384,119.87,390.4c33,51.92,97.55,76.74,152,75.77,8.38-.15,95.55-2.84,127.28-59.07,1.19-2.09,1.88-3.58,3.13-6.11,14.12-28.65,14.09-58.9,14-119.41-.07-68.48-.67-113.51-28.14-161.17-9.15-15.87-19.81-34.37-41.55-50C292.32,31.22,219.27,45.92,178.29,66,165.64,72.16,139.21,85.49,120,114.55Z"/></clipPath></defs><rect class="cls-2" width="512" height="512"/><g class="cls-3"><path class="cls-4" d="M-51.64,303.3c-17.89-.25-26.77,0-50.25-.72-15.83-.5-17,1.47-27.63-.39-11.23-2-12.45-4.61-21.56-5.2-11.37-.74-15.27,3-28.35,4.49-11.84,1.34-11.93-1.35-28.38-1.61-12.94-.21-55.29.79-59.9.35a5.89,5.89,0,0,1-3.1-1.07,3.24,3.24,0,0,1-1.28-2.51c0-1.23-1.07-4.33-1.07-5.57,0-19.72,1.07-37.57,1.07-57.29,1.86-1.79,3.29-3.58,4.5-3.58l96,.64c8,0,12.15.45,15.82.1,9.09-.85,10.59-2.62,17.6-2.49,6.6.12,7.67,1.74,16.15,2.72a84.92,84.92,0,0,0,16.53.11l90.32.6a5.22,5.22,0,0,1,2.87.86,3.49,3.49,0,0,1,1.5,2.13l6.54,31.73a3.18,3.18,0,0,1-1.34,3.18l-42.91,32.54A5.07,5.07,0,0,1-51.64,303.3Z"/><path class="cls-4" d="M-51.64,303.3c-17.89-.25-26.77,0-50.25-.72-15.83-.5-17,1.47-27.63-.39-11.23-2-12.45-4.61-21.56-5.2-11.37-.74-15.27,3-28.35,4.49-11.84,1.34-11.93-1.35-28.38-1.61-12.94-.21-55.29.79-59.9.35a5.89,5.89,0,0,1-3.1-1.07,3.24,3.24,0,0,1-1.28-2.51c0-1.23-1.07-4.33-1.07-5.57,0-19.72,1.07-37.57,1.07-57.29,1.86-1.79,3.29-3.58,4.5-3.58l96,.64c8,0,12.15.45,15.82.1,9.09-.85,10.59-2.62,17.6-2.49,6.6.12,7.67,1.74,16.15,2.72a84.92,84.92,0,0,0,16.53.11l90.32.6a5.22,5.22,0,0,1,2.87.86,3.49,3.49,0,0,1,1.5,2.13l6.54,31.73a3.18,3.18,0,0,1-1.34,3.18l-42.91,32.54A5.07,5.07,0,0,1-51.64,303.3Z"/><path class="cls-4" d="M-52.78,296.17c-17.89-.25-26.77,0-50.25-.71-15.83-.51-17,1.46-27.63-.4-11.23-2-12.45-4.61-21.56-5.2-11.37-.74-15.26,3-28.34,4.49-11.84,1.35-11.94-1.35-28.39-1.61-12.93-.2-55.29.79-59.9.35a5.89,5.89,0,0,1-3.1-1.07,3.24,3.24,0,0,1-1.28-2.5V226.65c0-2,2-3.59,4.5-3.57l96,.63c8,.06,12.15.45,15.82.11,9.09-.86,10.59-2.63,17.6-2.5,6.6.12,7.67,1.74,16.15,2.72a83.37,83.37,0,0,0,16.53.11l90.32.6a5.22,5.22,0,0,1,2.87.86,3.49,3.49,0,0,1,1.5,2.13l6.54,31.73a3.19,3.19,0,0,1-1.34,3.19L-49.63,295.2A5.13,5.13,0,0,1-52.78,296.17Z"/><path class="cls-4" d="M-52.78,296.17c-17.89-.25-26.77,0-50.25-.71-15.83-.51-17,1.46-27.63-.4-11.23-2-12.45-4.61-21.56-5.2-11.37-.74-15.26,3-28.34,4.49-11.84,1.35-11.94-1.35-28.39-1.61-12.93-.2-55.29.79-59.9.35a5.89,5.89,0,0,1-3.1-1.07,3.24,3.24,0,0,1-1.28-2.5V226.65c0-2,2-3.59,4.5-3.57l96,.63c8,.06,12.15.45,15.82.11,9.09-.86,10.59-2.63,17.6-2.5,6.6.12,7.67,1.74,16.15,2.72a83.37,83.37,0,0,0,16.53.11l90.32.6a5.22,5.22,0,0,1,2.87.86,3.49,3.49,0,0,1,1.5,2.13l6.54,31.73a3.19,3.19,0,0,1-1.34,3.19L-49.63,295.2A5.13,5.13,0,0,1-52.78,296.17Z"/><path class="cls-4" d="M-5.2,261c-.64-1.69-3.21-3-8.35-5.62-6.32-3.22-15.62-8-29.35-9.36-4.93-.5-25.87-2.63-30.89,4.9-1.59,2.4-1,4.9,1.08,10.51,7,19,12.83,34.86,21.73,34.85,2.79,0,4.75-1.57,7-3.31C-17,272-2.76,267.41-5.2,261Z"/><path class="cls-4" d="M-5.2,261c-.64-1.69-3.21-3-8.35-5.62-6.32-3.22-15.62-8-29.35-9.36-4.93-.5-25.87-2.63-30.89,4.9-1.59,2.4-1,4.9,1.08,10.51,7,19,12.83,34.86,21.73,34.85,2.79,0,4.75-1.57,7-3.31C-17,272-2.76,267.41-5.2,261Z"/></g><g class="cls-5"><g class="cls-6"><path class="cls-4" d="M523.31,155.06c10.58-1.54,22.06,9.26,26.65,19.82,5.9,13.56-3.85,16.9-1.82,38,1.11,11.63,6.46,35.71,16,52.15.91,1.55,3.22,5.39,2.79,10.25-.66,7.35-7.43,15.22-13.26,15.52-11.28.58-21-27.15-29.83-52.55-9.66-27.65-23.16-66.33-8.67-79.35A15.89,15.89,0,0,1,523.31,155.06Z"/><path class="cls-4" d="M523.31,155.06c10.58-1.54,22.06,9.26,26.65,19.82,5.9,13.56-3.85,16.9-1.82,38,1.11,11.63,6.46,35.71,16,52.15.91,1.55,3.22,5.39,2.79,10.25-.66,7.35-7.43,15.22-13.26,15.52-11.28.58-21-27.15-29.83-52.55-9.66-27.65-23.16-66.33-8.67-79.35A15.89,15.89,0,0,1,523.31,155.06Z"/></g><g class="cls-6"><path class="cls-4" d="M523.31,155.06c10.58-1.54,22.06,9.26,26.65,19.82,5.9,13.56-3.85,16.9-1.82,38,1.11,11.63,6.46,35.71,16,52.15.91,1.55,3.22,5.39,2.79,10.25-.66,7.35-7.43,15.22-13.26,15.52-11.28.58-21-27.15-29.83-52.55-9.66-27.65-23.16-66.33-8.67-79.35A15.89,15.89,0,0,1,523.31,155.06Z"/><path class="cls-4" d="M523.31,155.06c10.58-1.54,22.06,9.26,26.65,19.82,5.9,13.56-3.85,16.9-1.82,38,1.11,11.63,6.46,35.71,16,52.15.91,1.55,3.22,5.39,2.79,10.25-.66,7.35-7.43,15.22-13.26,15.52-11.28.58-21-27.15-29.83-52.55-9.66-27.65-23.16-66.33-8.67-79.35A15.89,15.89,0,0,1,523.31,155.06Z"/></g><g class="cls-6"><path class="cls-4" d="M523.31,155.06c10.58-1.54,22.06,9.26,26.65,19.82,5.9,13.56-3.85,16.9-1.82,38,1.11,11.63,6.46,35.71,16,52.15.91,1.55,3.22,5.39,2.79,10.25-.66,7.35-7.43,15.22-13.26,15.52-11.28.58-21-27.15-29.83-52.55-9.66-27.65-23.16-66.33-8.67-79.35A15.89,15.89,0,0,1,523.31,155.06Z"/><path class="cls-4" d="M523.31,155.06c10.58-1.54,22.06,9.26,26.65,19.82,5.9,13.56-3.85,16.9-1.82,38,1.11,11.63,6.46,35.71,16,52.15.91,1.55,3.22,5.39,2.79,10.25-.66,7.35-7.43,15.22-13.26,15.52-11.28.58-21-27.15-29.83-52.55-9.66-27.65-23.16-66.33-8.67-79.35A15.89,15.89,0,0,1,523.31,155.06Z"/></g><g class="cls-6"><path class="cls-7" d="M523.31,155.06c10.58-1.54,22.06,9.26,26.65,19.82,5.9,13.56-3.85,16.9-1.82,38,1.11,11.63,6.46,35.71,16,52.15.91,1.55,3.22,5.39,2.79,10.25-.66,7.35-7.43,15.22-13.26,15.52-11.28.58-21-27.15-29.83-52.55-9.66-27.65-23.16-66.33-8.67-79.35A15.89,15.89,0,0,1,523.31,155.06Z"/></g></g><path class="cls-8" d="M268.78,482.75a212.72,212.72,0,0,1-87.95-19.62c-31.91-14.82-57.83-36.91-74.93-63.86-5.75-9-8.69-30.8-24.35-162.14-2.15-18.06-6.64-55.65,7.94-97.16a148.69,148.69,0,0,1,16.7-34.55C128.27,72,158.22,57.36,171,51.1a224,224,0,0,1,85.74-21.67c37.9-1.62,72.32,7.89,99.51,27.5,24.62,17.76,36.59,38.52,46.21,55.21,30.24,52.47,30.29,101.53,30.36,169.43.06,63,.09,94.62-15.74,126.74l-.57,1.17c-.95,1.93-1.77,3.6-3,5.76-15.28,27.07-43.71,47.24-82.23,58.33a241.49,241.49,0,0,1-59.18,9.15C271,482.74,269.9,482.75,268.78,482.75ZM134.44,382.46c30.18,46.6,88.59,67.18,134.4,67.18l2.69,0a210.49,210.49,0,0,0,50.6-7.87C352.57,433,373.62,418.59,384.7,399c.74-1.33,1.25-2.36,2.09-4.07l.6-1.23c12.42-25.18,12.39-54.22,12.33-112.07-.08-71.05-1.26-110.11-25.94-152.92-8.86-15.39-18-31.3-36.88-44.89-50.21-36.21-118.75-18.89-151.34-3-10.36,5.07-34.64,17-51.75,42.84h0a116.66,116.66,0,0,0-13.08,27.26c-12,34.26-8.3,65.49-6.3,82.26C123.63,310.36,130.93,371.61,134.44,382.46Zm.2.56Z"/><g class="cls-9"><path class="cls-8" d="M399.09,515.69a39,39,0,0,1-4.57-.27c-32.11-3.77-51-47.81-56.45-70.57-4.8-19.93-2.72-35.64-.71-50.83,2.11-16,8.12-41.58,24.73-72.74,20.19-37.88,37.62-70.59,68.53-71.58h0c29.06-.94,52.36,28.09,63.44,53.22,11.21,25.41,12.85,56.58,4.75,90.12a226.09,226.09,0,0,1-37.06,79.41C449.54,489,425.69,515.69,399.09,515.69ZM431.67,282.8c-11.75.37-26.3,27.66-40.36,54.06-11.15,20.9-18.65,42.74-21.13,61.5-1.76,13.31-3.28,24.8.08,38.73,5.63,23.36,20.17,44.51,28.12,45.45,5.26.62,19.87-6.92,36.74-29.76,27.64-37.43,46.36-96.34,28.65-136.5-8.06-18.27-22.56-33.49-31.83-33.49Z"/><path class="cls-8" d="M171.16,515c-23.6,0-47.95-18.34-61.6-30.61A226.16,226.16,0,0,1,57.31,414C42.62,382.79,38,351.93,43.84,324.78c5.81-26.85,22.77-59.94,51.45-64.88h0c30.47-5.25,54.13,23.29,81.52,56.34,22.53,27.19,33.56,51.05,38.85,66.29,5,14.47,10.21,29.45,9.51,49.93-.79,23.4-10.42,70.33-41.11,80.48A41.09,41.09,0,0,1,171.16,515ZM102.32,292.41a8.21,8.21,0,0,0-1.41.12h0c-9.13,1.57-20.45,19.54-24.71,39.25-9.28,42.9,20.9,96.84,55.5,128,21.12,19,37,23.43,42,21.77,7.6-2.51,17.59-26.16,18.41-50.17.49-14.33-3.31-25.28-7.7-37.95-6.21-17.88-17.95-37.77-33.06-56C133,315.25,114.05,292.41,102.32,292.41Z"/><path class="cls-8" d="M251.88,121.39h-.45c-10.24-.22-15.18-7.52-17.77-13.55a34.38,34.38,0,0,1-8.29,2.91c-15,3.18-31.41-3.64-46.34-19.2-4.68-4.88-12.51-13.05-14.66-24.57h0c-2.38-12.83,2.68-27.42,14.26-41.08,17.81-21,46-34.25,71.9-33.76,18.17.35,36.56,7,51.76,18.85C317.65,22.89,327.73,38.75,330,54.49c1.68,11.83.21,36.08-17.34,43.23a23.31,23.31,0,0,1-12.41,1.44c-1.61,4.79-4.89,10.36-12,13-7.66,2.86-14.11.44-18.83-2.71C266.45,115.06,261.34,121.39,251.88,121.39Zm-55-60.47c.34,1.79,4.16,5.78,6,7.7,8.49,8.84,14.21,10,15.55,9.73.55-.11,1.48-.91,2.95-2.2,3.34-3,11.17-9.85,22.46-6.91a22.13,22.13,0,0,1,8.88,4.61,21.49,21.49,0,0,1,8.43-3.56A21.72,21.72,0,0,1,274.81,72a22.61,22.61,0,0,1,22.56-8,26.07,26.07,0,0,0-.19-4.83c-2.13-15-23.69-33.45-47.29-33.91-18.6-.35-36.47,10.83-46,22.06-6.47,7.64-7.14,12.69-7,13.63Z"/><path class="cls-8" d="M410.58,239.87c-7.43,0-14.79-2-20.55-6.77-10.78-8.86-10.49-21.46-10.25-31.59.07-2.75.14-5.6,0-8.53-.62-18.69-7.57-32.53-13.71-44.74-5.22-10.42-9.93-15.51-14.92-20.91-6.35-6.87-13.55-14.66-18.47-30.24-4.09-13-11.55-44.38,7.43-56.49,4.12-2.64,11.19-5.29,21.46-3,21,4.76,50.29,30,68.19,58.79a172.79,172.79,0,0,1,24.69,74c2.55,29.52-4.55,51.62-20,62.22A43.4,43.4,0,0,1,410.58,239.87Zm-.86-33.13M361.22,72.92a79.09,79.09,0,0,0,3.08,14.2c2.69,8.52,5.71,11.79,11.21,17.74,5.73,6.21,12.87,13.93,20.19,28.51,6.9,13.74,16.34,32.55,17.21,58.51.13,3.87,0,7.35,0,10.42,0,1.31-.06,2.84-.07,4.24a8.72,8.72,0,0,0,3-1.19c3.23-2.21,7.41-12.58,5.73-32.08a140.57,140.57,0,0,0-19.81-59.35C388.76,93.15,371.54,78.86,361.22,72.92Z"/><path class="cls-8" d="M93,277.06a27.24,27.24,0,0,1-7.41-1c-26-7.35-26.43-46.94-26.88-92.77-.45-45.54-1-102.21,32.35-116.55a37.26,37.26,0,0,1,21.1-2.47h0c22.29,4.09,36.23,29,38,50.35,1.34,15.91-4.67,24.67-9.49,31.71-3.43,5-6.66,9.73-8.95,19.47-3.3,14.06-6.06,43.12-1.85,63.67l0,.14c.67,3.25,2.7,13.12-1.94,23.63C122.49,265.75,107.78,277.06,93,277.06ZM105.85,96.79a4.8,4.8,0,0,0-1.68.36c-.7.3-6.84,3.58-10.17,27.18-2.55,18.06-2.33,40.55-2.15,58.62.14,14.46.29,29.41,1.42,41.83a93.12,93.12,0,0,0,2.8,17.1,6.52,6.52,0,0,0,1.66-2c.37-.83,0-2.69-.2-3.59l0-.16c-5.56-27.1-1.82-61.43,2-77.89a82.2,82.2,0,0,1,13.87-30.61c3.6-5.26,4.15-6.07,3.8-10.23-.85-10.21-7.37-19.89-11-20.56A2,2,0,0,0,105.85,96.79Z"/><path class="cls-8" d="M275.35,522.68a112.27,112.27,0,0,1-13.8-.83c-10-1.22-60.27-9.11-70.26-44-3.3-11.5-.33-20.19,2.06-27.18,2.1-6.13,4.27-12.47,3.83-24.32-.13-3.34-.44-6.33-.73-9.23-.95-9.22-2-19.66,5.57-30.12h0c7.27-10,17.7-13.08,31.65-16.29,23.93-5.51,37.11-8.55,53.39-7.58,21,1.26,35,7.13,52.73,14.55,4.9,2.06,14,5.88,20.3,15.43,6.7,10.18,6,20.13,5.44,28.13-.15,2.16-.3,4.2-.33,6.33a36.66,36.66,0,0,0,3.29,16.58c2,5.07,4.57,11.38,3.68,20.17-1.22,12-8.45,23.66-20.91,33.6C331.87,513.41,302.74,522.68,275.35,522.68ZM228.9,406.52a60.13,60.13,0,0,0,.48,7.24c.32,3.09.72,6.95.88,11.36a91.3,91.3,0,0,1-5.58,36.29c-1.93,5.61-1.92,6.11-1.57,7.33,2.76,9.62,24.2,18,42.48,20.25,26.08,3.2,52-6.53,65-16.94,6-4.8,8.41-9,8.62-11.07.06-.58-.3-1.58-1.46-4.49a69,69,0,0,1-5.67-29.38c0-3.06.23-5.78.4-8.19.24-3.48.48-6.78-.07-7.61s-2.46-1.83-5.44-3.08c-16.54-6.93-26.52-11.11-41.9-12-11.53-.7-21.69,1.65-44,6.79C233,404.84,230,405.94,228.9,406.52Z"/></g><path class="cls-8" d="M213.83,288.92a52.81,52.81,0,0,1-50.45-37.77,51.27,51.27,0,0,1,35.66-64A52.69,52.69,0,0,1,263.44,223a51.08,51.08,0,0,1-4.37,39.51h0A51.05,51.05,0,0,1,227.78,287,52.4,52.4,0,0,1,213.83,288.92Zm-.89-70.56a19.41,19.41,0,0,0-5.11.69,18.17,18.17,0,0,0-12.68,22.77A19.56,19.56,0,0,0,219,255.1a18.18,18.18,0,0,0,11.16-8.7h0a18.19,18.19,0,0,0,1.53-14.07,19.33,19.33,0,0,0-9.22-11.48A19.55,19.55,0,0,0,212.94,218.36Z"/><path class="cls-8" d="M268.78,482.75a212.72,212.72,0,0,1-87.95-19.62c-31.91-14.82-57.83-36.91-74.93-63.86-5.75-9-8.69-30.8-24.35-162.14-2.15-18.06-6.64-55.65,7.94-97.16a148.69,148.69,0,0,1,16.7-34.55C128.27,72,158.22,57.36,171,51.1a224,224,0,0,1,85.74-21.67c37.9-1.62,72.32,7.89,99.51,27.5,24.62,17.76,36.59,38.52,46.21,55.21,30.24,52.47,30.29,101.53,30.36,169.43.06,63,.09,94.62-15.74,126.74l-.57,1.17c-.95,1.93-1.77,3.6-3,5.76-15.28,27.07-43.71,47.24-82.23,58.33a241.49,241.49,0,0,1-59.18,9.15C271,482.74,269.9,482.75,268.78,482.75ZM134.44,382.46c30.18,46.6,88.59,67.18,134.4,67.18l2.69,0a210.49,210.49,0,0,0,50.6-7.87C352.57,433,373.62,418.59,384.7,399c.74-1.33,1.25-2.36,2.09-4.07l.6-1.23c12.42-25.18,12.39-54.22,12.33-112.07-.08-71.05-1.26-110.11-25.94-152.92-8.86-15.39-18-31.3-36.88-44.89-50.21-36.21-118.75-18.89-151.34-3-10.36,5.07-34.64,17-51.75,42.84h0a116.66,116.66,0,0,0-13.08,27.26c-12,34.26-8.3,65.49-6.3,82.26C123.63,310.36,130.93,371.61,134.44,382.46Zm.2.56Z"/><path class="cls-8" d="M211.74,267a45.71,45.71,0,1,1,12.54-1.76A45.34,45.34,0,0,1,211.74,267Zm.09-58.05a12.46,12.46,0,1,0,10.87,18.52h0a12.45,12.45,0,0,0-10.87-18.52Z"/><path class="cls-8" d="M343.57,281A52.49,52.49,0,0,1,318,274.33c-25.17-14-34.38-45.69-20.51-70.58S343.12,170,368.3,184s34.38,45.69,20.51,70.58h0a51,51,0,0,1-31.29,24.51A52.35,52.35,0,0,1,343.57,281Zm-.89-70.55a18.48,18.48,0,0,0-16.26,9.39c-5,8.94-1.53,20.4,7.69,25.54a19.31,19.31,0,0,0,14.61,1.81,18.17,18.17,0,0,0,11.16-8.71c5-8.94,1.53-20.4-7.69-25.54A19.48,19.48,0,0,0,342.68,210.47Z"/><path class="cls-8" d="M344.76,261a44.06,44.06,0,0,1-42.1-31.52,42.7,42.7,0,0,1,3.66-33c11.59-20.8,38.12-28.21,59.14-16.5a43.59,43.59,0,0,1,20.76,25.94,42.89,42.89,0,0,1-29.82,53.54A44.12,44.12,0,0,1,344.76,261Zm-.68-53.51a10,10,0,0,0-8.84,5.07,9.82,9.82,0,0,0-.81,7.59,10.85,10.85,0,0,0,13.18,7.35,9.85,9.85,0,0,0,6-4.7h0a9.85,9.85,0,0,0,.82-7.6,10.89,10.89,0,0,0-10.38-7.71Z"/><path class="cls-8" d="M213.06,255.2a33,33,0,0,1-16.14-4.2h0a33.31,33.31,0,1,1,16.14,4.2Zm0-33.13a.18.18,0,0,0,.25-.07.19.19,0,0,0-.07-.24.21.21,0,0,0-.25.07A.17.17,0,0,0,213,222.07Z"/><path class="cls-8" d="M344.64,251.67a33.41,33.41,0,1,1,9.16-1.29A33.44,33.44,0,0,1,344.64,251.67Zm.06-33.48a.16.16,0,1,0,.08,0Z"/><path class="cls-8" d="M338.4,238.72a21.48,21.48,0,1,1,18.81-11h0A21.51,21.51,0,0,1,338.4,238.72Zm-10.12-27.14a11.62,11.62,0,1,0,15.82-4.49,11.65,11.65,0,0,0-15.82,4.49l14.46,8.06Z"/><path class="cls-8" d="M189.13,191.38l-31.78-9.29c1.49-5.09,7.78-22.43,26.22-31.7a51.66,51.66,0,0,1,34.31-4.14l-7.25,32.31A18.66,18.66,0,0,0,198.44,180C191.78,183.32,189.52,190.06,189.13,191.38Z"/><path class="cls-8" d="M367.35,181a16.75,16.75,0,0,0-20.82-2.76l-17-28.41A49.9,49.9,0,0,1,391.19,158Z"/><rect class="cls-8" x="286.35" y="233.28" width="53.77" height="90.05" transform="translate(-51.18 485.12) rotate(-71.2)"/><rect class="cls-8" x="198.19" y="254.77" width="90.04" height="53.77" transform="translate(-93.67 123.56) rotate(-24.05)"/><path class="cls-8" d="M313,330.26c-13.08,0-21-9.8-26.36-16.4a55,55,0,0,0-5.36-6,60.2,60.2,0,0,0-5.73,5.7c-6.15,6.69-15.42,16.79-30,16-23.32-1.24-35-29.78-38.86-39.16l30.63-12.56c4.38,10.69,7.89,15.51,9.79,17.57,1.31-1.24,2.91-3,4.11-4.29,6.39-6.94,16-17.42,31.47-16.76,15.14.66,23.92,11.51,29.73,18.69l.18.23a83.6,83.6,0,0,0,4.64-11.59L348.68,292c-5.14,15.58-14.18,36.48-33.34,38.12C314.55,330.23,313.78,330.26,313,330.26Z"/><path class="cls-8" d="M313,336a31.91,31.91,0,0,1-14-3.31,39.61,39.61,0,0,1-9.24-6.44l-.09-.09a65.63,65.63,0,0,1-5.18-5.4c-.82-1-1.6-1.9-2.36-2.8l-1-1.23L279.93,318l-1.17,1.23a71.92,71.92,0,0,1-10,9l-.16.11a39.77,39.77,0,0,1-10,5.2,34.57,34.57,0,0,1-13.84,1.81,35.08,35.08,0,0,1-13-3.6,39.56,39.56,0,0,1-8.94-6.1,57.52,57.52,0,0,1-10-12c-4.63-7.06-10.43-18.09-7.65-32.44A17.31,17.31,0,0,1,231,269.57l.38.22a39.64,39.64,0,0,1,7,5.59,51,51,0,0,1,4.6,5.13l.38.47c.54.71,1.18,1.54,1.84,2.52.52.73,1.18,1.68,1.84,2.77l.07.12a85.78,85.78,0,0,1,7.42-7.52,49.31,49.31,0,0,1,7.33-5.4A39.4,39.4,0,0,1,272.63,269a35.9,35.9,0,0,1,13.1-.77,37.82,37.82,0,0,1,12,3.57,47.69,47.69,0,0,1,14.61,11.49l.06.07a42.5,42.5,0,0,1,3.53-4.35l.14-.15a36.44,36.44,0,0,1,7.57-6.3l.15-.09a17.42,17.42,0,0,1,23.86,5.85,18.22,18.22,0,0,1,1.42,2.92,33.14,33.14,0,0,1,2.06,11.24A36.07,36.07,0,0,1,350,302a41.63,41.63,0,0,1-2.93,7.92l-.51,1c-.34.7-.69,1.4-1.06,2.1l-.56,1c-.39.71-.77,1.41-1.19,2.11l-.16.26a53.84,53.84,0,0,1-4.74,6.68,38.41,38.41,0,0,1-8.4,7.57,31.76,31.76,0,0,1-15,5.22C314.64,336,313.83,336,313,336Zm-75.36-48.54h0Z"/><path class="cls-10" d="M120,114.55a133.32,133.32,0,0,0-14.89,30.91c-13.12,37.36-9.35,71-7.12,89.71C109.81,334.3,115.81,384,119.87,390.4c33,51.92,97.55,76.74,152,75.77,8.38-.15,95.55-2.84,127.28-59.07,1.19-2.09,1.88-3.58,3.13-6.11,14.12-28.65,14.09-58.9,14-119.41-.07-68.48-.67-113.51-28.14-161.17-9.15-15.87-19.81-34.37-41.55-50C292.32,31.22,219.27,45.92,178.29,66,165.64,72.16,139.21,85.49,120,114.55Z"/><g class="cls-9"><path class="cls-7" d="M431.15,266.25c-21.33.68-36.16,28.5-54.45,62.82-18,33.7-21.89,59.25-22.93,67.12-1.88,14.22-3.69,27.85.39,44.78,5.2,21.57,21.66,55.59,42.29,58,41,4.82,116.05-113.23,82.46-189.38C470.74,291.07,452,265.59,431.15,266.25Z"/><path class="cls-7" d="M98.1,276.21c21-3.62,41.15,20.65,66,50.59,24.38,29.41,33.35,53.64,36,61.15,4.69,13.55,9.2,26.54,8.61,43.95-.76,22.17-10,58.8-29.77,65.32-39.22,13-136.43-87.6-118.84-168.94C64.3,308.48,77.56,279.75,98.1,276.21Z"/><path class="cls-7" d="M180.65,63.94C181.89,70.6,187.09,76,191,80.08c2.75,2.86,16.78,17.49,30.95,14.47,9.63-2.06,12.22-10.73,17.79-9.29,7.61,2,7.67,19.48,12.07,19.57s5.27-16.87,12.58-18.3c6.81-1.33,13,12,18,10.15,4.41-1.65,1.38-12.54,7.12-15.89,5.22-3,11.21,3.9,16.87,1.6,6.68-2.72,8.49-16.51,7.2-25.57C310.2,33,280.93,9.27,250.21,8.68,212.13,8,176.74,42.91,180.65,63.94Z"/><path class="cls-7" d="M349.06,54.55c-8.22,5.25-3.85,27.12-.55,37.56,7.21,22.83,19.12,22.25,32.4,48.69,6.39,12.74,14.71,29.3,15.45,51.63.44,13.21-1.95,22.84,4.18,27.88,6,4.91,17.63,3.48,24.6-1.31,21.44-14.72,16-73.07-9.39-113.83C395.79,73.12,360.57,47.2,349.06,54.55Z"/><path class="cls-7" d="M109.2,80.54c13.65,2.51,23.27,20.57,24.52,35.46,1.61,19.12-11.75,19.17-18.06,46-3.46,14.76-6.9,46.59-2,70.79.47,2.28,1.72,8-.84,13.76-3.86,8.76-15.46,15.63-22.75,13.57-14.1-4-14.48-42.1-14.82-77-.38-38-.91-91.18,22.33-101.16A20.54,20.54,0,0,1,109.2,80.54Z"/><path class="cls-7" d="M215.42,396.73c3.37-4.65,8.32-6.74,22-9.88,23.19-5.34,34.79-8,48.69-7.18,18.19,1.09,29.93,6,47.31,13.29,4.79,2,9.59,4.26,12.87,9.26,4.82,7.33,2.53,14.72,2.39,25.12-.29,20.5,8.13,24.63,7.05,35.32-2.44,24-49.59,48-92.13,42.76-17.42-2.14-50.37-11.18-56.37-32.12-3.95-13.75,7.58-19.24,6.52-47.56C213.2,411.79,210.06,404.12,215.42,396.73Z"/></g><ellipse class="cls-11" cx="213.41" cy="237.07" rx="35.12" ry="35.71" transform="matrix(0.49, -0.87, 0.87, 0.49, -97.55, 308.14)"/><path class="cls-12" d="M268.77,471.34a201,201,0,0,1-83.13-18.55c-29.93-13.9-54.18-34.52-70.12-59.63-4.54-7.16-9.37-46-22.64-157.39-2.21-18.52-6.33-53,7.37-92a138.63,138.63,0,0,1,15.45-32C136.07,80.89,164.07,67.19,176,61.34a212.29,212.29,0,0,1,81.21-20.52c35.33-1.51,67.27,7.26,92.36,25.36,22.64,16.32,33.93,35.91,43,51.65,28.71,49.83,28.76,97.61,28.83,163.75.07,61.23.1,92-14.56,121.69l-.58,1.19c-.95,1.92-1.63,3.3-2.68,5.17-32.88,58.26-121.67,61.51-131.68,61.69ZM265.43,51.08c-33.68,0-65.35,10-84.88,19.52-11.2,5.48-37.43,18.31-56.26,46.79h0A128.92,128.92,0,0,0,110,147.16c-12.91,36.76-9,69.7-6.87,87.39,10.17,85.21,17.51,146.78,21.14,153.11,32.94,51.9,97.83,74.24,147.49,73.36,9.42-.17,92.83-3.18,122.9-56.45.91-1.61,1.5-2.82,2.4-4.65l.59-1.21c13.59-27.57,13.56-57.5,13.5-117.12-.07-64.54-.11-111.17-27.45-158.61-9-15.66-19.26-33.42-40.1-48.44C319.56,57.22,291.87,51.08,265.43,51.08Z"/><circle class="cls-13" cx="211.81" cy="221.4" r="29.02"/><path class="cls-12" d="M211.76,254.11a32.71,32.71,0,1,1,28.62-16.8h0a32.52,32.52,0,0,1-19.62,15.54A33,33,0,0,1,211.76,254.11Zm.09-58.05A25.34,25.34,0,1,0,234,233.73h0a25.34,25.34,0,0,0-22.1-37.67Z"/><ellipse class="cls-11" cx="343.15" cy="229.18" rx="35.12" ry="35.71" transform="translate(-24.05 417.43) rotate(-60.88)"/><ellipse class="cls-13" cx="344.44" cy="217.72" rx="26.64" ry="27.08" transform="translate(-13.38 412.68) rotate(-60.88)"/><path class="cls-12" d="M344.77,247.88a30.85,30.85,0,0,1-29.49-22.07,29.63,29.63,0,0,1,2.53-22.93,30.59,30.59,0,0,1,55.8,6.74,29.65,29.65,0,0,1-2.53,22.94h0a29.64,29.64,0,0,1-18.17,14.22A30.58,30.58,0,0,1,344.77,247.88Zm-.67-53.5a23.17,23.17,0,0,0-20.34,11.82,22.85,22.85,0,0,0-1.95,17.7,24,24,0,0,0,29.29,16.31,22.89,22.89,0,0,0,14-11h0a22.89,22.89,0,0,0,1.94-17.7,24,24,0,0,0-23-17.16Z"/><circle class="cls-12" cx="213.12" cy="221.92" r="16.73"/><circle class="cls-12" cx="344.69" cy="218.36" r="16.73"/><circle class="cls-12" cx="338.44" cy="217.24" r="4.93"/><path class="cls-12" d="M173.25,190.41a3.74,3.74,0,0,1-1-.15,3.68,3.68,0,0,1-2.5-4.56c1.12-3.83,5.85-16.87,19.65-23.81a38.65,38.65,0,0,1,25.7-3.07,3.68,3.68,0,0,1-1.61,7.18,31.27,31.27,0,0,0-20.79,2.47c-11.14,5.6-15,16.18-15.88,19.29A3.68,3.68,0,0,1,173.25,190.41Z"/><path class="cls-12" d="M379.27,173.19a3.66,3.66,0,0,1-2.65-1.13,30,30,0,0,0-16.8-8.77,30.41,30.41,0,0,0-19.9,3.9,3.68,3.68,0,1,1-3.78-6.31A37,37,0,0,1,381.92,167a3.68,3.68,0,0,1-2.65,6.23Z"/><rect class="cls-7" x="302.91" y="249.84" width="20.66" height="56.94" transform="translate(-51.18 485.12) rotate(-71.2)"/><rect class="cls-7" x="214.74" y="271.33" width="56.94" height="20.66" transform="translate(-93.67 123.56) rotate(-24.05)"/><path class="cls-12" d="M222.6,283.85a24,24,0,0,1,4.29,3.46,40,40,0,0,1,3.29,3.71c.48.64,1,1.27,1.4,1.92s.89,1.27,1.3,1.93.81,1.29,1.24,1.92.83,1.28,1.28,1.85a30.26,30.26,0,0,0,5.68,6.15,9.56,9.56,0,0,0,5.62,2.4,6.31,6.31,0,0,0,2.49-.49A12.3,12.3,0,0,0,252,305a50.41,50.41,0,0,0,6.16-6.12,88,88,0,0,1,7.32-7.59,33.09,33.09,0,0,1,4.9-3.62,23,23,0,0,1,6.28-2.63,19.86,19.86,0,0,1,7.12-.4,21.19,21.19,0,0,1,6.73,2,31,31,0,0,1,9.51,7.62c2.44,2.74,4.45,5.48,6.39,7.87,1,1.19,1.9,2.3,2.81,3.22a11.56,11.56,0,0,0,2.48,2,3.54,3.54,0,0,0,1.73.53,4.11,4.11,0,0,0,2-.61,10.77,10.77,0,0,0,2.57-2.11A26.55,26.55,0,0,0,320.5,302c.4-.59.78-1.23,1.17-1.84s.74-1.3,1.12-1.95.69-1.36,1.07-2,.77-1.34,1.19-2a28.63,28.63,0,0,1,3-3.9,20,20,0,0,1,4.29-3.65l0,0a.84.84,0,0,1,1.14.28,1.47,1.47,0,0,1,.06.14,16.45,16.45,0,0,1,1,5.67,19.7,19.7,0,0,1-.65,5.28,25,25,0,0,1-1.88,4.93c-.39.8-.77,1.61-1.19,2.41s-.88,1.6-1.35,2.4a35.63,35.63,0,0,1-3.34,4.74,21.69,21.69,0,0,1-4.82,4.38,14.74,14.74,0,0,1-15,1A23,23,0,0,1,300.9,314,51.12,51.12,0,0,1,297,310c-2.28-2.66-4.26-5.17-6.27-7.29a21,21,0,0,0-5.81-4.64,8.18,8.18,0,0,0-2.7-.78,7.6,7.6,0,0,0-2.69.16,14.35,14.35,0,0,0-5.84,3.38c-2.07,1.79-4.21,4.08-6.51,6.5a58.78,58.78,0,0,1-8.13,7.46,23.68,23.68,0,0,1-5.86,3.08,18,18,0,0,1-14-.94,23.58,23.58,0,0,1-5.28-3.6,40.67,40.67,0,0,1-7.24-8.72c-3.94-6-6.79-12.46-5.28-20.26a.78.78,0,0,1,.91-.61.69.69,0,0,1,.25.1Z"/></svg>